G04 Layer_Physical_Order=1*
G04 Layer_Color=25308*
%FSLAX44Y44*%
%MOMM*%
G71*
G01*
G75*
G04:AMPARAMS|DCode=10|XSize=0.889mm|YSize=0.889mm|CornerRadius=0.1111mm|HoleSize=0mm|Usage=FLASHONLY|Rotation=180.000|XOffset=0mm|YOffset=0mm|HoleType=Round|Shape=RoundedRectangle|*
%AMROUNDEDRECTD10*
21,1,0.8890,0.6667,0,0,180.0*
21,1,0.6667,0.8890,0,0,180.0*
1,1,0.2223,-0.3334,0.3334*
1,1,0.2223,0.3334,0.3334*
1,1,0.2223,0.3334,-0.3334*
1,1,0.2223,-0.3334,-0.3334*
%
%ADD10ROUNDEDRECTD10*%
%ADD11R,1.7000X1.6000*%
%ADD12R,4.0000X1.0000*%
%ADD13R,2.8000X1.5000*%
%ADD14R,1.3500X0.6500*%
%ADD15R,0.9000X0.4000*%
G04:AMPARAMS|DCode=16|XSize=0.889mm|YSize=0.889mm|CornerRadius=0.1111mm|HoleSize=0mm|Usage=FLASHONLY|Rotation=90.000|XOffset=0mm|YOffset=0mm|HoleType=Round|Shape=RoundedRectangle|*
%AMROUNDEDRECTD16*
21,1,0.8890,0.6667,0,0,90.0*
21,1,0.6667,0.8890,0,0,90.0*
1,1,0.2223,0.3334,0.3334*
1,1,0.2223,0.3334,-0.3334*
1,1,0.2223,-0.3334,-0.3334*
1,1,0.2223,-0.3334,0.3334*
%
%ADD16ROUNDEDRECTD16*%
%ADD17R,0.7620X1.1000*%
%ADD18R,1.0000X4.0000*%
%ADD19R,0.9000X0.6500*%
%ADD20R,1.5000X2.8000*%
%ADD21C,0.2540*%
%ADD22C,0.6000*%
%ADD23C,0.4000*%
%ADD24C,1.8000*%
%ADD25C,1.2000*%
%ADD26C,1.5240*%
%ADD27C,0.6000*%
G36*
X526971Y1016000D02*
X525096D01*
Y1023063D01*
X525082Y1023048D01*
X525054Y1023020D01*
X524997Y1022978D01*
X524913Y1022907D01*
X524814Y1022823D01*
X524701Y1022738D01*
X524560Y1022640D01*
X524405Y1022527D01*
X524236Y1022414D01*
X524053Y1022301D01*
X523855Y1022175D01*
X523644Y1022062D01*
X523193Y1021850D01*
X522685Y1021653D01*
Y1023344D01*
X522699D01*
X522714Y1023359D01*
X522756Y1023373D01*
X522812Y1023387D01*
X522953Y1023457D01*
X523150Y1023542D01*
X523390Y1023655D01*
X523658Y1023810D01*
X523954Y1024007D01*
X524264Y1024233D01*
X524278Y1024247D01*
X524306Y1024261D01*
X524349Y1024303D01*
X524405Y1024360D01*
X524560Y1024501D01*
X524729Y1024684D01*
X524927Y1024909D01*
X525124Y1025191D01*
X525307Y1025487D01*
X525448Y1025811D01*
X526971D01*
Y1016000D01*
D02*
G37*
G36*
X366094Y797197D02*
X366207D01*
X366334Y797183D01*
X366475Y797155D01*
X366644Y797113D01*
X366813Y797070D01*
X367010Y797000D01*
X367208Y796930D01*
X367405Y796831D01*
X367617Y796718D01*
X367814Y796591D01*
X368011Y796436D01*
X368209Y796253D01*
X368392Y796056D01*
X368406Y796041D01*
X368434Y795999D01*
X368476Y795929D01*
X368547Y795830D01*
X368617Y795703D01*
X368702Y795548D01*
X368787Y795365D01*
X368871Y795153D01*
X368956Y794900D01*
X369054Y794618D01*
X369125Y794307D01*
X369195Y793969D01*
X369266Y793589D01*
X369308Y793180D01*
X369336Y792743D01*
X369350Y792263D01*
Y792249D01*
Y792235D01*
Y792193D01*
Y792151D01*
Y792010D01*
X369336Y791826D01*
X369322Y791601D01*
X369294Y791347D01*
X369266Y791079D01*
X369224Y790783D01*
X369167Y790459D01*
X369111Y790149D01*
X369026Y789825D01*
X368927Y789501D01*
X368815Y789204D01*
X368674Y788908D01*
X368533Y788641D01*
X368349Y788401D01*
X368335Y788387D01*
X368307Y788344D01*
X368251Y788288D01*
X368166Y788218D01*
X368068Y788133D01*
X367955Y788020D01*
X367814Y787922D01*
X367659Y787809D01*
X367490Y787696D01*
X367292Y787597D01*
X367081Y787499D01*
X366855Y787400D01*
X366601Y787329D01*
X366348Y787273D01*
X366080Y787231D01*
X365784Y787217D01*
X365671D01*
X365601Y787231D01*
X365502D01*
X365389Y787245D01*
X365121Y787287D01*
X364825Y787372D01*
X364529Y787470D01*
X364219Y787626D01*
X364078Y787710D01*
X363937Y787823D01*
X363923Y787837D01*
X363909Y787851D01*
X363867Y787893D01*
X363824Y787936D01*
X363768Y788006D01*
X363698Y788077D01*
X363641Y788175D01*
X363557Y788274D01*
X363486Y788401D01*
X363401Y788528D01*
X363331Y788683D01*
X363260Y788852D01*
X363190Y789021D01*
X363134Y789219D01*
X363077Y789416D01*
X363035Y789641D01*
X364839Y789853D01*
Y789825D01*
X364854Y789754D01*
X364868Y789656D01*
X364910Y789543D01*
X364952Y789402D01*
X365009Y789261D01*
X365079Y789134D01*
X365178Y789021D01*
X365192Y789007D01*
X365234Y788979D01*
X365290Y788937D01*
X365375Y788894D01*
X365488Y788852D01*
X365601Y788810D01*
X365756Y788782D01*
X365911Y788767D01*
X365939D01*
X366009Y788782D01*
X366108Y788796D01*
X366249Y788838D01*
X366404Y788894D01*
X366559Y788993D01*
X366728Y789120D01*
X366883Y789289D01*
X366898Y789317D01*
X366926Y789345D01*
X366954Y789402D01*
X366982Y789458D01*
X367024Y789543D01*
X367053Y789641D01*
X367109Y789768D01*
X367151Y789909D01*
X367194Y790064D01*
X367236Y790248D01*
X367278Y790445D01*
X367320Y790670D01*
X367349Y790924D01*
X367377Y791206D01*
X367405Y791502D01*
X367391Y791488D01*
X367377Y791474D01*
X367335Y791432D01*
X367278Y791375D01*
X367208Y791319D01*
X367123Y791248D01*
X366926Y791093D01*
X366672Y790938D01*
X366362Y790811D01*
X366193Y790755D01*
X366023Y790727D01*
X365840Y790699D01*
X365643Y790685D01*
X365530D01*
X365446Y790699D01*
X365347Y790713D01*
X365234Y790727D01*
X364966Y790797D01*
X364656Y790896D01*
X364501Y790981D01*
X364332Y791065D01*
X364163Y791164D01*
X363994Y791277D01*
X363824Y791418D01*
X363669Y791573D01*
X363655Y791587D01*
X363627Y791615D01*
X363599Y791671D01*
X363543Y791728D01*
X363472Y791826D01*
X363401Y791925D01*
X363331Y792052D01*
X363260Y792193D01*
X363176Y792348D01*
X363105Y792531D01*
X363035Y792715D01*
X362965Y792926D01*
X362908Y793138D01*
X362880Y793377D01*
X362852Y793631D01*
X362838Y793885D01*
Y793899D01*
Y793955D01*
Y794026D01*
X362852Y794138D01*
X362866Y794265D01*
X362880Y794406D01*
X362908Y794575D01*
X362950Y794744D01*
X363049Y795125D01*
X363120Y795337D01*
X363204Y795534D01*
X363303Y795731D01*
X363430Y795929D01*
X363557Y796112D01*
X363712Y796295D01*
X363726Y796309D01*
X363754Y796338D01*
X363796Y796380D01*
X363867Y796436D01*
X363965Y796507D01*
X364064Y796591D01*
X364191Y796662D01*
X364332Y796760D01*
X364473Y796845D01*
X364656Y796916D01*
X364839Y797000D01*
X365037Y797070D01*
X365248Y797127D01*
X365474Y797169D01*
X365699Y797197D01*
X365953Y797212D01*
X366023D01*
X366094Y797197D01*
D02*
G37*
G36*
X358792D02*
X358904Y797183D01*
X359045Y797155D01*
X359187Y797127D01*
X359356Y797085D01*
X359539Y797028D01*
X359708Y796958D01*
X359891Y796887D01*
X360075Y796789D01*
X360258Y796662D01*
X360441Y796535D01*
X360610Y796380D01*
X360765Y796197D01*
X360779Y796182D01*
X360808Y796140D01*
X360850Y796070D01*
X360920Y795971D01*
X360991Y795830D01*
X361076Y795661D01*
X361160Y795478D01*
X361245Y795238D01*
X361329Y794984D01*
X361428Y794688D01*
X361498Y794364D01*
X361569Y793997D01*
X361639Y793603D01*
X361682Y793180D01*
X361710Y792715D01*
X361724Y792207D01*
Y792193D01*
Y792179D01*
Y792137D01*
Y792080D01*
Y791939D01*
X361710Y791756D01*
X361696Y791530D01*
X361668Y791263D01*
X361639Y790981D01*
X361611Y790670D01*
X361555Y790346D01*
X361484Y790008D01*
X361414Y789684D01*
X361315Y789360D01*
X361216Y789035D01*
X361076Y788739D01*
X360934Y788457D01*
X360765Y788218D01*
X360751Y788204D01*
X360723Y788175D01*
X360681Y788119D01*
X360624Y788063D01*
X360540Y787992D01*
X360441Y787907D01*
X360314Y787809D01*
X360187Y787724D01*
X360032Y787626D01*
X359877Y787527D01*
X359694Y787442D01*
X359497Y787372D01*
X359285Y787315D01*
X359045Y787259D01*
X358806Y787231D01*
X358552Y787217D01*
X358496D01*
X358411Y787231D01*
X358312D01*
X358200Y787245D01*
X358059Y787273D01*
X357904Y787301D01*
X357734Y787358D01*
X357551Y787414D01*
X357368Y787485D01*
X357171Y787569D01*
X356987Y787682D01*
X356790Y787795D01*
X356607Y787950D01*
X356423Y788105D01*
X356254Y788302D01*
X356240Y788316D01*
X356212Y788359D01*
X356170Y788429D01*
X356127Y788514D01*
X356057Y788641D01*
X355987Y788796D01*
X355902Y788993D01*
X355831Y789204D01*
X355747Y789458D01*
X355662Y789740D01*
X355592Y790064D01*
X355535Y790417D01*
X355479Y790811D01*
X355437Y791248D01*
X355409Y791714D01*
X355394Y792221D01*
Y792235D01*
Y792249D01*
Y792292D01*
Y792348D01*
Y792489D01*
X355409Y792672D01*
X355423Y792898D01*
X355451Y793166D01*
X355479Y793448D01*
X355507Y793758D01*
X355564Y794082D01*
X355620Y794406D01*
X355704Y794744D01*
X355789Y795069D01*
X355902Y795379D01*
X356029Y795675D01*
X356170Y795957D01*
X356339Y796197D01*
X356353Y796211D01*
X356381Y796239D01*
X356423Y796295D01*
X356494Y796352D01*
X356564Y796436D01*
X356663Y796521D01*
X356790Y796605D01*
X356917Y796704D01*
X357072Y796803D01*
X357227Y796887D01*
X357410Y796972D01*
X357608Y797056D01*
X357819Y797113D01*
X358059Y797169D01*
X358298Y797197D01*
X358552Y797212D01*
X358693D01*
X358792Y797197D01*
D02*
G37*
G36*
X513973Y1016000D02*
X511845D01*
X510999Y1018213D01*
X507080D01*
X506276Y1016000D01*
X504190D01*
X507968Y1025755D01*
X510054D01*
X513973Y1016000D01*
D02*
G37*
G36*
X330668Y794618D02*
X330852Y794589D01*
X331063Y794547D01*
X331274Y794491D01*
X331500Y794420D01*
X331711Y794307D01*
X331740Y794293D01*
X331796Y794251D01*
X331895Y794181D01*
X332022Y794082D01*
X332148Y793941D01*
X332289Y793786D01*
X332416Y793603D01*
X332529Y793377D01*
X332543Y793363D01*
X332557Y793292D01*
X332585Y793180D01*
X332628Y793025D01*
X332670Y792827D01*
X332698Y792574D01*
X332712Y792263D01*
X332726Y791911D01*
Y787400D01*
X330852D01*
Y791432D01*
Y791446D01*
Y791474D01*
Y791530D01*
Y791601D01*
X330837Y791784D01*
X330823Y791996D01*
X330809Y792221D01*
X330767Y792447D01*
X330725Y792644D01*
X330682Y792715D01*
X330654Y792785D01*
X330640Y792799D01*
X330598Y792856D01*
X330541Y792912D01*
X330457Y792997D01*
X330344Y793067D01*
X330203Y793138D01*
X330034Y793180D01*
X329851Y793194D01*
X329780D01*
X329710Y793180D01*
X329611Y793166D01*
X329498Y793138D01*
X329371Y793095D01*
X329230Y793039D01*
X329104Y792954D01*
X329089Y792940D01*
X329047Y792912D01*
X328991Y792856D01*
X328920Y792771D01*
X328836Y792672D01*
X328751Y792560D01*
X328681Y792419D01*
X328610Y792249D01*
Y792221D01*
X328582Y792165D01*
X328568Y792052D01*
X328540Y791897D01*
X328511Y791685D01*
X328497Y791432D01*
X328469Y791136D01*
Y790783D01*
Y787400D01*
X326594D01*
Y791263D01*
Y791277D01*
Y791305D01*
Y791361D01*
Y791432D01*
Y791601D01*
X326580Y791812D01*
X326566Y792038D01*
X326552Y792249D01*
X326524Y792447D01*
X326496Y792531D01*
X326481Y792588D01*
Y792602D01*
X326467Y792644D01*
X326439Y792701D01*
X326411Y792757D01*
X326312Y792912D01*
X326242Y792982D01*
X326171Y793039D01*
X326157Y793053D01*
X326129Y793067D01*
X326087Y793095D01*
X326030Y793123D01*
X325946Y793152D01*
X325847Y793166D01*
X325734Y793194D01*
X325537D01*
X325452Y793180D01*
X325354Y793166D01*
X325227Y793138D01*
X325100Y793095D01*
X324973Y793039D01*
X324832Y792954D01*
X324818Y792940D01*
X324776Y792912D01*
X324719Y792856D01*
X324649Y792785D01*
X324564Y792686D01*
X324480Y792574D01*
X324409Y792433D01*
X324339Y792278D01*
Y792263D01*
X324310Y792193D01*
X324296Y792080D01*
X324268Y791939D01*
X324240Y791728D01*
X324226Y791488D01*
X324198Y791178D01*
Y790826D01*
Y787400D01*
X322323D01*
Y794477D01*
X324043D01*
Y793504D01*
X324057Y793518D01*
X324085Y793546D01*
X324141Y793603D01*
X324212Y793687D01*
X324296Y793772D01*
X324395Y793856D01*
X324522Y793969D01*
X324663Y794068D01*
X324818Y794167D01*
X324987Y794279D01*
X325354Y794463D01*
X325565Y794533D01*
X325777Y794589D01*
X326002Y794618D01*
X326242Y794632D01*
X326355D01*
X326481Y794618D01*
X326637Y794604D01*
X326820Y794561D01*
X327017Y794519D01*
X327215Y794448D01*
X327412Y794350D01*
X327440Y794336D01*
X327496Y794293D01*
X327595Y794237D01*
X327708Y794138D01*
X327835Y794012D01*
X327976Y793870D01*
X328117Y793687D01*
X328244Y793490D01*
X328272Y793518D01*
X328328Y793589D01*
X328413Y793687D01*
X328540Y793814D01*
X328695Y793955D01*
X328864Y794096D01*
X329047Y794237D01*
X329244Y794350D01*
X329273Y794364D01*
X329343Y794392D01*
X329456Y794434D01*
X329597Y794491D01*
X329766Y794547D01*
X329963Y794589D01*
X330175Y794618D01*
X330400Y794632D01*
X330527D01*
X330668Y794618D01*
D02*
G37*
G36*
X350193D02*
X350348Y794589D01*
X350545Y794547D01*
X350756Y794477D01*
X350968Y794392D01*
X351194Y794265D01*
X350601Y792644D01*
X350587Y792658D01*
X350517Y792686D01*
X350432Y792743D01*
X350320Y792799D01*
X350178Y792856D01*
X350037Y792912D01*
X349883Y792940D01*
X349727Y792954D01*
X349671D01*
X349586Y792940D01*
X349502Y792926D01*
X349403Y792898D01*
X349290Y792856D01*
X349178Y792799D01*
X349065Y792729D01*
X349051Y792715D01*
X349022Y792686D01*
X348966Y792630D01*
X348910Y792545D01*
X348839Y792447D01*
X348769Y792306D01*
X348698Y792137D01*
X348642Y791939D01*
Y791911D01*
X348628Y791869D01*
X348614Y791826D01*
Y791756D01*
X348600Y791671D01*
X348586Y791559D01*
X348571Y791432D01*
X348557Y791291D01*
X348543Y791107D01*
X348529Y790924D01*
Y790699D01*
X348515Y790459D01*
X348501Y790191D01*
Y789895D01*
Y789571D01*
Y787400D01*
X346626D01*
Y794477D01*
X348360D01*
Y793476D01*
X348374Y793490D01*
X348430Y793575D01*
X348515Y793701D01*
X348628Y793856D01*
X348741Y794012D01*
X348882Y794167D01*
X349008Y794307D01*
X349149Y794406D01*
X349164Y794420D01*
X349206Y794448D01*
X349290Y794477D01*
X349389Y794519D01*
X349502Y794561D01*
X349643Y794604D01*
X349784Y794618D01*
X349953Y794632D01*
X350066D01*
X350193Y794618D01*
D02*
G37*
G36*
X309988Y793349D02*
X313865Y787400D01*
X311313D01*
X308620Y791982D01*
X307028Y790346D01*
Y787400D01*
X305054D01*
Y797155D01*
X307028D01*
Y792813D01*
X311031Y797155D01*
X313681D01*
X309988Y793349D01*
D02*
G37*
G36*
X385336Y797197D02*
X385449Y797183D01*
X385590Y797155D01*
X385731Y797127D01*
X385900Y797085D01*
X386084Y797028D01*
X386253Y796958D01*
X386436Y796887D01*
X386619Y796789D01*
X386802Y796662D01*
X386986Y796535D01*
X387155Y796380D01*
X387310Y796197D01*
X387324Y796182D01*
X387352Y796140D01*
X387395Y796070D01*
X387465Y795971D01*
X387536Y795830D01*
X387620Y795661D01*
X387705Y795478D01*
X387789Y795238D01*
X387874Y794984D01*
X387973Y794688D01*
X388043Y794364D01*
X388114Y793997D01*
X388184Y793603D01*
X388226Y793180D01*
X388255Y792715D01*
X388269Y792207D01*
Y792193D01*
Y792179D01*
Y792137D01*
Y792080D01*
Y791939D01*
X388255Y791756D01*
X388240Y791530D01*
X388212Y791263D01*
X388184Y790981D01*
X388156Y790670D01*
X388099Y790346D01*
X388029Y790008D01*
X387958Y789684D01*
X387860Y789360D01*
X387761Y789035D01*
X387620Y788739D01*
X387479Y788457D01*
X387310Y788218D01*
X387296Y788204D01*
X387268Y788175D01*
X387225Y788119D01*
X387169Y788063D01*
X387084Y787992D01*
X386986Y787907D01*
X386859Y787809D01*
X386732Y787724D01*
X386577Y787626D01*
X386422Y787527D01*
X386239Y787442D01*
X386041Y787372D01*
X385830Y787315D01*
X385590Y787259D01*
X385350Y787231D01*
X385097Y787217D01*
X385040D01*
X384956Y787231D01*
X384857D01*
X384744Y787245D01*
X384603Y787273D01*
X384448Y787301D01*
X384279Y787358D01*
X384096Y787414D01*
X383913Y787485D01*
X383715Y787569D01*
X383532Y787682D01*
X383335Y787795D01*
X383151Y787950D01*
X382968Y788105D01*
X382799Y788302D01*
X382785Y788316D01*
X382757Y788359D01*
X382714Y788429D01*
X382672Y788514D01*
X382602Y788641D01*
X382531Y788796D01*
X382447Y788993D01*
X382376Y789204D01*
X382291Y789458D01*
X382207Y789740D01*
X382136Y790064D01*
X382080Y790417D01*
X382024Y790811D01*
X381981Y791248D01*
X381953Y791714D01*
X381939Y792221D01*
Y792235D01*
Y792249D01*
Y792292D01*
Y792348D01*
Y792489D01*
X381953Y792672D01*
X381967Y792898D01*
X381995Y793166D01*
X382024Y793448D01*
X382052Y793758D01*
X382108Y794082D01*
X382165Y794406D01*
X382249Y794744D01*
X382334Y795069D01*
X382447Y795379D01*
X382573Y795675D01*
X382714Y795957D01*
X382883Y796197D01*
X382898Y796211D01*
X382926Y796239D01*
X382968Y796295D01*
X383039Y796352D01*
X383109Y796436D01*
X383208Y796521D01*
X383335Y796605D01*
X383461Y796704D01*
X383617Y796803D01*
X383772Y796887D01*
X383955Y796972D01*
X384152Y797056D01*
X384364Y797113D01*
X384603Y797169D01*
X384843Y797197D01*
X385097Y797212D01*
X385238D01*
X385336Y797197D01*
D02*
G37*
G36*
X336547Y794477D02*
X337830D01*
Y792982D01*
X336547D01*
Y790121D01*
Y790107D01*
Y790078D01*
Y790036D01*
Y789980D01*
Y789839D01*
Y789670D01*
X336561Y789501D01*
Y789331D01*
Y789204D01*
X336575Y789148D01*
Y789120D01*
X336589Y789092D01*
X336617Y789035D01*
X336660Y788965D01*
X336744Y788880D01*
X336772Y788866D01*
X336829Y788838D01*
X336927Y788810D01*
X337054Y788796D01*
X337111D01*
X337167Y788810D01*
X337252Y788824D01*
X337364Y788838D01*
X337491Y788866D01*
X337646Y788908D01*
X337815Y788965D01*
X337985Y787513D01*
X337971D01*
X337956Y787499D01*
X337872Y787470D01*
X337731Y787428D01*
X337548Y787386D01*
X337336Y787329D01*
X337082Y787287D01*
X336800Y787259D01*
X336504Y787245D01*
X336420D01*
X336321Y787259D01*
X336194Y787273D01*
X336053Y787287D01*
X335898Y787315D01*
X335743Y787358D01*
X335588Y787414D01*
X335574Y787428D01*
X335518Y787442D01*
X335447Y787485D01*
X335363Y787527D01*
X335165Y787668D01*
X335066Y787752D01*
X334982Y787851D01*
X334968Y787865D01*
X334954Y787907D01*
X334925Y787964D01*
X334883Y788048D01*
X334841Y788147D01*
X334799Y788274D01*
X334756Y788415D01*
X334728Y788570D01*
Y788584D01*
X334714Y788641D01*
Y788725D01*
X334700Y788866D01*
X334686Y789049D01*
Y789275D01*
X334672Y789402D01*
Y789557D01*
Y789712D01*
Y789895D01*
Y792982D01*
X333812D01*
Y794477D01*
X334672D01*
Y795886D01*
X336547Y796986D01*
Y794477D01*
D02*
G37*
G36*
X371352Y787231D02*
X369971D01*
X372381Y797324D01*
X373791D01*
X371352Y787231D01*
D02*
G37*
G36*
X400505Y797197D02*
X400618Y797183D01*
X400759Y797155D01*
X400900Y797127D01*
X401069Y797085D01*
X401252Y797028D01*
X401421Y796958D01*
X401604Y796887D01*
X401788Y796789D01*
X401971Y796662D01*
X402154Y796535D01*
X402323Y796380D01*
X402478Y796197D01*
X402492Y796182D01*
X402521Y796140D01*
X402563Y796070D01*
X402633Y795971D01*
X402704Y795830D01*
X402789Y795661D01*
X402873Y795478D01*
X402958Y795238D01*
X403042Y794984D01*
X403141Y794688D01*
X403211Y794364D01*
X403282Y793997D01*
X403352Y793603D01*
X403395Y793180D01*
X403423Y792715D01*
X403437Y792207D01*
Y792193D01*
Y792179D01*
Y792137D01*
Y792080D01*
Y791939D01*
X403423Y791756D01*
X403409Y791530D01*
X403381Y791263D01*
X403352Y790981D01*
X403324Y790670D01*
X403268Y790346D01*
X403197Y790008D01*
X403127Y789684D01*
X403028Y789360D01*
X402929Y789035D01*
X402789Y788739D01*
X402648Y788457D01*
X402478Y788218D01*
X402464Y788204D01*
X402436Y788175D01*
X402394Y788119D01*
X402337Y788063D01*
X402253Y787992D01*
X402154Y787907D01*
X402027Y787809D01*
X401900Y787724D01*
X401745Y787626D01*
X401590Y787527D01*
X401407Y787442D01*
X401210Y787372D01*
X400998Y787315D01*
X400759Y787259D01*
X400519Y787231D01*
X400265Y787217D01*
X400209D01*
X400124Y787231D01*
X400025D01*
X399913Y787245D01*
X399772Y787273D01*
X399617Y787301D01*
X399448Y787358D01*
X399264Y787414D01*
X399081Y787485D01*
X398884Y787569D01*
X398700Y787682D01*
X398503Y787795D01*
X398320Y787950D01*
X398136Y788105D01*
X397967Y788302D01*
X397953Y788316D01*
X397925Y788359D01*
X397883Y788429D01*
X397840Y788514D01*
X397770Y788641D01*
X397700Y788796D01*
X397615Y788993D01*
X397544Y789204D01*
X397460Y789458D01*
X397375Y789740D01*
X397305Y790064D01*
X397248Y790417D01*
X397192Y790811D01*
X397150Y791248D01*
X397122Y791714D01*
X397107Y792221D01*
Y792235D01*
Y792249D01*
Y792292D01*
Y792348D01*
Y792489D01*
X397122Y792672D01*
X397136Y792898D01*
X397164Y793166D01*
X397192Y793448D01*
X397220Y793758D01*
X397277Y794082D01*
X397333Y794406D01*
X397417Y794744D01*
X397502Y795069D01*
X397615Y795379D01*
X397742Y795675D01*
X397883Y795957D01*
X398052Y796197D01*
X398066Y796211D01*
X398094Y796239D01*
X398136Y796295D01*
X398207Y796352D01*
X398278Y796436D01*
X398376Y796521D01*
X398503Y796605D01*
X398630Y796704D01*
X398785Y796803D01*
X398940Y796887D01*
X399123Y796972D01*
X399321Y797056D01*
X399532Y797113D01*
X399772Y797169D01*
X400011Y797197D01*
X400265Y797212D01*
X400406D01*
X400505Y797197D01*
D02*
G37*
G36*
X317939Y794618D02*
X318051D01*
X318333Y794589D01*
X318629Y794561D01*
X318939Y794505D01*
X319236Y794420D01*
X319363Y794378D01*
X319489Y794322D01*
X319503D01*
X319517Y794307D01*
X319588Y794265D01*
X319701Y794209D01*
X319828Y794124D01*
X319983Y794012D01*
X320124Y793885D01*
X320251Y793730D01*
X320363Y793575D01*
X320377Y793546D01*
X320406Y793490D01*
X320448Y793363D01*
X320462Y793292D01*
X320490Y793194D01*
X320518Y793095D01*
X320532Y792968D01*
X320561Y792827D01*
X320575Y792672D01*
X320589Y792503D01*
X320603Y792320D01*
X320617Y792122D01*
Y791897D01*
X320589Y789712D01*
Y789698D01*
Y789670D01*
Y789627D01*
Y789557D01*
Y789388D01*
X320603Y789190D01*
Y788965D01*
X320631Y788739D01*
X320645Y788514D01*
X320673Y788330D01*
Y788316D01*
X320688Y788260D01*
X320716Y788161D01*
X320744Y788048D01*
X320800Y787907D01*
X320857Y787752D01*
X320927Y787583D01*
X321012Y787400D01*
X319165D01*
Y787414D01*
X319151Y787428D01*
X319137Y787485D01*
X319109Y787541D01*
X319081Y787611D01*
X319052Y787710D01*
X319024Y787823D01*
X318982Y787950D01*
Y787964D01*
X318968Y787978D01*
X318954Y788034D01*
X318925Y788105D01*
X318911Y788161D01*
X318883Y788147D01*
X318827Y788091D01*
X318728Y788006D01*
X318601Y787907D01*
X318446Y787795D01*
X318277Y787668D01*
X318080Y787569D01*
X317882Y787470D01*
X317854Y787456D01*
X317784Y787442D01*
X317671Y787400D01*
X317530Y787358D01*
X317361Y787315D01*
X317163Y787287D01*
X316938Y787259D01*
X316712Y787245D01*
X316614D01*
X316529Y787259D01*
X316444D01*
X316332Y787273D01*
X316092Y787315D01*
X315810Y787386D01*
X315528Y787485D01*
X315246Y787626D01*
X314992Y787823D01*
Y787837D01*
X314964Y787851D01*
X314894Y787936D01*
X314795Y788063D01*
X314682Y788232D01*
X314569Y788443D01*
X314471Y788697D01*
X314400Y788993D01*
X314386Y789148D01*
X314372Y789317D01*
Y789345D01*
Y789416D01*
X314386Y789529D01*
X314414Y789670D01*
X314443Y789839D01*
X314485Y790008D01*
X314555Y790191D01*
X314654Y790375D01*
X314668Y790403D01*
X314710Y790459D01*
X314767Y790544D01*
X314865Y790642D01*
X314964Y790755D01*
X315105Y790882D01*
X315260Y790995D01*
X315443Y791093D01*
X315472Y791107D01*
X315542Y791136D01*
X315655Y791178D01*
X315824Y791248D01*
X316036Y791319D01*
X316289Y791389D01*
X316599Y791460D01*
X316938Y791530D01*
X316952D01*
X316994Y791544D01*
X317065Y791559D01*
X317149Y791573D01*
X317262Y791587D01*
X317389Y791615D01*
X317671Y791685D01*
X317967Y791756D01*
X318277Y791826D01*
X318545Y791911D01*
X318672Y791953D01*
X318770Y791996D01*
Y792179D01*
Y792207D01*
Y792263D01*
X318756Y792362D01*
X318742Y792489D01*
X318700Y792616D01*
X318658Y792743D01*
X318587Y792856D01*
X318488Y792954D01*
X318474Y792968D01*
X318432Y792997D01*
X318362Y793025D01*
X318263Y793081D01*
X318122Y793123D01*
X317953Y793152D01*
X317741Y793180D01*
X317488Y793194D01*
X317403D01*
X317318Y793180D01*
X317206Y793166D01*
X317079Y793138D01*
X316938Y793109D01*
X316811Y793053D01*
X316698Y792982D01*
X316684Y792968D01*
X316656Y792940D01*
X316599Y792898D01*
X316543Y792827D01*
X316458Y792729D01*
X316388Y792602D01*
X316318Y792461D01*
X316247Y792292D01*
X314569Y792602D01*
Y792616D01*
X314584Y792644D01*
X314598Y792701D01*
X314626Y792771D01*
X314654Y792856D01*
X314696Y792954D01*
X314795Y793180D01*
X314936Y793419D01*
X315105Y793673D01*
X315303Y793913D01*
X315542Y794124D01*
X315556D01*
X315570Y794153D01*
X315613Y794167D01*
X315669Y794209D01*
X315754Y794237D01*
X315838Y794279D01*
X315951Y794336D01*
X316064Y794378D01*
X316205Y794420D01*
X316360Y794477D01*
X316529Y794519D01*
X316726Y794547D01*
X316924Y794589D01*
X317149Y794604D01*
X317375Y794632D01*
X317840D01*
X317939Y794618D01*
D02*
G37*
G36*
X392977Y797197D02*
X393104Y797183D01*
X393245Y797169D01*
X393400Y797141D01*
X393569Y797113D01*
X393936Y797014D01*
X394302Y796873D01*
X394500Y796789D01*
X394669Y796690D01*
X394852Y796563D01*
X395007Y796422D01*
X395021Y796408D01*
X395049Y796394D01*
X395077Y796338D01*
X395134Y796281D01*
X395204Y796211D01*
X395275Y796112D01*
X395345Y796013D01*
X395430Y795886D01*
X395571Y795604D01*
X395712Y795280D01*
X395768Y795097D01*
X395796Y794900D01*
X395825Y794688D01*
X395839Y794477D01*
Y794448D01*
Y794364D01*
X395825Y794237D01*
X395811Y794082D01*
X395782Y793885D01*
X395740Y793673D01*
X395684Y793448D01*
X395599Y793222D01*
X395585Y793194D01*
X395557Y793123D01*
X395500Y792997D01*
X395416Y792841D01*
X395317Y792658D01*
X395190Y792447D01*
X395035Y792221D01*
X394852Y791982D01*
X394838Y791967D01*
X394781Y791897D01*
X394697Y791798D01*
X394570Y791657D01*
X394401Y791488D01*
X394189Y791263D01*
X393936Y791023D01*
X393625Y790727D01*
X393611Y790713D01*
X393583Y790699D01*
X393541Y790656D01*
X393484Y790600D01*
X393329Y790459D01*
X393146Y790290D01*
X392963Y790107D01*
X392780Y789923D01*
X392611Y789768D01*
X392554Y789698D01*
X392498Y789641D01*
X392484Y789627D01*
X392455Y789599D01*
X392413Y789543D01*
X392357Y789472D01*
X392230Y789317D01*
X392117Y789134D01*
X395839D01*
Y787400D01*
X389284D01*
Y787414D01*
Y787442D01*
X389298Y787499D01*
X389312Y787569D01*
X389326Y787654D01*
X389340Y787752D01*
X389396Y788006D01*
X389481Y788288D01*
X389594Y788598D01*
X389735Y788937D01*
X389918Y789261D01*
Y789275D01*
X389946Y789303D01*
X389974Y789360D01*
X390031Y789416D01*
X390087Y789514D01*
X390172Y789613D01*
X390270Y789740D01*
X390383Y789881D01*
X390510Y790050D01*
X390665Y790219D01*
X390834Y790417D01*
X391032Y790628D01*
X391243Y790840D01*
X391483Y791079D01*
X391736Y791333D01*
X392018Y791601D01*
X392033Y791615D01*
X392075Y791657D01*
X392131Y791714D01*
X392216Y791798D01*
X392328Y791883D01*
X392441Y791996D01*
X392695Y792249D01*
X392949Y792517D01*
X393203Y792785D01*
X393315Y792898D01*
X393428Y793025D01*
X393513Y793123D01*
X393569Y793208D01*
X393583Y793236D01*
X393625Y793307D01*
X393696Y793419D01*
X393766Y793575D01*
X393837Y793744D01*
X393907Y793941D01*
X393950Y794138D01*
X393964Y794350D01*
Y794364D01*
Y794378D01*
Y794448D01*
X393950Y794575D01*
X393922Y794716D01*
X393879Y794871D01*
X393823Y795026D01*
X393738Y795182D01*
X393625Y795322D01*
X393611Y795337D01*
X393569Y795379D01*
X393484Y795435D01*
X393386Y795492D01*
X393245Y795548D01*
X393090Y795604D01*
X392906Y795647D01*
X392695Y795661D01*
X392596D01*
X392484Y795647D01*
X392357Y795619D01*
X392202Y795576D01*
X392047Y795506D01*
X391892Y795421D01*
X391751Y795308D01*
X391736Y795294D01*
X391694Y795238D01*
X391638Y795153D01*
X391581Y795026D01*
X391511Y794871D01*
X391455Y794660D01*
X391398Y794420D01*
X391370Y794138D01*
X389509Y794322D01*
Y794336D01*
X389523Y794392D01*
Y794463D01*
X389551Y794575D01*
X389566Y794702D01*
X389608Y794843D01*
X389650Y794998D01*
X389692Y795182D01*
X389833Y795534D01*
X390003Y795900D01*
X390115Y796084D01*
X390242Y796253D01*
X390383Y796394D01*
X390538Y796535D01*
X390552Y796549D01*
X390580Y796563D01*
X390623Y796591D01*
X390693Y796648D01*
X390778Y796690D01*
X390891Y796746D01*
X391003Y796817D01*
X391144Y796873D01*
X391299Y796944D01*
X391469Y797000D01*
X391835Y797113D01*
X392272Y797183D01*
X392498Y797197D01*
X392737Y797212D01*
X392878D01*
X392977Y797197D01*
D02*
G37*
G36*
X377809D02*
X377935Y797183D01*
X378077Y797169D01*
X378232Y797141D01*
X378401Y797113D01*
X378767Y797014D01*
X379134Y796873D01*
X379331Y796789D01*
X379500Y796690D01*
X379683Y796563D01*
X379839Y796422D01*
X379853Y796408D01*
X379881Y796394D01*
X379909Y796338D01*
X379966Y796281D01*
X380036Y796211D01*
X380106Y796112D01*
X380177Y796013D01*
X380261Y795886D01*
X380402Y795604D01*
X380543Y795280D01*
X380600Y795097D01*
X380628Y794900D01*
X380656Y794688D01*
X380670Y794477D01*
Y794448D01*
Y794364D01*
X380656Y794237D01*
X380642Y794082D01*
X380614Y793885D01*
X380572Y793673D01*
X380515Y793448D01*
X380431Y793222D01*
X380417Y793194D01*
X380388Y793123D01*
X380332Y792997D01*
X380247Y792841D01*
X380149Y792658D01*
X380022Y792447D01*
X379867Y792221D01*
X379683Y791982D01*
X379669Y791967D01*
X379613Y791897D01*
X379529Y791798D01*
X379402Y791657D01*
X379232Y791488D01*
X379021Y791263D01*
X378767Y791023D01*
X378457Y790727D01*
X378443Y790713D01*
X378415Y790699D01*
X378372Y790656D01*
X378316Y790600D01*
X378161Y790459D01*
X377978Y790290D01*
X377794Y790107D01*
X377611Y789923D01*
X377442Y789768D01*
X377386Y789698D01*
X377329Y789641D01*
X377315Y789627D01*
X377287Y789599D01*
X377245Y789543D01*
X377188Y789472D01*
X377062Y789317D01*
X376949Y789134D01*
X380670D01*
Y787400D01*
X374115D01*
Y787414D01*
Y787442D01*
X374129Y787499D01*
X374143Y787569D01*
X374157Y787654D01*
X374172Y787752D01*
X374228Y788006D01*
X374313Y788288D01*
X374425Y788598D01*
X374566Y788937D01*
X374750Y789261D01*
Y789275D01*
X374778Y789303D01*
X374806Y789360D01*
X374862Y789416D01*
X374919Y789514D01*
X375003Y789613D01*
X375102Y789740D01*
X375215Y789881D01*
X375342Y790050D01*
X375497Y790219D01*
X375666Y790417D01*
X375863Y790628D01*
X376075Y790840D01*
X376314Y791079D01*
X376568Y791333D01*
X376850Y791601D01*
X376864Y791615D01*
X376906Y791657D01*
X376963Y791714D01*
X377047Y791798D01*
X377160Y791883D01*
X377273Y791996D01*
X377527Y792249D01*
X377780Y792517D01*
X378034Y792785D01*
X378147Y792898D01*
X378260Y793025D01*
X378344Y793123D01*
X378401Y793208D01*
X378415Y793236D01*
X378457Y793307D01*
X378528Y793419D01*
X378598Y793575D01*
X378669Y793744D01*
X378739Y793941D01*
X378781Y794138D01*
X378795Y794350D01*
Y794364D01*
Y794378D01*
Y794448D01*
X378781Y794575D01*
X378753Y794716D01*
X378711Y794871D01*
X378654Y795026D01*
X378570Y795182D01*
X378457Y795322D01*
X378443Y795337D01*
X378401Y795379D01*
X378316Y795435D01*
X378217Y795492D01*
X378077Y795548D01*
X377921Y795604D01*
X377738Y795647D01*
X377527Y795661D01*
X377428D01*
X377315Y795647D01*
X377188Y795619D01*
X377033Y795576D01*
X376878Y795506D01*
X376723Y795421D01*
X376582Y795308D01*
X376568Y795294D01*
X376526Y795238D01*
X376469Y795153D01*
X376413Y795026D01*
X376343Y794871D01*
X376286Y794660D01*
X376230Y794420D01*
X376202Y794138D01*
X374341Y794322D01*
Y794336D01*
X374355Y794392D01*
Y794463D01*
X374383Y794575D01*
X374397Y794702D01*
X374439Y794843D01*
X374482Y794998D01*
X374524Y795182D01*
X374665Y795534D01*
X374834Y795900D01*
X374947Y796084D01*
X375074Y796253D01*
X375215Y796394D01*
X375370Y796535D01*
X375384Y796549D01*
X375412Y796563D01*
X375454Y796591D01*
X375525Y796648D01*
X375610Y796690D01*
X375722Y796746D01*
X375835Y796817D01*
X375976Y796873D01*
X376131Y796944D01*
X376300Y797000D01*
X376667Y797113D01*
X377104Y797183D01*
X377329Y797197D01*
X377569Y797212D01*
X377710D01*
X377809Y797197D01*
D02*
G37*
G36*
X342186Y794618D02*
X342298D01*
X342580Y794589D01*
X342876Y794561D01*
X343186Y794505D01*
X343482Y794420D01*
X343609Y794378D01*
X343736Y794322D01*
X343750D01*
X343764Y794307D01*
X343835Y794265D01*
X343948Y794209D01*
X344075Y794124D01*
X344230Y794012D01*
X344370Y793885D01*
X344497Y793730D01*
X344610Y793575D01*
X344624Y793546D01*
X344652Y793490D01*
X344695Y793363D01*
X344709Y793292D01*
X344737Y793194D01*
X344765Y793095D01*
X344779Y792968D01*
X344808Y792827D01*
X344822Y792672D01*
X344836Y792503D01*
X344850Y792320D01*
X344864Y792122D01*
Y791897D01*
X344836Y789712D01*
Y789698D01*
Y789670D01*
Y789627D01*
Y789557D01*
Y789388D01*
X344850Y789190D01*
Y788965D01*
X344878Y788739D01*
X344892Y788514D01*
X344920Y788330D01*
Y788316D01*
X344934Y788260D01*
X344963Y788161D01*
X344991Y788048D01*
X345047Y787907D01*
X345104Y787752D01*
X345174Y787583D01*
X345259Y787400D01*
X343412D01*
Y787414D01*
X343398Y787428D01*
X343384Y787485D01*
X343355Y787541D01*
X343327Y787611D01*
X343299Y787710D01*
X343271Y787823D01*
X343229Y787950D01*
Y787964D01*
X343215Y787978D01*
X343200Y788034D01*
X343172Y788105D01*
X343158Y788161D01*
X343130Y788147D01*
X343074Y788091D01*
X342975Y788006D01*
X342848Y787907D01*
X342693Y787795D01*
X342524Y787668D01*
X342327Y787569D01*
X342129Y787470D01*
X342101Y787456D01*
X342030Y787442D01*
X341918Y787400D01*
X341777Y787358D01*
X341608Y787315D01*
X341410Y787287D01*
X341185Y787259D01*
X340959Y787245D01*
X340860D01*
X340776Y787259D01*
X340691D01*
X340578Y787273D01*
X340339Y787315D01*
X340057Y787386D01*
X339775Y787485D01*
X339493Y787626D01*
X339239Y787823D01*
Y787837D01*
X339211Y787851D01*
X339141Y787936D01*
X339042Y788063D01*
X338929Y788232D01*
X338816Y788443D01*
X338718Y788697D01*
X338647Y788993D01*
X338633Y789148D01*
X338619Y789317D01*
Y789345D01*
Y789416D01*
X338633Y789529D01*
X338661Y789670D01*
X338689Y789839D01*
X338732Y790008D01*
X338802Y790191D01*
X338901Y790375D01*
X338915Y790403D01*
X338957Y790459D01*
X339014Y790544D01*
X339112Y790642D01*
X339211Y790755D01*
X339352Y790882D01*
X339507Y790995D01*
X339690Y791093D01*
X339719Y791107D01*
X339789Y791136D01*
X339902Y791178D01*
X340071Y791248D01*
X340282Y791319D01*
X340536Y791389D01*
X340846Y791460D01*
X341185Y791530D01*
X341199D01*
X341241Y791544D01*
X341311Y791559D01*
X341396Y791573D01*
X341509Y791587D01*
X341636Y791615D01*
X341918Y791685D01*
X342214Y791756D01*
X342524Y791826D01*
X342792Y791911D01*
X342919Y791953D01*
X343017Y791996D01*
Y792179D01*
Y792207D01*
Y792263D01*
X343003Y792362D01*
X342989Y792489D01*
X342947Y792616D01*
X342904Y792743D01*
X342834Y792856D01*
X342735Y792954D01*
X342721Y792968D01*
X342679Y792997D01*
X342608Y793025D01*
X342510Y793081D01*
X342369Y793123D01*
X342200Y793152D01*
X341988Y793180D01*
X341734Y793194D01*
X341650D01*
X341565Y793180D01*
X341452Y793166D01*
X341326Y793138D01*
X341185Y793109D01*
X341058Y793053D01*
X340945Y792982D01*
X340931Y792968D01*
X340903Y792940D01*
X340846Y792898D01*
X340790Y792827D01*
X340705Y792729D01*
X340635Y792602D01*
X340564Y792461D01*
X340494Y792292D01*
X338816Y792602D01*
Y792616D01*
X338830Y792644D01*
X338844Y792701D01*
X338873Y792771D01*
X338901Y792856D01*
X338943Y792954D01*
X339042Y793180D01*
X339183Y793419D01*
X339352Y793673D01*
X339549Y793913D01*
X339789Y794124D01*
X339803D01*
X339817Y794153D01*
X339860Y794167D01*
X339916Y794209D01*
X340000Y794237D01*
X340085Y794279D01*
X340198Y794336D01*
X340311Y794378D01*
X340452Y794420D01*
X340607Y794477D01*
X340776Y794519D01*
X340973Y794547D01*
X341171Y794589D01*
X341396Y794604D01*
X341622Y794632D01*
X342087D01*
X342186Y794618D01*
D02*
G37*
G36*
X850900Y789940D02*
X784860D01*
Y774700D01*
X660400D01*
Y838200D01*
X703580D01*
X711200Y825500D01*
X803910D01*
X816610Y838200D01*
Y850900D01*
Y853440D01*
X850900D01*
Y789940D01*
D02*
G37*
G36*
X787400Y956954D02*
X786502Y956056D01*
X707390Y956056D01*
X707390Y931808D01*
X706492Y930910D01*
X690985Y930910D01*
Y949960D01*
Y966470D01*
X690880Y966723D01*
X690880Y1013070D01*
X691778Y1013968D01*
X787400D01*
X787400Y956954D01*
D02*
G37*
G36*
X466239Y964116D02*
X466293Y963986D01*
X466266Y963848D01*
X466502Y962660D01*
X466266Y961472D01*
X466293Y961334D01*
X466239Y961204D01*
X466239Y947420D01*
X466239Y947420D01*
X466642Y946448D01*
X470452Y942638D01*
X471424Y942235D01*
X471424Y942235D01*
X471529D01*
X473964Y939800D01*
Y932180D01*
X463804D01*
X454914Y941070D01*
Y948690D01*
Y957580D01*
X453644Y958850D01*
X439674Y972820D01*
Y1000760D01*
X466239D01*
X466239Y964116D01*
D02*
G37*
G36*
X428952Y1042075D02*
X483870Y1027430D01*
X484672Y1022350D01*
X487680D01*
X487680Y930910D01*
X499364D01*
X500634Y933450D01*
X513334Y946150D01*
X533400Y946150D01*
Y907678D01*
X532502Y906780D01*
X513334Y906780D01*
X500634Y920750D01*
X499364Y923290D01*
X487934D01*
Y923193D01*
X487817Y922138D01*
X487816Y922129D01*
X487814Y922120D01*
Y922120D01*
X487814Y922120D01*
X487814Y922120D01*
Y922119D01*
X487814Y922111D01*
Y922111D01*
Y922111D01*
Y913080D01*
X487829D01*
Y906780D01*
X487829Y906780D01*
X487934Y906527D01*
Y867410D01*
X467360D01*
Y902547D01*
X473964Y908050D01*
Y911860D01*
X475184Y913080D01*
X475354D01*
Y921310D01*
X475354Y922120D01*
X475354Y922120D01*
Y922580D01*
X475354D01*
X475354Y923390D01*
Y930810D01*
X475354Y931620D01*
X475354Y931620D01*
Y932080D01*
X475354D01*
X475354Y932890D01*
Y941120D01*
X475234D01*
Y943610D01*
X471424D01*
X467614Y947420D01*
X467614Y961204D01*
X467904Y962660D01*
X467614Y964116D01*
X467614Y1003300D01*
X429064Y1003300D01*
X428542Y898286D01*
X428498Y881126D01*
X398558Y869101D01*
X397503Y869809D01*
X397002Y955294D01*
X396704Y1041770D01*
X397600Y1042670D01*
X428360Y1042670D01*
X428952Y1042075D01*
D02*
G37*
G36*
X689610Y947420D02*
Y910590D01*
X667902Y910590D01*
X667004Y911488D01*
Y923290D01*
X681990Y923290D01*
Y946150D01*
X680720Y947420D01*
X628650D01*
Y966470D01*
X689610D01*
Y947420D01*
D02*
G37*
G36*
X803910Y1053544D02*
X803698Y1053226D01*
X803366Y1051560D01*
X803698Y1049894D01*
X803910Y1049576D01*
Y1040130D01*
X809498Y1034796D01*
X836422Y1035812D01*
X850900Y1035050D01*
Y994410D01*
X819150D01*
X819053Y994313D01*
X817880Y994799D01*
Y1009650D01*
X800100D01*
X787400Y1022350D01*
X700532Y1021842D01*
X689610Y1014984D01*
X679168Y1003530D01*
X667656Y1003317D01*
X666750Y1004206D01*
Y1060450D01*
X803910D01*
Y1053544D01*
D02*
G37*
G36*
X323342Y1023366D02*
X294132D01*
Y1046226D01*
X323342D01*
Y1023366D01*
D02*
G37*
G36*
X533264Y966080D02*
Y948423D01*
X532366Y947525D01*
X513334Y947525D01*
X513334Y947525D01*
X512362Y947122D01*
X512362Y947122D01*
X499662Y934422D01*
X499575Y934213D01*
X499404Y934065D01*
X499097Y933450D01*
X489204D01*
Y947420D01*
X508254Y966470D01*
X533102D01*
X533264Y966080D01*
D02*
G37*
G36*
X850900Y859790D02*
X850900Y855980D01*
X816610Y855980D01*
X816610Y872236D01*
X792226Y896620D01*
X778510Y896620D01*
X711200D01*
Y951230D01*
X787400D01*
Y949960D01*
X793750D01*
X817880Y974090D01*
Y984250D01*
Y989330D01*
X819150Y990600D01*
X850900D01*
Y859790D01*
D02*
G37*
G36*
X655320Y906780D02*
X629548Y906780D01*
X628650Y907678D01*
Y946045D01*
X628650Y946045D01*
X655320D01*
Y906780D01*
D02*
G37*
G36*
X679704Y924665D02*
X667004Y924665D01*
X666751Y924560D01*
X664210D01*
Y906780D01*
X665480Y905510D01*
X683260D01*
Y886460D01*
X628789Y886460D01*
X628460Y904482D01*
X629444Y905317D01*
X629713Y905405D01*
X655320Y905405D01*
X655573Y905510D01*
X657860D01*
Y942340D01*
X679704D01*
Y924665D01*
D02*
G37*
G36*
X499404Y920135D02*
X499551Y920008D01*
X499617Y919825D01*
X512317Y905855D01*
X512349Y905840D01*
X512362Y905808D01*
X512820Y905618D01*
X513269Y905407D01*
X513302Y905419D01*
X513334Y905405D01*
X514709D01*
X515874Y904240D01*
X532384D01*
Y887730D01*
X508254D01*
X489204Y906780D01*
Y920750D01*
X489224Y920770D01*
X499087D01*
X499404Y920135D01*
D02*
G37*
G36*
X708660Y921276D02*
X708660Y893064D01*
X793750Y893064D01*
Y831478D01*
X792852Y830580D01*
X715010Y830580D01*
X690880Y869188D01*
Y910337D01*
X690985Y910590D01*
Y922392D01*
X707544D01*
X708660Y921276D01*
D02*
G37*
G36*
X463804Y872118D02*
X462906Y871220D01*
X440944D01*
X440944Y900802D01*
X441842Y901700D01*
X463804D01*
X463804Y872118D01*
D02*
G37*
G36*
X518005Y1025797D02*
X518118Y1025783D01*
X518259Y1025755D01*
X518400Y1025727D01*
X518569Y1025685D01*
X518752Y1025628D01*
X518921Y1025558D01*
X519105Y1025487D01*
X519288Y1025389D01*
X519471Y1025262D01*
X519654Y1025135D01*
X519824Y1024980D01*
X519979Y1024797D01*
X519993Y1024782D01*
X520021Y1024740D01*
X520063Y1024670D01*
X520134Y1024571D01*
X520204Y1024430D01*
X520289Y1024261D01*
X520373Y1024078D01*
X520458Y1023838D01*
X520542Y1023584D01*
X520641Y1023288D01*
X520712Y1022964D01*
X520782Y1022597D01*
X520853Y1022203D01*
X520895Y1021780D01*
X520923Y1021315D01*
X520937Y1020807D01*
Y1020793D01*
Y1020779D01*
Y1020737D01*
Y1020680D01*
Y1020539D01*
X520923Y1020356D01*
X520909Y1020130D01*
X520881Y1019863D01*
X520853Y1019581D01*
X520825Y1019270D01*
X520768Y1018946D01*
X520698Y1018608D01*
X520627Y1018284D01*
X520528Y1017960D01*
X520430Y1017635D01*
X520289Y1017339D01*
X520148Y1017057D01*
X519979Y1016818D01*
X519964Y1016804D01*
X519936Y1016775D01*
X519894Y1016719D01*
X519838Y1016663D01*
X519753Y1016592D01*
X519654Y1016507D01*
X519528Y1016409D01*
X519401Y1016324D01*
X519246Y1016226D01*
X519090Y1016127D01*
X518907Y1016042D01*
X518710Y1015972D01*
X518498Y1015915D01*
X518259Y1015859D01*
X518019Y1015831D01*
X517765Y1015817D01*
X517709D01*
X517624Y1015831D01*
X517526D01*
X517413Y1015845D01*
X517272Y1015873D01*
X517117Y1015901D01*
X516948Y1015958D01*
X516764Y1016014D01*
X516581Y1016085D01*
X516384Y1016169D01*
X516201Y1016282D01*
X516003Y1016395D01*
X515820Y1016550D01*
X515637Y1016705D01*
X515468Y1016902D01*
X515453Y1016916D01*
X515425Y1016959D01*
X515383Y1017029D01*
X515341Y1017114D01*
X515270Y1017241D01*
X515200Y1017396D01*
X515115Y1017593D01*
X515045Y1017804D01*
X514960Y1018058D01*
X514875Y1018340D01*
X514805Y1018664D01*
X514749Y1019017D01*
X514692Y1019411D01*
X514650Y1019848D01*
X514622Y1020314D01*
X514608Y1020821D01*
Y1020835D01*
Y1020849D01*
Y1020892D01*
Y1020948D01*
Y1021089D01*
X514622Y1021272D01*
X514636Y1021498D01*
X514664Y1021766D01*
X514692Y1022048D01*
X514720Y1022358D01*
X514777Y1022682D01*
X514833Y1023006D01*
X514918Y1023344D01*
X515002Y1023669D01*
X515115Y1023979D01*
X515242Y1024275D01*
X515383Y1024557D01*
X515552Y1024797D01*
X515566Y1024811D01*
X515594Y1024839D01*
X515637Y1024895D01*
X515707Y1024952D01*
X515778Y1025036D01*
X515876Y1025121D01*
X516003Y1025205D01*
X516130Y1025304D01*
X516285Y1025403D01*
X516440Y1025487D01*
X516624Y1025572D01*
X516821Y1025656D01*
X517032Y1025713D01*
X517272Y1025769D01*
X517512Y1025797D01*
X517765Y1025811D01*
X517906D01*
X518005Y1025797D01*
D02*
G37*
G36*
X347980Y998220D02*
X388620Y957580D01*
X387350Y889000D01*
X339090D01*
Y925830D01*
X320040Y944880D01*
X293370D01*
Y1017270D01*
X328930D01*
X347980Y998220D01*
D02*
G37*
%LPC*%
G36*
X508997Y1023485D02*
X507672Y1019863D01*
X510364D01*
X508997Y1023485D01*
D02*
G37*
G36*
X517765Y1024261D02*
X517709D01*
X517639Y1024247D01*
X517568Y1024233D01*
X517469Y1024204D01*
X517371Y1024162D01*
X517258Y1024106D01*
X517159Y1024035D01*
X517145Y1024021D01*
X517117Y1023993D01*
X517075Y1023937D01*
X517018Y1023866D01*
X516948Y1023753D01*
X516891Y1023626D01*
X516821Y1023457D01*
X516764Y1023260D01*
Y1023246D01*
X516750Y1023232D01*
Y1023175D01*
X516736Y1023119D01*
X516722Y1023034D01*
X516708Y1022936D01*
X516694Y1022823D01*
X516680Y1022682D01*
X516652Y1022513D01*
X516638Y1022344D01*
X516624Y1022132D01*
X516609Y1021921D01*
X516595Y1021667D01*
Y1021413D01*
X516581Y1021117D01*
Y1020807D01*
Y1020793D01*
Y1020737D01*
Y1020638D01*
Y1020525D01*
Y1020384D01*
X516595Y1020229D01*
Y1020046D01*
X516609Y1019863D01*
X516624Y1019468D01*
X516652Y1019073D01*
X516666Y1018890D01*
X516694Y1018721D01*
X516722Y1018566D01*
X516750Y1018425D01*
X516764Y1018397D01*
X516779Y1018326D01*
X516821Y1018213D01*
X516863Y1018086D01*
X516934Y1017945D01*
X517004Y1017804D01*
X517089Y1017678D01*
X517173Y1017579D01*
X517187Y1017565D01*
X517216Y1017551D01*
X517272Y1017508D01*
X517342Y1017480D01*
X517427Y1017438D01*
X517526Y1017396D01*
X517639Y1017382D01*
X517765Y1017367D01*
X517822D01*
X517892Y1017382D01*
X517963Y1017396D01*
X518061Y1017424D01*
X518160Y1017452D01*
X518259Y1017508D01*
X518358Y1017579D01*
X518372Y1017593D01*
X518400Y1017621D01*
X518456Y1017678D01*
X518513Y1017762D01*
X518569Y1017861D01*
X518639Y1018002D01*
X518710Y1018157D01*
X518766Y1018354D01*
Y1018368D01*
X518780Y1018382D01*
Y1018439D01*
X518795Y1018495D01*
X518809Y1018580D01*
X518823Y1018678D01*
X518851Y1018791D01*
X518865Y1018932D01*
X518879Y1019087D01*
X518907Y1019270D01*
X518921Y1019468D01*
X518936Y1019693D01*
X518950Y1019933D01*
Y1020201D01*
X518964Y1020497D01*
Y1020807D01*
Y1020821D01*
Y1020878D01*
Y1020976D01*
Y1021089D01*
Y1021230D01*
X518950Y1021385D01*
Y1021568D01*
X518936Y1021752D01*
X518921Y1022146D01*
X518893Y1022527D01*
X518865Y1022710D01*
X518837Y1022893D01*
X518809Y1023048D01*
X518780Y1023175D01*
Y1023189D01*
X518766Y1023204D01*
X518752Y1023274D01*
X518710Y1023387D01*
X518668Y1023528D01*
X518597Y1023669D01*
X518527Y1023810D01*
X518442Y1023937D01*
X518358Y1024035D01*
X518343Y1024049D01*
X518315Y1024078D01*
X518259Y1024106D01*
X518188Y1024148D01*
X518104Y1024190D01*
X518005Y1024233D01*
X517892Y1024247D01*
X517765Y1024261D01*
D02*
G37*
G36*
X400265Y795661D02*
X400209D01*
X400138Y795647D01*
X400068Y795633D01*
X399969Y795604D01*
X399870Y795562D01*
X399758Y795506D01*
X399659Y795435D01*
X399645Y795421D01*
X399617Y795393D01*
X399574Y795337D01*
X399518Y795266D01*
X399448Y795153D01*
X399391Y795026D01*
X399321Y794857D01*
X399264Y794660D01*
Y794646D01*
X399250Y794632D01*
Y794575D01*
X399236Y794519D01*
X399222Y794434D01*
X399208Y794336D01*
X399194Y794223D01*
X399180Y794082D01*
X399151Y793913D01*
X399137Y793744D01*
X399123Y793532D01*
X399109Y793321D01*
X399095Y793067D01*
Y792813D01*
X399081Y792517D01*
Y792207D01*
Y792193D01*
Y792137D01*
Y792038D01*
Y791925D01*
Y791784D01*
X399095Y791629D01*
Y791446D01*
X399109Y791263D01*
X399123Y790868D01*
X399151Y790473D01*
X399166Y790290D01*
X399194Y790121D01*
X399222Y789966D01*
X399250Y789825D01*
X399264Y789797D01*
X399278Y789726D01*
X399321Y789613D01*
X399363Y789486D01*
X399433Y789345D01*
X399504Y789204D01*
X399589Y789078D01*
X399673Y788979D01*
X399687Y788965D01*
X399715Y788951D01*
X399772Y788908D01*
X399842Y788880D01*
X399927Y788838D01*
X400025Y788796D01*
X400138Y788782D01*
X400265Y788767D01*
X400322D01*
X400392Y788782D01*
X400462Y788796D01*
X400561Y788824D01*
X400660Y788852D01*
X400759Y788908D01*
X400857Y788979D01*
X400871Y788993D01*
X400900Y789021D01*
X400956Y789078D01*
X401012Y789162D01*
X401069Y789261D01*
X401139Y789402D01*
X401210Y789557D01*
X401266Y789754D01*
Y789768D01*
X401280Y789782D01*
Y789839D01*
X401294Y789895D01*
X401308Y789980D01*
X401322Y790078D01*
X401351Y790191D01*
X401365Y790332D01*
X401379Y790487D01*
X401407Y790670D01*
X401421Y790868D01*
X401435Y791093D01*
X401449Y791333D01*
Y791601D01*
X401463Y791897D01*
Y792207D01*
Y792221D01*
Y792278D01*
Y792376D01*
Y792489D01*
Y792630D01*
X401449Y792785D01*
Y792968D01*
X401435Y793152D01*
X401421Y793546D01*
X401393Y793927D01*
X401365Y794110D01*
X401337Y794293D01*
X401308Y794448D01*
X401280Y794575D01*
Y794589D01*
X401266Y794604D01*
X401252Y794674D01*
X401210Y794787D01*
X401167Y794928D01*
X401097Y795069D01*
X401026Y795210D01*
X400942Y795337D01*
X400857Y795435D01*
X400843Y795449D01*
X400815Y795478D01*
X400759Y795506D01*
X400688Y795548D01*
X400603Y795590D01*
X400505Y795633D01*
X400392Y795647D01*
X400265Y795661D01*
D02*
G37*
G36*
X365868D02*
X365784D01*
X365685Y795633D01*
X365572Y795604D01*
X365432Y795562D01*
X365290Y795478D01*
X365149Y795379D01*
X365009Y795238D01*
X364994Y795224D01*
X364952Y795153D01*
X364896Y795055D01*
X364839Y794914D01*
X364783Y794730D01*
X364727Y794491D01*
X364684Y794209D01*
X364670Y793885D01*
Y793870D01*
Y793842D01*
Y793800D01*
Y793730D01*
X364684Y793560D01*
X364712Y793363D01*
X364755Y793123D01*
X364825Y792898D01*
X364910Y792672D01*
X365037Y792489D01*
X365051Y792475D01*
X365107Y792419D01*
X365178Y792348D01*
X365290Y792278D01*
X365432Y792193D01*
X365587Y792122D01*
X365770Y792066D01*
X365967Y792052D01*
X365995D01*
X366052Y792066D01*
X366150Y792080D01*
X366277Y792108D01*
X366418Y792151D01*
X366573Y792235D01*
X366728Y792334D01*
X366869Y792475D01*
X366883Y792489D01*
X366926Y792560D01*
X366996Y792658D01*
X367067Y792785D01*
X367123Y792968D01*
X367194Y793180D01*
X367236Y793434D01*
X367250Y793730D01*
Y793744D01*
Y793772D01*
Y793814D01*
Y793885D01*
X367222Y794040D01*
X367194Y794251D01*
X367151Y794477D01*
X367067Y794716D01*
X366968Y794942D01*
X366827Y795153D01*
X366813Y795182D01*
X366757Y795238D01*
X366672Y795308D01*
X366559Y795407D01*
X366418Y795506D01*
X366249Y795576D01*
X366066Y795633D01*
X365868Y795661D01*
D02*
G37*
G36*
X644200Y898900D02*
X640224D01*
X639233Y898703D01*
X638393Y898141D01*
X637831Y897301D01*
X637634Y896310D01*
X637831Y895319D01*
X638393Y894479D01*
X639233Y893917D01*
X640224Y893720D01*
X644200D01*
X645191Y893917D01*
X646031Y894479D01*
X646593Y895319D01*
X646790Y896310D01*
X646593Y897301D01*
X646031Y898141D01*
X645191Y898703D01*
X644200Y898900D01*
D02*
G37*
G36*
X385097Y795661D02*
X385040D01*
X384970Y795647D01*
X384899Y795633D01*
X384801Y795604D01*
X384702Y795562D01*
X384589Y795506D01*
X384491Y795435D01*
X384477Y795421D01*
X384448Y795393D01*
X384406Y795337D01*
X384350Y795266D01*
X384279Y795153D01*
X384223Y795026D01*
X384152Y794857D01*
X384096Y794660D01*
Y794646D01*
X384082Y794632D01*
Y794575D01*
X384068Y794519D01*
X384054Y794434D01*
X384039Y794336D01*
X384025Y794223D01*
X384011Y794082D01*
X383983Y793913D01*
X383969Y793744D01*
X383955Y793532D01*
X383941Y793321D01*
X383927Y793067D01*
Y792813D01*
X383913Y792517D01*
Y792207D01*
Y792193D01*
Y792137D01*
Y792038D01*
Y791925D01*
Y791784D01*
X383927Y791629D01*
Y791446D01*
X383941Y791263D01*
X383955Y790868D01*
X383983Y790473D01*
X383997Y790290D01*
X384025Y790121D01*
X384054Y789966D01*
X384082Y789825D01*
X384096Y789797D01*
X384110Y789726D01*
X384152Y789613D01*
X384195Y789486D01*
X384265Y789345D01*
X384336Y789204D01*
X384420Y789078D01*
X384505Y788979D01*
X384519Y788965D01*
X384547Y788951D01*
X384603Y788908D01*
X384674Y788880D01*
X384758Y788838D01*
X384857Y788796D01*
X384970Y788782D01*
X385097Y788767D01*
X385153D01*
X385224Y788782D01*
X385294Y788796D01*
X385393Y788824D01*
X385491Y788852D01*
X385590Y788908D01*
X385689Y788979D01*
X385703Y788993D01*
X385731Y789021D01*
X385788Y789078D01*
X385844Y789162D01*
X385900Y789261D01*
X385971Y789402D01*
X386041Y789557D01*
X386098Y789754D01*
Y789768D01*
X386112Y789782D01*
Y789839D01*
X386126Y789895D01*
X386140Y789980D01*
X386154Y790078D01*
X386182Y790191D01*
X386196Y790332D01*
X386210Y790487D01*
X386239Y790670D01*
X386253Y790868D01*
X386267Y791093D01*
X386281Y791333D01*
Y791601D01*
X386295Y791897D01*
Y792207D01*
Y792221D01*
Y792278D01*
Y792376D01*
Y792489D01*
Y792630D01*
X386281Y792785D01*
Y792968D01*
X386267Y793152D01*
X386253Y793546D01*
X386225Y793927D01*
X386196Y794110D01*
X386168Y794293D01*
X386140Y794448D01*
X386112Y794575D01*
Y794589D01*
X386098Y794604D01*
X386084Y794674D01*
X386041Y794787D01*
X385999Y794928D01*
X385928Y795069D01*
X385858Y795210D01*
X385773Y795337D01*
X385689Y795435D01*
X385675Y795449D01*
X385647Y795478D01*
X385590Y795506D01*
X385520Y795548D01*
X385435Y795590D01*
X385336Y795633D01*
X385224Y795647D01*
X385097Y795661D01*
D02*
G37*
G36*
X318770Y790783D02*
X318756D01*
X318700Y790755D01*
X318615Y790741D01*
X318488Y790699D01*
X318333Y790656D01*
X318122Y790600D01*
X317896Y790544D01*
X317614Y790487D01*
X317586D01*
X317544Y790473D01*
X317488Y790459D01*
X317361Y790431D01*
X317192Y790389D01*
X317022Y790346D01*
X316853Y790290D01*
X316712Y790219D01*
X316599Y790163D01*
X316585Y790149D01*
X316543Y790121D01*
X316487Y790064D01*
X316430Y789994D01*
X316360Y789895D01*
X316303Y789782D01*
X316261Y789656D01*
X316247Y789514D01*
Y789501D01*
Y789444D01*
X316261Y789374D01*
X316289Y789289D01*
X316318Y789176D01*
X316360Y789063D01*
X316430Y788951D01*
X316529Y788838D01*
X316543Y788824D01*
X316585Y788796D01*
X316642Y788753D01*
X316740Y788697D01*
X316839Y788641D01*
X316966Y788598D01*
X317121Y788570D01*
X317276Y788556D01*
X317361D01*
X317459Y788570D01*
X317586Y788598D01*
X317741Y788641D01*
X317896Y788697D01*
X318080Y788767D01*
X318249Y788880D01*
X318263Y788894D01*
X318305Y788923D01*
X318362Y788979D01*
X318432Y789049D01*
X318503Y789148D01*
X318573Y789247D01*
X318643Y789374D01*
X318686Y789501D01*
Y789514D01*
X318700Y789543D01*
X318714Y789613D01*
X318728Y789698D01*
X318742Y789825D01*
X318756Y789980D01*
X318770Y790177D01*
Y790403D01*
Y790783D01*
D02*
G37*
G36*
X343017D02*
X343003D01*
X342947Y790755D01*
X342862Y790741D01*
X342735Y790699D01*
X342580Y790656D01*
X342369Y790600D01*
X342143Y790544D01*
X341861Y790487D01*
X341833D01*
X341791Y790473D01*
X341734Y790459D01*
X341608Y790431D01*
X341438Y790389D01*
X341269Y790346D01*
X341100Y790290D01*
X340959Y790219D01*
X340846Y790163D01*
X340832Y790149D01*
X340790Y790121D01*
X340733Y790064D01*
X340677Y789994D01*
X340607Y789895D01*
X340550Y789782D01*
X340508Y789656D01*
X340494Y789514D01*
Y789501D01*
Y789444D01*
X340508Y789374D01*
X340536Y789289D01*
X340564Y789176D01*
X340607Y789063D01*
X340677Y788951D01*
X340776Y788838D01*
X340790Y788824D01*
X340832Y788796D01*
X340889Y788753D01*
X340987Y788697D01*
X341086Y788641D01*
X341213Y788598D01*
X341368Y788570D01*
X341523Y788556D01*
X341608D01*
X341706Y788570D01*
X341833Y788598D01*
X341988Y788641D01*
X342143Y788697D01*
X342327Y788767D01*
X342496Y788880D01*
X342510Y788894D01*
X342552Y788923D01*
X342608Y788979D01*
X342679Y789049D01*
X342749Y789148D01*
X342820Y789247D01*
X342890Y789374D01*
X342933Y789501D01*
Y789514D01*
X342947Y789543D01*
X342961Y789613D01*
X342975Y789698D01*
X342989Y789825D01*
X343003Y789980D01*
X343017Y790177D01*
Y790403D01*
Y790783D01*
D02*
G37*
G36*
X358552Y795661D02*
X358496D01*
X358425Y795647D01*
X358355Y795633D01*
X358256Y795604D01*
X358157Y795562D01*
X358045Y795506D01*
X357946Y795435D01*
X357932Y795421D01*
X357904Y795393D01*
X357861Y795337D01*
X357805Y795266D01*
X357734Y795153D01*
X357678Y795026D01*
X357608Y794857D01*
X357551Y794660D01*
Y794646D01*
X357537Y794632D01*
Y794575D01*
X357523Y794519D01*
X357509Y794434D01*
X357495Y794336D01*
X357481Y794223D01*
X357467Y794082D01*
X357439Y793913D01*
X357424Y793744D01*
X357410Y793532D01*
X357396Y793321D01*
X357382Y793067D01*
Y792813D01*
X357368Y792517D01*
Y792207D01*
Y792193D01*
Y792137D01*
Y792038D01*
Y791925D01*
Y791784D01*
X357382Y791629D01*
Y791446D01*
X357396Y791263D01*
X357410Y790868D01*
X357439Y790473D01*
X357453Y790290D01*
X357481Y790121D01*
X357509Y789966D01*
X357537Y789825D01*
X357551Y789797D01*
X357565Y789726D01*
X357608Y789613D01*
X357650Y789486D01*
X357720Y789345D01*
X357791Y789204D01*
X357876Y789078D01*
X357960Y788979D01*
X357974Y788965D01*
X358002Y788951D01*
X358059Y788908D01*
X358129Y788880D01*
X358214Y788838D01*
X358312Y788796D01*
X358425Y788782D01*
X358552Y788767D01*
X358609D01*
X358679Y788782D01*
X358750Y788796D01*
X358848Y788824D01*
X358947Y788852D01*
X359045Y788908D01*
X359144Y788979D01*
X359158Y788993D01*
X359187Y789021D01*
X359243Y789078D01*
X359299Y789162D01*
X359356Y789261D01*
X359426Y789402D01*
X359497Y789557D01*
X359553Y789754D01*
Y789768D01*
X359567Y789782D01*
Y789839D01*
X359581Y789895D01*
X359595Y789980D01*
X359609Y790078D01*
X359638Y790191D01*
X359652Y790332D01*
X359666Y790487D01*
X359694Y790670D01*
X359708Y790868D01*
X359722Y791093D01*
X359736Y791333D01*
Y791601D01*
X359750Y791897D01*
Y792207D01*
Y792221D01*
Y792278D01*
Y792376D01*
Y792489D01*
Y792630D01*
X359736Y792785D01*
Y792968D01*
X359722Y793152D01*
X359708Y793546D01*
X359680Y793927D01*
X359652Y794110D01*
X359623Y794293D01*
X359595Y794448D01*
X359567Y794575D01*
Y794589D01*
X359553Y794604D01*
X359539Y794674D01*
X359497Y794787D01*
X359454Y794928D01*
X359384Y795069D01*
X359313Y795210D01*
X359229Y795337D01*
X359144Y795435D01*
X359130Y795449D01*
X359102Y795478D01*
X359045Y795506D01*
X358975Y795548D01*
X358890Y795590D01*
X358792Y795633D01*
X358679Y795647D01*
X358552Y795661D01*
D02*
G37*
%LPD*%
D10*
X475234Y953770D02*
D03*
X459994D02*
D03*
X792480Y781050D02*
D03*
X777240D02*
D03*
X796290Y1054100D02*
D03*
X811530D02*
D03*
X436372Y850392D02*
D03*
X451612D02*
D03*
D11*
X640224Y956310D02*
D03*
Y936310D02*
D03*
Y916310D02*
D03*
Y896310D02*
D03*
X522224D02*
D03*
Y916310D02*
D03*
Y936310D02*
D03*
Y956310D02*
D03*
D12*
X754380Y798500D02*
D03*
Y852500D02*
D03*
X751840Y1049350D02*
D03*
Y995350D02*
D03*
D13*
X728980Y911620D02*
D03*
Y881620D02*
D03*
X768350Y911620D02*
D03*
Y881620D02*
D03*
X728980Y967500D02*
D03*
Y937500D02*
D03*
X768350Y967500D02*
D03*
Y937500D02*
D03*
X308942Y1008366D02*
D03*
Y1038366D02*
D03*
D14*
X673800Y915670D02*
D03*
X697800D02*
D03*
X673800Y895350D02*
D03*
X697800D02*
D03*
Y937260D02*
D03*
X673800D02*
D03*
X697800Y958850D02*
D03*
X673800D02*
D03*
D15*
X445340Y824080D02*
D03*
Y830580D02*
D03*
Y837080D02*
D03*
X423340D02*
D03*
Y824080D02*
D03*
X354639Y854505D02*
D03*
Y848005D02*
D03*
Y841505D02*
D03*
X376639D02*
D03*
Y854505D02*
D03*
D16*
X391922Y855888D02*
D03*
Y840648D02*
D03*
D17*
X351536Y823630D02*
D03*
X369316D02*
D03*
X405384D02*
D03*
X387604D02*
D03*
X509270Y853440D02*
D03*
X491490D02*
D03*
D18*
X360604Y927354D02*
D03*
X414604D02*
D03*
D19*
X493584Y917600D02*
D03*
Y927100D02*
D03*
Y936600D02*
D03*
X469584D02*
D03*
Y927100D02*
D03*
Y917600D02*
D03*
D20*
X447534Y985520D02*
D03*
X477534D02*
D03*
X448804Y886460D02*
D03*
X478804D02*
D03*
D21*
X466852Y842010D02*
X478282Y853440D01*
X455422Y830580D02*
X466852Y842010D01*
X491998Y816864D01*
Y810260D02*
Y816864D01*
X402082Y873760D02*
Y874014D01*
X432308Y915416D02*
X443992Y927100D01*
X432308Y878586D02*
Y915416D01*
X402082Y848360D02*
X432308Y878586D01*
X423340Y837080D02*
Y858950D01*
X437896Y873506D01*
Y909066D01*
X446430Y917600D01*
X469584D01*
X443992Y927100D02*
X469584D01*
X383494Y848360D02*
X402082D01*
X325628Y830072D02*
Y848005D01*
Y830072D02*
X344170Y811530D01*
X311097Y847655D02*
X311447Y848005D01*
X387350Y840740D02*
X391830D01*
X391922Y840648D01*
X348745Y841505D02*
X354639D01*
X344170Y811530D02*
X357216D01*
X369316Y823630D01*
X640224Y896310D02*
X644200D01*
X671260Y956310D02*
X673800Y958850D01*
X451612Y850392D02*
X457454Y856234D01*
X445340Y844120D02*
X451612Y850392D01*
X445340Y837080D02*
Y844120D01*
X436372Y837112D02*
Y850392D01*
X423340Y824080D02*
X436372Y837112D01*
X391922Y840648D02*
X405384Y827186D01*
Y823630D02*
Y827186D01*
X365760Y843626D02*
X376639Y854505D01*
X365760Y837854D02*
Y843626D01*
X351536Y823630D02*
X365760Y837854D01*
X459994Y974090D02*
X461264D01*
X491144Y924660D02*
X493584Y927100D01*
X478282Y853440D02*
X491490D01*
X509270D02*
X510540Y854710D01*
X516890D01*
X376639Y841505D02*
X383494Y848360D01*
D22*
X394970Y866648D02*
X402082Y873760D01*
X394970Y861568D02*
Y866648D01*
X391922Y858520D02*
X394970Y861568D01*
D23*
X325628Y848005D02*
X354639D01*
X311447D02*
X325628D01*
X369316Y823630D02*
X387604D01*
X470662Y868680D02*
Y875030D01*
X465074Y863092D02*
X470662Y868680D01*
X449072Y863092D02*
X465074D01*
X436372Y850392D02*
X449072Y863092D01*
X376639Y854505D02*
X390539D01*
X391922Y855888D02*
Y858520D01*
X445340Y830580D02*
X455422D01*
D24*
X311097Y822255D02*
D03*
Y847655D02*
D03*
X517398Y810260D02*
D03*
X491998D02*
D03*
X310896Y930910D02*
D03*
Y956310D02*
D03*
X829310Y867410D02*
D03*
Y842010D02*
D03*
X830580Y1005840D02*
D03*
Y980440D02*
D03*
D25*
X356654Y1030478D02*
D03*
X406654D02*
D03*
X626910Y1029970D02*
D03*
X676910D02*
D03*
X685254Y820928D02*
D03*
X635254D02*
D03*
D26*
X402844Y877062D02*
D03*
X427990Y792480D02*
D03*
X833120Y1059180D02*
D03*
D27*
X822452Y898398D02*
D03*
X461010Y953770D02*
D03*
X387350Y840740D02*
D03*
X348745Y841505D02*
D03*
X844550Y906780D02*
D03*
Y930910D02*
D03*
X821944Y938276D02*
D03*
X844550Y885190D02*
D03*
X802640Y891540D02*
D03*
X845820Y958850D02*
D03*
X801370Y949960D02*
D03*
X789940Y783590D02*
D03*
X807720Y1051560D02*
D03*
X782320Y900430D02*
D03*
X769620D02*
D03*
X759460D02*
D03*
X749300D02*
D03*
X740410D02*
D03*
X727710D02*
D03*
X715010D02*
D03*
X768350Y947420D02*
D03*
X782320D02*
D03*
X758190D02*
D03*
X725170D02*
D03*
X735330D02*
D03*
X748030D02*
D03*
X716280D02*
D03*
X783590Y924560D02*
D03*
X777240D02*
D03*
X769620D02*
D03*
X762000D02*
D03*
X754380D02*
D03*
X746760D02*
D03*
X739140D02*
D03*
X731520D02*
D03*
X723900D02*
D03*
X716280D02*
D03*
X631190Y937260D02*
D03*
X632460Y925830D02*
D03*
Y915670D02*
D03*
X642620Y925830D02*
D03*
X652780Y910590D02*
D03*
Y918210D02*
D03*
Y925830D02*
D03*
Y933450D02*
D03*
Y941070D02*
D03*
X457454Y856234D02*
D03*
X460502Y875030D02*
D03*
X460248Y882904D02*
D03*
Y890778D02*
D03*
Y898144D02*
D03*
X461264Y974090D02*
D03*
Y996950D02*
D03*
Y989330D02*
D03*
Y981710D02*
D03*
X322072Y1027176D02*
D03*
X313182D02*
D03*
X304292D02*
D03*
X295402D02*
D03*
X463550Y962660D02*
D03*
X516890Y854710D02*
D03*
M02*
