G04 Layer_Color=13813960*
%FSLAX44Y44*%
%MOMM*%
G71*
G01*
G75*
%ADD21C,0.2540*%
G36*
X581379Y905008D02*
X581675Y904952D01*
X581929Y904853D01*
X582141Y904755D01*
X582324Y904656D01*
X582451Y904557D01*
X582521Y904501D01*
X582549Y904473D01*
X582733Y904247D01*
X582874Y904007D01*
X582972Y903754D01*
X583043Y903528D01*
X583085Y903331D01*
X583099Y903162D01*
X583113Y903105D01*
Y903063D01*
Y903035D01*
Y903021D01*
X583099Y902809D01*
X583071Y902612D01*
X583029Y902429D01*
X582986Y902259D01*
X582944Y902119D01*
X582902Y902020D01*
X582874Y901949D01*
X582859Y901921D01*
X582761Y901724D01*
X582634Y901541D01*
X582521Y901371D01*
X582408Y901230D01*
X582296Y901118D01*
X582211Y901019D01*
X582155Y900963D01*
X582141Y900948D01*
X582437Y900920D01*
X582564Y900892D01*
X582690Y900878D01*
X582789Y900850D01*
X582859Y900822D01*
X582916Y900807D01*
X582930D01*
Y898961D01*
X582733Y899017D01*
X582535Y899045D01*
X582366Y899073D01*
X582225Y899102D01*
X582098D01*
X582014Y899116D01*
X581830D01*
X581704Y899102D01*
X581436Y899073D01*
X581154Y899031D01*
X580858Y898975D01*
X580590Y898932D01*
X580477Y898904D01*
X580364Y898890D01*
X580280Y898876D01*
X580223Y898862D01*
X580181Y898848D01*
X580167D01*
X579899Y898792D01*
X579645Y898735D01*
X579420Y898679D01*
X579222Y898636D01*
X579053Y898608D01*
X578898Y898580D01*
X578757Y898552D01*
X578644Y898524D01*
X578546Y898510D01*
X578475Y898481D01*
X578405D01*
X578363Y898467D01*
X578292Y898453D01*
X578278D01*
X578010Y898411D01*
X577897Y898397D01*
X577799D01*
X577714Y898383D01*
X577446D01*
X577305Y898411D01*
X577052Y898481D01*
X576826Y898594D01*
X576629Y898707D01*
X576460Y898834D01*
X576347Y898947D01*
X576276Y899017D01*
X576248Y899031D01*
Y899045D01*
X576149Y899172D01*
X576065Y899313D01*
X575924Y899637D01*
X575825Y899962D01*
X575769Y900300D01*
X575726Y900596D01*
X575712Y900723D01*
Y900836D01*
X575698Y900934D01*
Y901005D01*
Y901047D01*
Y901061D01*
X575726Y901526D01*
X575783Y901949D01*
X575825Y902133D01*
X575867Y902302D01*
X575910Y902471D01*
X575966Y902612D01*
X576022Y902739D01*
X576065Y902851D01*
X576107Y902950D01*
X576149Y903035D01*
X576177Y903091D01*
X576206Y903133D01*
X576234Y903162D01*
Y903176D01*
X576445Y903444D01*
X576685Y903683D01*
X576939Y903867D01*
X577164Y904022D01*
X577376Y904134D01*
X577545Y904219D01*
X577615Y904247D01*
X577658Y904261D01*
X577686Y904275D01*
X577700D01*
X577855Y902414D01*
X577728Y902372D01*
X577615Y902316D01*
X577517Y902245D01*
X577432Y902175D01*
X577362Y902119D01*
X577319Y902062D01*
X577291Y902034D01*
X577277Y902020D01*
X577207Y901893D01*
X577150Y901766D01*
X577122Y901625D01*
X577094Y901498D01*
X577080Y901385D01*
X577066Y901287D01*
Y901230D01*
Y901202D01*
X577080Y901033D01*
X577094Y900878D01*
X577136Y900765D01*
X577164Y900652D01*
X577207Y900568D01*
X577249Y900511D01*
X577263Y900483D01*
X577277Y900469D01*
X577362Y900385D01*
X577446Y900328D01*
X577531Y900272D01*
X577615Y900244D01*
X577686Y900229D01*
X577728Y900215D01*
X577883D01*
X577982Y900229D01*
X578193Y900272D01*
X578278Y900300D01*
X578349Y900328D01*
X578405Y900342D01*
X578419D01*
X578447Y900441D01*
X578475Y900554D01*
X578503Y900681D01*
X578532Y900822D01*
X578588Y901118D01*
X578616Y901428D01*
X578659Y901710D01*
X578673Y901836D01*
X578687Y901935D01*
Y902034D01*
X578701Y902104D01*
Y902147D01*
Y902161D01*
X578729Y902457D01*
X578771Y902725D01*
X578814Y902964D01*
X578870Y903190D01*
X578927Y903401D01*
X578983Y903585D01*
X579053Y903754D01*
X579110Y903895D01*
X579180Y904022D01*
X579237Y904134D01*
X579293Y904219D01*
X579335Y904289D01*
X579378Y904346D01*
X579406Y904388D01*
X579420Y904402D01*
X579434Y904416D01*
X579547Y904529D01*
X579674Y904614D01*
X579941Y904769D01*
X580209Y904882D01*
X580477Y904952D01*
X580703Y905008D01*
X580801Y905022D01*
X580886D01*
X580956Y905036D01*
X581055D01*
X581379Y905008D01*
D02*
G37*
G36*
X577277Y896085D02*
X580125Y896691D01*
X580336Y896733D01*
X580533Y896776D01*
X580703Y896804D01*
X580858Y896832D01*
X580999Y896860D01*
X581126Y896889D01*
X581224Y896903D01*
X581323Y896917D01*
X581464Y896931D01*
X581563Y896945D01*
X581633D01*
X581887Y896931D01*
X582098Y896874D01*
X582296Y896804D01*
X582451Y896719D01*
X582564Y896635D01*
X582662Y896564D01*
X582719Y896508D01*
X582733Y896494D01*
X582859Y896296D01*
X582958Y896071D01*
X583015Y895817D01*
X583071Y895577D01*
X583099Y895352D01*
Y895267D01*
X583113Y895183D01*
Y895112D01*
Y895056D01*
Y895028D01*
Y895014D01*
X583099Y894633D01*
X583071Y894464D01*
X583057Y894309D01*
X583029Y894182D01*
X583015Y894083D01*
X583000Y894027D01*
Y893999D01*
X581591Y893703D01*
X581605Y893872D01*
X581619Y894013D01*
X581633Y894126D01*
Y894210D01*
X581647Y894266D01*
Y894309D01*
Y894337D01*
Y894464D01*
X581633Y894577D01*
X581605Y894675D01*
X581577Y894746D01*
X581563Y894788D01*
X581534Y894830D01*
X581520Y894844D01*
Y894858D01*
X581408Y894929D01*
X581309Y894971D01*
X581210Y894985D01*
X581154D01*
X581111Y894971D01*
X580985Y894957D01*
X580844Y894929D01*
X580675Y894901D01*
X580519Y894873D01*
X580392Y894844D01*
X580336Y894830D01*
X580294Y894816D01*
X580266D01*
X577277Y894196D01*
Y893026D01*
X575853Y892730D01*
Y893900D01*
X573414Y893407D01*
X574725Y895577D01*
X575853Y895803D01*
Y896733D01*
X577277Y897029D01*
Y896085D01*
D02*
G37*
G36*
X580322Y916920D02*
X580618Y916878D01*
X580886Y916822D01*
X581111Y916751D01*
X581309Y916681D01*
X581464Y916624D01*
X581520Y916596D01*
X581563Y916582D01*
X581577Y916568D01*
X581591D01*
X581844Y916413D01*
X582070Y916230D01*
X582267Y916032D01*
X582422Y915849D01*
X582549Y915680D01*
X582648Y915539D01*
X582676Y915482D01*
X582704Y915440D01*
X582719Y915426D01*
Y915412D01*
X582845Y915116D01*
X582944Y914806D01*
X583015Y914510D01*
X583057Y914228D01*
X583085Y913988D01*
X583099Y913889D01*
X583113Y913805D01*
Y913734D01*
Y913678D01*
Y913650D01*
Y913636D01*
X583099Y913297D01*
X583057Y912973D01*
X583000Y912677D01*
X582916Y912395D01*
X582831Y912127D01*
X582719Y911888D01*
X582606Y911676D01*
X582493Y911465D01*
X582380Y911296D01*
X582267Y911141D01*
X582155Y911000D01*
X582070Y910887D01*
X581986Y910802D01*
X581929Y910746D01*
X581887Y910704D01*
X581873Y910689D01*
X581633Y910492D01*
X581379Y910323D01*
X581126Y910182D01*
X580872Y910055D01*
X580632Y909942D01*
X580378Y909858D01*
X580139Y909787D01*
X579913Y909731D01*
X579702Y909689D01*
X579504Y909646D01*
X579335Y909618D01*
X579180Y909604D01*
X579067Y909590D01*
X578898D01*
X578630Y909604D01*
X578377Y909632D01*
X578137Y909675D01*
X577911Y909731D01*
X577714Y909801D01*
X577517Y909872D01*
X577348Y909956D01*
X577178Y910027D01*
X577038Y910111D01*
X576925Y910196D01*
X576812Y910266D01*
X576727Y910337D01*
X576657Y910393D01*
X576614Y910436D01*
X576586Y910464D01*
X576572Y910478D01*
X576417Y910647D01*
X576290Y910830D01*
X576163Y911028D01*
X576065Y911225D01*
X575980Y911437D01*
X575910Y911634D01*
X575811Y912029D01*
X575769Y912212D01*
X575741Y912381D01*
X575726Y912522D01*
X575712Y912663D01*
X575698Y912762D01*
Y912846D01*
Y912903D01*
Y912917D01*
X575712Y913241D01*
X575755Y913565D01*
X575811Y913861D01*
X575882Y914129D01*
X575966Y914397D01*
X576079Y914637D01*
X576177Y914848D01*
X576290Y915045D01*
X576403Y915229D01*
X576502Y915384D01*
X576600Y915525D01*
X576699Y915638D01*
X576770Y915722D01*
X576826Y915779D01*
X576868Y915821D01*
X576882Y915835D01*
X577108Y916032D01*
X577348Y916201D01*
X577601Y916342D01*
X577869Y916469D01*
X578123Y916582D01*
X578391Y916667D01*
X578644Y916737D01*
X578884Y916793D01*
X579110Y916836D01*
X579335Y916878D01*
X579519Y916906D01*
X579688Y916920D01*
X579829D01*
X579927Y916934D01*
X580012D01*
X580322Y916920D01*
D02*
G37*
G36*
X582930Y907010D02*
X573175Y904966D01*
Y906855D01*
X582930Y908899D01*
Y907010D01*
D02*
G37*
G36*
X580322Y888881D02*
X580618Y888839D01*
X580886Y888783D01*
X581111Y888712D01*
X581309Y888642D01*
X581464Y888585D01*
X581520Y888557D01*
X581563Y888543D01*
X581577Y888529D01*
X581591D01*
X581844Y888374D01*
X582070Y888191D01*
X582267Y887993D01*
X582422Y887810D01*
X582549Y887641D01*
X582648Y887500D01*
X582676Y887443D01*
X582704Y887401D01*
X582719Y887387D01*
Y887373D01*
X582845Y887077D01*
X582944Y886767D01*
X583015Y886471D01*
X583057Y886189D01*
X583085Y885949D01*
X583099Y885851D01*
X583113Y885766D01*
Y885695D01*
Y885639D01*
Y885611D01*
Y885597D01*
X583099Y885258D01*
X583057Y884934D01*
X583000Y884638D01*
X582916Y884356D01*
X582831Y884088D01*
X582719Y883849D01*
X582606Y883637D01*
X582493Y883426D01*
X582380Y883257D01*
X582267Y883102D01*
X582155Y882961D01*
X582070Y882848D01*
X581986Y882763D01*
X581929Y882707D01*
X581887Y882665D01*
X581873Y882651D01*
X581633Y882453D01*
X581379Y882284D01*
X581126Y882143D01*
X580872Y882016D01*
X580632Y881903D01*
X580378Y881819D01*
X580139Y881748D01*
X579913Y881692D01*
X579702Y881650D01*
X579504Y881607D01*
X579335Y881579D01*
X579180Y881565D01*
X579067Y881551D01*
X578898D01*
X578630Y881565D01*
X578377Y881593D01*
X578137Y881636D01*
X577911Y881692D01*
X577714Y881762D01*
X577517Y881833D01*
X577348Y881917D01*
X577178Y881988D01*
X577038Y882073D01*
X576925Y882157D01*
X576812Y882228D01*
X576727Y882298D01*
X576657Y882355D01*
X576614Y882397D01*
X576586Y882425D01*
X576572Y882439D01*
X576417Y882608D01*
X576290Y882792D01*
X576163Y882989D01*
X576065Y883186D01*
X575980Y883398D01*
X575910Y883595D01*
X575811Y883990D01*
X575769Y884173D01*
X575741Y884342D01*
X575726Y884483D01*
X575712Y884624D01*
X575698Y884723D01*
Y884807D01*
Y884864D01*
Y884878D01*
X575712Y885202D01*
X575755Y885526D01*
X575811Y885822D01*
X575882Y886090D01*
X575966Y886358D01*
X576079Y886598D01*
X576177Y886809D01*
X576290Y887007D01*
X576403Y887190D01*
X576502Y887345D01*
X576600Y887486D01*
X576699Y887599D01*
X576770Y887683D01*
X576826Y887739D01*
X576868Y887782D01*
X576882Y887796D01*
X577108Y887993D01*
X577348Y888162D01*
X577601Y888303D01*
X577869Y888430D01*
X578123Y888543D01*
X578391Y888628D01*
X578644Y888698D01*
X578884Y888755D01*
X579110Y888797D01*
X579335Y888839D01*
X579519Y888867D01*
X579688Y888881D01*
X579829D01*
X579927Y888895D01*
X580012D01*
X580322Y888881D01*
D02*
G37*
G36*
X582930Y878929D02*
X580040Y878323D01*
X579815Y878266D01*
X579603Y878224D01*
X579406Y878168D01*
X579237Y878125D01*
X579081Y878083D01*
X578941Y878041D01*
X578828Y877999D01*
X578715Y877970D01*
X578630Y877942D01*
X578546Y877914D01*
X578433Y877872D01*
X578363Y877843D01*
X578349Y877829D01*
X578137Y877702D01*
X577954Y877576D01*
X577799Y877435D01*
X577672Y877308D01*
X577559Y877195D01*
X577489Y877096D01*
X577432Y877040D01*
X577418Y877012D01*
X577305Y876814D01*
X577221Y876645D01*
X577150Y876490D01*
X577108Y876349D01*
X577080Y876222D01*
X577066Y876138D01*
Y876081D01*
Y876067D01*
X577080Y875926D01*
X577094Y875799D01*
X577136Y875701D01*
X577164Y875616D01*
X577207Y875546D01*
X577249Y875503D01*
X577263Y875475D01*
X577277Y875461D01*
X577362Y875391D01*
X577460Y875334D01*
X577559Y875292D01*
X577644Y875264D01*
X577728Y875250D01*
X577799Y875236D01*
X577897D01*
X577954Y875250D01*
X578095Y875278D01*
X578278Y875306D01*
X578461Y875334D01*
X578630Y875377D01*
X578786Y875405D01*
X578842Y875419D01*
X578884D01*
X578912Y875433D01*
X578927D01*
X582930Y876293D01*
Y874404D01*
X578941Y873544D01*
X578757Y873502D01*
X578588Y873459D01*
X578433Y873431D01*
X578292Y873403D01*
X578038Y873361D01*
X577855Y873332D01*
X577700Y873304D01*
X577601Y873290D01*
X577531D01*
X577235Y873318D01*
X576981Y873375D01*
X576755Y873445D01*
X576558Y873544D01*
X576403Y873643D01*
X576290Y873713D01*
X576234Y873769D01*
X576206Y873798D01*
X576037Y874009D01*
X575910Y874235D01*
X575825Y874460D01*
X575755Y874686D01*
X575726Y874883D01*
X575712Y875052D01*
X575698Y875109D01*
Y875151D01*
Y875179D01*
Y875193D01*
X575712Y875433D01*
X575741Y875658D01*
X575783Y875870D01*
X575825Y876053D01*
X575867Y876208D01*
X575910Y876335D01*
X575938Y876405D01*
X575952Y876434D01*
X576065Y876659D01*
X576192Y876885D01*
X576333Y877096D01*
X576460Y877294D01*
X576586Y877463D01*
X576685Y877604D01*
X576755Y877688D01*
X576784Y877702D01*
Y877717D01*
X575853Y877533D01*
Y879338D01*
X582930Y880818D01*
Y878929D01*
D02*
G37*
G36*
Y891080D02*
X575853Y889586D01*
Y891489D01*
X582930Y892970D01*
Y891080D01*
D02*
G37*
G36*
X574895Y889389D02*
X573175Y889036D01*
Y890925D01*
X574895Y891292D01*
Y889389D01*
D02*
G37*
G36*
X580421Y956321D02*
X580646Y956307D01*
X580872Y956265D01*
X581069Y956209D01*
X581267Y956152D01*
X581450Y956082D01*
X581605Y956011D01*
X581746Y955927D01*
X581887Y955856D01*
X582000Y955786D01*
X582098Y955715D01*
X582183Y955659D01*
X582239Y955602D01*
X582281Y955560D01*
X582310Y955546D01*
X582324Y955532D01*
X582465Y955377D01*
X582578Y955208D01*
X582690Y955039D01*
X582775Y954869D01*
X582916Y954531D01*
X583015Y954207D01*
X583043Y954052D01*
X583071Y953911D01*
X583085Y953784D01*
X583099Y953685D01*
X583113Y953601D01*
Y953530D01*
Y953488D01*
Y953474D01*
X583085Y953107D01*
X583029Y952769D01*
X582944Y952459D01*
X582845Y952177D01*
X582761Y951951D01*
X582719Y951853D01*
X582676Y951768D01*
X582634Y951698D01*
X582620Y951655D01*
X582592Y951627D01*
Y951613D01*
X582380Y951289D01*
X582141Y951007D01*
X581887Y950767D01*
X581647Y950570D01*
X581422Y950415D01*
X581323Y950344D01*
X581238Y950302D01*
X581182Y950260D01*
X581126Y950231D01*
X581097Y950203D01*
X581083D01*
X580717Y950034D01*
X580350Y949907D01*
X580012Y949823D01*
X579716Y949752D01*
X579575Y949738D01*
X579448Y949724D01*
X579349Y949710D01*
X579251D01*
X579180Y949696D01*
X579081D01*
X578856Y949710D01*
X578630Y949724D01*
X578236Y949809D01*
X578052Y949865D01*
X577883Y949921D01*
X577728Y949992D01*
X577601Y950062D01*
X577475Y950133D01*
X577362Y950203D01*
X577277Y950260D01*
X577207Y950316D01*
X577136Y950358D01*
X577094Y950401D01*
X577080Y950415D01*
X577066Y950429D01*
X576925Y950570D01*
X576812Y950711D01*
X576713Y950866D01*
X576629Y951021D01*
X576488Y951331D01*
X576403Y951613D01*
X576347Y951867D01*
X576333Y951980D01*
X576319Y952078D01*
X576304Y952149D01*
Y952205D01*
Y952247D01*
Y952262D01*
X576319Y952473D01*
X576333Y952642D01*
X576347Y952727D01*
X576361Y952783D01*
X576375Y952811D01*
Y952825D01*
X576431Y953023D01*
X576488Y953206D01*
X576516Y953277D01*
X576530Y953333D01*
X576558Y953361D01*
Y953375D01*
X575050Y952938D01*
Y949682D01*
X573302Y949315D01*
Y954235D01*
X578306Y955715D01*
X578419Y954150D01*
X578292Y954024D01*
X578193Y953911D01*
X578095Y953798D01*
X578024Y953699D01*
X577968Y953615D01*
X577926Y953544D01*
X577911Y953502D01*
X577897Y953488D01*
X577841Y953361D01*
X577785Y953220D01*
X577756Y953107D01*
X577742Y952995D01*
X577728Y952896D01*
X577714Y952825D01*
Y952769D01*
Y952755D01*
X577728Y952572D01*
X577771Y952402D01*
X577827Y952262D01*
X577883Y952149D01*
X577954Y952050D01*
X578010Y951980D01*
X578052Y951937D01*
X578066Y951923D01*
X578208Y951810D01*
X578377Y951740D01*
X578546Y951684D01*
X578715Y951641D01*
X578856Y951613D01*
X578983Y951599D01*
X579096D01*
X579504Y951627D01*
X579871Y951684D01*
X580181Y951782D01*
X580435Y951881D01*
X580632Y951980D01*
X580717Y952036D01*
X580773Y952078D01*
X580830Y952106D01*
X580872Y952135D01*
X580886Y952163D01*
X580900D01*
X581013Y952262D01*
X581111Y952374D01*
X581281Y952586D01*
X581393Y952797D01*
X581464Y952995D01*
X581520Y953150D01*
X581534Y953291D01*
X581549Y953375D01*
Y953389D01*
Y953403D01*
X581534Y953572D01*
X581492Y953728D01*
X581450Y953869D01*
X581379Y953981D01*
X581323Y954066D01*
X581281Y954136D01*
X581238Y954179D01*
X581224Y954193D01*
X581083Y954292D01*
X580928Y954362D01*
X580759Y954418D01*
X580590Y954446D01*
X580435Y954475D01*
X580322Y954489D01*
X580153D01*
X580082Y954475D01*
X579998D01*
X580167Y956336D01*
X580421Y956321D01*
D02*
G37*
G36*
X582930Y947215D02*
X580830Y946764D01*
X579645Y945453D01*
X582930Y944466D01*
Y942549D01*
X578405Y944085D01*
X575853Y941238D01*
Y943719D01*
X578264Y946228D01*
X573175Y945171D01*
Y947060D01*
X582930Y949104D01*
Y947215D01*
D02*
G37*
G36*
Y961819D02*
X581182Y961453D01*
Y964836D01*
X580942Y964639D01*
X580830Y964554D01*
X580731Y964470D01*
X580660Y964399D01*
X580604Y964343D01*
X580562Y964314D01*
X580548Y964300D01*
X580407Y964159D01*
X580238Y963990D01*
X580054Y963793D01*
X579871Y963596D01*
X579688Y963412D01*
X579547Y963257D01*
X579490Y963201D01*
X579462Y963158D01*
X579434Y963130D01*
X579420Y963116D01*
X579124Y962806D01*
X578870Y962538D01*
X578644Y962313D01*
X578461Y962129D01*
X578320Y961988D01*
X578222Y961890D01*
X578151Y961833D01*
X578137Y961819D01*
X577897Y961622D01*
X577672Y961467D01*
X577460Y961326D01*
X577277Y961213D01*
X577122Y961128D01*
X577009Y961072D01*
X576939Y961044D01*
X576911Y961030D01*
X576685Y960945D01*
X576474Y960889D01*
X576276Y960847D01*
X576107Y960818D01*
X575952Y960804D01*
X575839Y960790D01*
X575741D01*
X575529Y960804D01*
X575332Y960818D01*
X574965Y960917D01*
X574641Y961044D01*
X574373Y961185D01*
X574260Y961255D01*
X574162Y961326D01*
X574077Y961396D01*
X573993Y961453D01*
X573936Y961509D01*
X573894Y961551D01*
X573880Y961565D01*
X573866Y961580D01*
X573739Y961735D01*
X573612Y961890D01*
X573513Y962059D01*
X573429Y962242D01*
X573302Y962595D01*
X573217Y962947D01*
X573175Y963102D01*
X573161Y963243D01*
X573147Y963384D01*
X573133Y963497D01*
X573119Y963596D01*
Y963666D01*
Y963708D01*
Y963722D01*
X573133Y963948D01*
X573147Y964174D01*
X573231Y964568D01*
X573344Y964921D01*
X573414Y965076D01*
X573485Y965217D01*
X573555Y965358D01*
X573626Y965470D01*
X573682Y965569D01*
X573739Y965639D01*
X573781Y965710D01*
X573823Y965752D01*
X573837Y965780D01*
X573852Y965795D01*
X573993Y965936D01*
X574148Y966077D01*
X574472Y966302D01*
X574824Y966485D01*
X575163Y966626D01*
X575318Y966683D01*
X575459Y966725D01*
X575586Y966753D01*
X575698Y966796D01*
X575797Y966810D01*
X575867Y966824D01*
X575910Y966838D01*
X575924D01*
X576192Y964977D01*
X575882Y964906D01*
X575628Y964822D01*
X575416Y964737D01*
X575247Y964653D01*
X575120Y964582D01*
X575036Y964526D01*
X574979Y964484D01*
X574965Y964470D01*
X574852Y964343D01*
X574768Y964202D01*
X574697Y964075D01*
X574655Y963948D01*
X574627Y963835D01*
X574613Y963751D01*
Y963694D01*
Y963680D01*
X574627Y963525D01*
X574655Y963384D01*
X574711Y963257D01*
X574768Y963144D01*
X574824Y963060D01*
X574881Y963003D01*
X574909Y962961D01*
X574923Y962947D01*
X575050Y962848D01*
X575177Y962778D01*
X575318Y962721D01*
X575444Y962693D01*
X575557Y962665D01*
X575642Y962651D01*
X575726D01*
X575839Y962665D01*
X575966Y962679D01*
X576079Y962707D01*
X576192Y962736D01*
X576276Y962778D01*
X576347Y962806D01*
X576403Y962820D01*
X576417Y962834D01*
X576558Y962905D01*
X576713Y963003D01*
X576868Y963102D01*
X577009Y963215D01*
X577136Y963314D01*
X577235Y963398D01*
X577291Y963455D01*
X577319Y963469D01*
X577376Y963525D01*
X577446Y963596D01*
X577630Y963765D01*
X577827Y963976D01*
X578038Y964188D01*
X578236Y964385D01*
X578391Y964554D01*
X578461Y964611D01*
X578503Y964667D01*
X578532Y964695D01*
X578546Y964709D01*
X578771Y964949D01*
X578983Y965160D01*
X579180Y965358D01*
X579364Y965541D01*
X579519Y965710D01*
X579674Y965851D01*
X579800Y965992D01*
X579927Y966105D01*
X580026Y966203D01*
X580125Y966288D01*
X580195Y966358D01*
X580252Y966415D01*
X580336Y966485D01*
X580364Y966514D01*
X580576Y966683D01*
X580787Y966838D01*
X580985Y966979D01*
X581168Y967106D01*
X581323Y967204D01*
X581450Y967275D01*
X581534Y967317D01*
X581549Y967331D01*
X581563D01*
X581802Y967444D01*
X582056Y967529D01*
X582281Y967599D01*
X582493Y967655D01*
X582662Y967698D01*
X582803Y967726D01*
X582859D01*
X582902Y967740D01*
X582930D01*
Y961819D01*
D02*
G37*
G36*
Y958478D02*
X581083Y958112D01*
Y960001D01*
X582930Y960367D01*
Y958478D01*
D02*
G37*
G36*
Y938728D02*
Y936600D01*
X573175Y931215D01*
Y933202D01*
X580548Y937248D01*
X573175Y938475D01*
Y940462D01*
X582930Y938728D01*
D02*
G37*
G36*
X581337Y924927D02*
X581647Y924758D01*
X581929Y924561D01*
X582155Y924378D01*
X582324Y924209D01*
X582465Y924068D01*
X582507Y924011D01*
X582535Y923969D01*
X582564Y923941D01*
Y923926D01*
X582662Y923757D01*
X582747Y923588D01*
X582888Y923208D01*
X582972Y922813D01*
X583043Y922432D01*
X583071Y922249D01*
X583085Y922094D01*
X583099Y921939D01*
Y921812D01*
X583113Y921699D01*
Y921629D01*
Y921572D01*
Y921558D01*
X583099Y921276D01*
X583085Y921008D01*
X583043Y920769D01*
X583000Y920543D01*
X582944Y920318D01*
X582888Y920134D01*
X582817Y919951D01*
X582747Y919796D01*
X582676Y919655D01*
X582606Y919528D01*
X582549Y919416D01*
X582493Y919331D01*
X582451Y919260D01*
X582408Y919218D01*
X582394Y919190D01*
X582380Y919176D01*
X582239Y919021D01*
X582084Y918894D01*
X581943Y918781D01*
X581788Y918682D01*
X581647Y918598D01*
X581492Y918527D01*
X581224Y918429D01*
X580985Y918358D01*
X580886Y918344D01*
X580801Y918330D01*
X580731Y918316D01*
X580632D01*
X580491Y918330D01*
X580350Y918344D01*
X580097Y918415D01*
X579871Y918527D01*
X579674Y918654D01*
X579519Y918781D01*
X579392Y918880D01*
X579321Y918964D01*
X579293Y918979D01*
Y918993D01*
X579222Y919091D01*
X579152Y919204D01*
X579081Y919345D01*
X579011Y919486D01*
X578870Y919796D01*
X578757Y920106D01*
X578659Y920402D01*
X578616Y920529D01*
X578574Y920642D01*
X578546Y920741D01*
X578518Y920811D01*
X578503Y920853D01*
Y920867D01*
X578461Y921037D01*
X578405Y921178D01*
X578363Y921304D01*
X578334Y921417D01*
X578292Y921530D01*
X578264Y921615D01*
X578208Y921756D01*
X578179Y921854D01*
X578151Y921911D01*
X578123Y921939D01*
Y921953D01*
X578052Y922038D01*
X577982Y922094D01*
X577911Y922150D01*
X577841Y922178D01*
X577785Y922193D01*
X577728Y922207D01*
X577686D01*
X577587Y922193D01*
X577503Y922164D01*
X577362Y922080D01*
X577305Y922038D01*
X577263Y921995D01*
X577249Y921967D01*
X577235Y921953D01*
X577164Y921840D01*
X577108Y921699D01*
X577080Y921558D01*
X577052Y921417D01*
X577038Y921290D01*
X577023Y921178D01*
Y921107D01*
Y921079D01*
X577038Y920853D01*
X577066Y920656D01*
X577108Y920487D01*
X577150Y920332D01*
X577207Y920219D01*
X577249Y920120D01*
X577277Y920064D01*
X577291Y920050D01*
X577362Y919937D01*
X577460Y919838D01*
X577545Y919754D01*
X577644Y919697D01*
X577728Y919641D01*
X577799Y919613D01*
X577841Y919585D01*
X577855D01*
X577559Y917822D01*
X577249Y917921D01*
X576981Y918048D01*
X576755Y918189D01*
X576558Y918344D01*
X576403Y918485D01*
X576290Y918612D01*
X576234Y918697D01*
X576206Y918711D01*
Y918725D01*
X576121Y918866D01*
X576037Y919007D01*
X575910Y919331D01*
X575825Y919683D01*
X575755Y920008D01*
X575726Y920318D01*
X575712Y920445D01*
Y920557D01*
X575698Y920656D01*
Y920726D01*
Y920769D01*
Y920783D01*
X575712Y921093D01*
X575741Y921389D01*
X575783Y921657D01*
X575825Y921911D01*
X575896Y922150D01*
X575966Y922362D01*
X576051Y922545D01*
X576121Y922728D01*
X576206Y922883D01*
X576290Y923010D01*
X576361Y923123D01*
X576417Y923208D01*
X576474Y923278D01*
X576516Y923334D01*
X576544Y923363D01*
X576558Y923377D01*
X576671Y923490D01*
X576798Y923574D01*
X577038Y923729D01*
X577277Y923842D01*
X577503Y923912D01*
X577700Y923969D01*
X577855Y923983D01*
X577911Y923997D01*
X577996D01*
X578151Y923983D01*
X578292Y923969D01*
X578560Y923898D01*
X578800Y923800D01*
X578997Y923673D01*
X579152Y923560D01*
X579265Y923461D01*
X579335Y923391D01*
X579364Y923363D01*
X579420Y923264D01*
X579490Y923151D01*
X579561Y923010D01*
X579645Y922841D01*
X579786Y922489D01*
X579941Y922122D01*
X580068Y921770D01*
X580125Y921615D01*
X580167Y921488D01*
X580209Y921375D01*
X580238Y921276D01*
X580266Y921220D01*
Y921206D01*
X580336Y920980D01*
X580407Y920811D01*
X580477Y920670D01*
X580533Y920557D01*
X580576Y920487D01*
X580604Y920431D01*
X580618Y920416D01*
X580632Y920402D01*
X580745Y920318D01*
X580858Y920275D01*
X580942Y920261D01*
X580970D01*
X581083Y920275D01*
X581168Y920304D01*
X581323Y920402D01*
X581379Y920459D01*
X581422Y920501D01*
X581450Y920529D01*
X581464Y920543D01*
X581563Y920698D01*
X581633Y920867D01*
X581675Y921051D01*
X581704Y921220D01*
X581732Y921375D01*
X581746Y921488D01*
Y921572D01*
Y921586D01*
Y921600D01*
X581732Y921826D01*
X581704Y922023D01*
X581675Y922193D01*
X581619Y922334D01*
X581577Y922446D01*
X581549Y922531D01*
X581520Y922587D01*
X581506Y922601D01*
X581408Y922728D01*
X581281Y922855D01*
X581140Y922954D01*
X580999Y923038D01*
X580872Y923109D01*
X580773Y923165D01*
X580703Y923194D01*
X580675Y923208D01*
X580970Y925054D01*
X581337Y924927D01*
D02*
G37*
G36*
X582930Y926675D02*
X573175Y924617D01*
Y926619D01*
X582930Y928663D01*
Y926675D01*
D02*
G37*
%LPC*%
G36*
X580111Y915017D02*
X579984D01*
X579758Y915003D01*
X579519Y914975D01*
X579293Y914933D01*
X579081Y914890D01*
X578912Y914848D01*
X578771Y914806D01*
X578715Y914792D01*
X578673Y914778D01*
X578659Y914763D01*
X578644D01*
X578391Y914651D01*
X578165Y914538D01*
X577968Y914411D01*
X577813Y914284D01*
X577686Y914185D01*
X577601Y914101D01*
X577545Y914030D01*
X577531Y914016D01*
X577404Y913833D01*
X577305Y913636D01*
X577235Y913453D01*
X577178Y913283D01*
X577150Y913142D01*
X577136Y913015D01*
Y912945D01*
Y912917D01*
X577150Y912691D01*
X577207Y912494D01*
X577263Y912325D01*
X577348Y912170D01*
X577418Y912057D01*
X577489Y911972D01*
X577545Y911916D01*
X577559Y911902D01*
X577728Y911761D01*
X577897Y911662D01*
X578081Y911592D01*
X578250Y911549D01*
X578405Y911507D01*
X578532Y911493D01*
X578644D01*
X578898Y911507D01*
X579138Y911521D01*
X579589Y911606D01*
X579786Y911662D01*
X579984Y911733D01*
X580153Y911803D01*
X580322Y911874D01*
X580463Y911944D01*
X580590Y912015D01*
X580703Y912071D01*
X580801Y912141D01*
X580872Y912184D01*
X580928Y912226D01*
X580956Y912240D01*
X580970Y912254D01*
X581083Y912353D01*
X581182Y912466D01*
X581351Y912691D01*
X581464Y912903D01*
X581549Y913114D01*
X581591Y913297D01*
X581619Y913453D01*
X581633Y913509D01*
Y913537D01*
Y913565D01*
Y913579D01*
X581619Y913805D01*
X581563Y914002D01*
X581492Y914171D01*
X581408Y914326D01*
X581337Y914439D01*
X581267Y914538D01*
X581210Y914594D01*
X581196Y914608D01*
X581013Y914749D01*
X580815Y914848D01*
X580618Y914919D01*
X580421Y914961D01*
X580252Y914989D01*
X580111Y915017D01*
D02*
G37*
G36*
X580942Y903246D02*
X580886D01*
X580745Y903232D01*
X580618Y903204D01*
X580505Y903148D01*
X580407Y903091D01*
X580336Y903035D01*
X580280Y902978D01*
X580252Y902950D01*
X580238Y902936D01*
X580181Y902837D01*
X580125Y902725D01*
X580068Y902598D01*
X580012Y902457D01*
X579927Y902147D01*
X579857Y901836D01*
X579800Y901541D01*
X579772Y901414D01*
X579758Y901287D01*
X579744Y901202D01*
Y901118D01*
X579730Y901075D01*
Y901061D01*
X579702Y900864D01*
X579660Y900723D01*
X579645Y900667D01*
Y900624D01*
X579631Y900610D01*
Y900596D01*
X579899Y900652D01*
X580139Y900709D01*
X580350Y900765D01*
X580533Y900822D01*
X580675Y900878D01*
X580787Y900920D01*
X580858Y900963D01*
X580914Y900977D01*
X580928Y900991D01*
X581055Y901061D01*
X581154Y901160D01*
X581253Y901258D01*
X581323Y901343D01*
X581393Y901428D01*
X581436Y901498D01*
X581464Y901555D01*
X581478Y901569D01*
X581549Y901710D01*
X581591Y901851D01*
X581633Y901992D01*
X581647Y902119D01*
X581661Y902217D01*
X581675Y902302D01*
Y902358D01*
Y902372D01*
X581661Y902513D01*
X581633Y902640D01*
X581605Y902753D01*
X581563Y902837D01*
X581520Y902908D01*
X581478Y902964D01*
X581464Y902992D01*
X581450Y903007D01*
X581365Y903091D01*
X581267Y903148D01*
X581168Y903190D01*
X581083Y903218D01*
X580999Y903232D01*
X580942Y903246D01*
D02*
G37*
G36*
X580111Y886978D02*
X579984D01*
X579758Y886964D01*
X579519Y886936D01*
X579293Y886894D01*
X579081Y886851D01*
X578912Y886809D01*
X578771Y886767D01*
X578715Y886753D01*
X578673Y886739D01*
X578659Y886724D01*
X578644D01*
X578391Y886612D01*
X578165Y886499D01*
X577968Y886372D01*
X577813Y886245D01*
X577686Y886147D01*
X577601Y886062D01*
X577545Y885992D01*
X577531Y885977D01*
X577404Y885794D01*
X577305Y885597D01*
X577235Y885414D01*
X577178Y885244D01*
X577150Y885103D01*
X577136Y884977D01*
Y884906D01*
Y884878D01*
X577150Y884652D01*
X577207Y884455D01*
X577263Y884286D01*
X577348Y884131D01*
X577418Y884018D01*
X577489Y883933D01*
X577545Y883877D01*
X577559Y883863D01*
X577728Y883722D01*
X577897Y883623D01*
X578081Y883553D01*
X578250Y883510D01*
X578405Y883468D01*
X578532Y883454D01*
X578644D01*
X578898Y883468D01*
X579138Y883482D01*
X579589Y883567D01*
X579786Y883623D01*
X579984Y883694D01*
X580153Y883764D01*
X580322Y883835D01*
X580463Y883905D01*
X580590Y883976D01*
X580703Y884032D01*
X580801Y884102D01*
X580872Y884145D01*
X580928Y884187D01*
X580956Y884201D01*
X580970Y884215D01*
X581083Y884314D01*
X581182Y884427D01*
X581351Y884652D01*
X581464Y884864D01*
X581549Y885075D01*
X581591Y885258D01*
X581619Y885414D01*
X581633Y885470D01*
Y885498D01*
Y885526D01*
Y885540D01*
X581619Y885766D01*
X581563Y885963D01*
X581492Y886133D01*
X581408Y886288D01*
X581337Y886400D01*
X581267Y886499D01*
X581210Y886555D01*
X581196Y886570D01*
X581013Y886710D01*
X580815Y886809D01*
X580618Y886880D01*
X580421Y886922D01*
X580252Y886950D01*
X580111Y886978D01*
D02*
G37*
%LPD*%
D21*
X577850Y972820D02*
Y1002030D01*
Y836930D02*
Y866140D01*
X608330Y922020D02*
Y928370D01*
X543560Y924560D02*
X561340D01*
X543560D02*
X549910Y918210D01*
Y930910D01*
X543560Y924560D02*
X544830D01*
X543560D02*
X549910Y930910D01*
X547370Y920750D02*
Y927100D01*
X546735Y927735D02*
X547370Y927100D01*
X548640D01*
X607060Y922020D02*
X608330D01*
X608965Y921385D01*
X605790Y918210D02*
X612140Y924560D01*
X610870D02*
X612140D01*
X605790Y918210D02*
Y930910D01*
X612140Y924560D01*
X594360D02*
X612140D01*
M02*
