M48
;Layer_Color=6321
;FILE_FORMAT=4:4
METRIC,LZ
;TYPE=PLATED
T1F00S00C0.3000
T2F00S00C0.7000
T3F00S00C0.7620
T4F00S00C1.0000
%
T01
X0078994Y0078359
X0038735Y0084074
X00348745Y00841505
X00322072Y01027176
X00313182
X00304292
X00295402
X00461264Y0099695
Y0098933
Y0098171
Y0097409
X0046355Y0096266
X0046101Y0095377
X00460248Y00898144
Y00890778
Y00882904
X00460502Y0087503
X00457454Y00856234
X0051689Y0085471
X0063246Y0091567
Y0092583
X0064262
X0065278
Y0091821
Y0091059
Y0093345
Y0094107
X0063119Y0093726
X0071628Y0094742
X0072517
X0073533
X0074803
X0075819
X0076835
X0078232
X0078359Y0092456
X0077724
X0076962
X00762
X0075438
X0074676
X0073914
X0073152
X007239
X0071628
X0071501Y0090043
X0072771
X0074041
X007493
X0075946
X0076962
X0078232
X0080264Y0089154
X00822452Y00898398
X0084455Y0090678
Y0088519
Y0093091
X0084582Y0095885
X00821944Y00938276
X0080137Y0094996
X0080772Y0105156
T02
X00356654Y01030478
X00406654
X0062691Y0102997
X0067691
X00685254Y00820928
X00635254
T03
X0042799Y0079248
X00402844Y00877062
X0083312Y0105918
T04
X00311097Y00822255
Y00847655
X00310896Y0093091
Y0095631
X00491998Y0081026
X00517398
X0082931Y0084201
Y0086741
X0083058Y0098044
Y0100584
M30
