G04 Layer_Color=25308*
%FSLAX44Y44*%
%MOMM*%
G71*
G01*
G75*
G04:AMPARAMS|DCode=10|XSize=0.889mm|YSize=0.889mm|CornerRadius=0.1111mm|HoleSize=0mm|Usage=FLASHONLY|Rotation=180.000|XOffset=0mm|YOffset=0mm|HoleType=Round|Shape=RoundedRectangle|*
%AMROUNDEDRECTD10*
21,1,0.8890,0.6667,0,0,180.0*
21,1,0.6667,0.8890,0,0,180.0*
1,1,0.2223,-0.3334,0.3334*
1,1,0.2223,0.3334,0.3334*
1,1,0.2223,0.3334,-0.3334*
1,1,0.2223,-0.3334,-0.3334*
%
%ADD10ROUNDEDRECTD10*%
%ADD11R,1.7000X1.6000*%
%ADD12R,4.0000X1.0000*%
%ADD13R,2.8000X1.5000*%
%ADD14R,1.3500X0.6500*%
%ADD15R,0.9000X0.4000*%
G04:AMPARAMS|DCode=16|XSize=0.889mm|YSize=0.889mm|CornerRadius=0.1111mm|HoleSize=0mm|Usage=FLASHONLY|Rotation=90.000|XOffset=0mm|YOffset=0mm|HoleType=Round|Shape=RoundedRectangle|*
%AMROUNDEDRECTD16*
21,1,0.8890,0.6667,0,0,90.0*
21,1,0.6667,0.8890,0,0,90.0*
1,1,0.2223,0.3334,0.3334*
1,1,0.2223,0.3334,-0.3334*
1,1,0.2223,-0.3334,-0.3334*
1,1,0.2223,-0.3334,0.3334*
%
%ADD16ROUNDEDRECTD16*%
%ADD17R,0.7620X1.1000*%
%ADD18R,1.0000X4.0000*%
%ADD19R,0.9000X0.6500*%
%ADD20R,1.5000X2.8000*%
%ADD24C,1.8000*%
%ADD25C,1.2000*%
%ADD26C,1.5240*%
D10*
X475234Y953770D02*
D03*
X459994D02*
D03*
X792480Y781050D02*
D03*
X777240D02*
D03*
X796290Y1054100D02*
D03*
X811530D02*
D03*
X436372Y850392D02*
D03*
X451612D02*
D03*
D11*
X640224Y956310D02*
D03*
Y936310D02*
D03*
Y916310D02*
D03*
Y896310D02*
D03*
X522224D02*
D03*
Y916310D02*
D03*
Y936310D02*
D03*
Y956310D02*
D03*
D12*
X754380Y798500D02*
D03*
Y852500D02*
D03*
X751840Y1049350D02*
D03*
Y995350D02*
D03*
D13*
X728980Y911620D02*
D03*
Y881620D02*
D03*
X768350Y911620D02*
D03*
Y881620D02*
D03*
X728980Y967500D02*
D03*
Y937500D02*
D03*
X768350Y967500D02*
D03*
Y937500D02*
D03*
X308942Y1008366D02*
D03*
Y1038366D02*
D03*
D14*
X673800Y915670D02*
D03*
X697800D02*
D03*
X673800Y895350D02*
D03*
X697800D02*
D03*
Y937260D02*
D03*
X673800D02*
D03*
X697800Y958850D02*
D03*
X673800D02*
D03*
D15*
X445340Y824080D02*
D03*
Y830580D02*
D03*
Y837080D02*
D03*
X423340D02*
D03*
Y824080D02*
D03*
X354639Y854505D02*
D03*
Y848005D02*
D03*
Y841505D02*
D03*
X376639D02*
D03*
Y854505D02*
D03*
D16*
X391922Y855888D02*
D03*
Y840648D02*
D03*
D17*
X351536Y823630D02*
D03*
X369316D02*
D03*
X405384D02*
D03*
X387604D02*
D03*
X509270Y853440D02*
D03*
X491490D02*
D03*
D18*
X360604Y927354D02*
D03*
X414604D02*
D03*
D19*
X493584Y917600D02*
D03*
Y927100D02*
D03*
Y936600D02*
D03*
X469584D02*
D03*
Y927100D02*
D03*
Y917600D02*
D03*
D20*
X447534Y985520D02*
D03*
X477534D02*
D03*
X448804Y886460D02*
D03*
X478804D02*
D03*
D24*
X311097Y822255D02*
D03*
Y847655D02*
D03*
X517398Y810260D02*
D03*
X491998D02*
D03*
X310896Y930910D02*
D03*
Y956310D02*
D03*
X829310Y867410D02*
D03*
Y842010D02*
D03*
X830580Y1005840D02*
D03*
Y980440D02*
D03*
D25*
X356654Y1030478D02*
D03*
X406654D02*
D03*
X626910Y1029970D02*
D03*
X676910D02*
D03*
X685254Y820928D02*
D03*
X635254D02*
D03*
D26*
X402844Y877062D02*
D03*
X427990Y792480D02*
D03*
X833120Y1059180D02*
D03*
M02*
