G04 Layer_Color=20142*
%FSLAX44Y44*%
%MOMM*%
G71*
G01*
G75*
%ADD12R,4.0000X1.0000*%
%ADD18R,1.0000X4.0000*%
G04:AMPARAMS|DCode=32|XSize=1.0922mm|YSize=1.0922mm|CornerRadius=0.2127mm|HoleSize=0mm|Usage=FLASHONLY|Rotation=180.000|XOffset=0mm|YOffset=0mm|HoleType=Round|Shape=RoundedRectangle|*
%AMROUNDEDRECTD32*
21,1,1.0922,0.6667,0,0,180.0*
21,1,0.6667,1.0922,0,0,180.0*
1,1,0.4254,-0.3334,0.3334*
1,1,0.4254,0.3334,0.3334*
1,1,0.4254,0.3334,-0.3334*
1,1,0.4254,-0.3334,-0.3334*
%
%ADD32ROUNDEDRECTD32*%
%ADD33R,1.9032X1.8032*%
%ADD34R,3.0032X1.7032*%
%ADD35R,1.5532X0.8532*%
%ADD36R,1.1032X0.6032*%
G04:AMPARAMS|DCode=37|XSize=1.0922mm|YSize=1.0922mm|CornerRadius=0.2127mm|HoleSize=0mm|Usage=FLASHONLY|Rotation=90.000|XOffset=0mm|YOffset=0mm|HoleType=Round|Shape=RoundedRectangle|*
%AMROUNDEDRECTD37*
21,1,1.0922,0.6667,0,0,90.0*
21,1,0.6667,1.0922,0,0,90.0*
1,1,0.4254,0.3334,0.3334*
1,1,0.4254,0.3334,-0.3334*
1,1,0.4254,-0.3334,-0.3334*
1,1,0.4254,-0.3334,0.3334*
%
%ADD37ROUNDEDRECTD37*%
%ADD38R,0.9652X1.3032*%
%ADD39R,1.1032X0.8532*%
%ADD40R,1.7032X3.0032*%
%ADD41C,2.0032*%
%ADD42C,1.4032*%
%ADD43C,1.7272*%
G36*
X803452Y924312D02*
X800195D01*
X799758Y922804D01*
X799772D01*
X799801Y922832D01*
X799857Y922846D01*
X799928Y922874D01*
X800111Y922931D01*
X800308Y922987D01*
X800322D01*
X800350Y923001D01*
X800407Y923015D01*
X800491Y923029D01*
X800661Y923044D01*
X800872Y923058D01*
X800985D01*
X801055Y923044D01*
X801154Y923029D01*
X801267Y923015D01*
X801520Y922959D01*
X801802Y922874D01*
X802113Y922733D01*
X802268Y922649D01*
X802423Y922550D01*
X802564Y922437D01*
X802705Y922296D01*
X802719Y922282D01*
X802733Y922268D01*
X802775Y922226D01*
X802817Y922155D01*
X802874Y922085D01*
X802930Y922000D01*
X803001Y921888D01*
X803071Y921761D01*
X803142Y921634D01*
X803212Y921479D01*
X803269Y921310D01*
X803325Y921126D01*
X803410Y920732D01*
X803424Y920506D01*
X803438Y920281D01*
Y920266D01*
Y920238D01*
Y920182D01*
X803424Y920111D01*
Y920013D01*
X803410Y919914D01*
X803395Y919787D01*
X803381Y919646D01*
X803311Y919350D01*
X803226Y919012D01*
X803099Y918645D01*
X802930Y918279D01*
Y918265D01*
X802902Y918236D01*
X802874Y918180D01*
X802831Y918124D01*
X802789Y918039D01*
X802719Y917940D01*
X802564Y917715D01*
X802366Y917475D01*
X802127Y917221D01*
X801845Y916982D01*
X801520Y916770D01*
X801506D01*
X801478Y916742D01*
X801436Y916728D01*
X801365Y916686D01*
X801281Y916644D01*
X801182Y916601D01*
X800957Y916517D01*
X800675Y916418D01*
X800365Y916333D01*
X800026Y916277D01*
X799660Y916249D01*
X799533D01*
X799448Y916263D01*
X799350Y916277D01*
X799223Y916291D01*
X799082Y916319D01*
X798927Y916347D01*
X798602Y916446D01*
X798264Y916587D01*
X798095Y916672D01*
X797926Y916784D01*
X797757Y916897D01*
X797601Y917038D01*
X797587Y917052D01*
X797573Y917081D01*
X797531Y917123D01*
X797475Y917179D01*
X797418Y917264D01*
X797348Y917362D01*
X797277Y917475D01*
X797207Y917616D01*
X797122Y917757D01*
X797052Y917912D01*
X796981Y918095D01*
X796925Y918293D01*
X796869Y918490D01*
X796826Y918716D01*
X796812Y918941D01*
X796798Y919195D01*
X798659Y919364D01*
Y919336D01*
Y919280D01*
X798645Y919209D01*
Y919153D01*
Y919139D01*
Y919125D01*
Y919040D01*
X798659Y918927D01*
X798687Y918772D01*
X798715Y918603D01*
X798772Y918434D01*
X798842Y918279D01*
X798941Y918138D01*
X798955Y918124D01*
X798997Y918081D01*
X799068Y918039D01*
X799152Y917983D01*
X799265Y917912D01*
X799406Y917870D01*
X799561Y917828D01*
X799730Y917813D01*
X799758D01*
X799843Y917828D01*
X799984Y917842D01*
X800139Y917898D01*
X800336Y917969D01*
X800548Y918081D01*
X800759Y918251D01*
X800872Y918349D01*
X800971Y918462D01*
Y918476D01*
X800999Y918490D01*
X801027Y918532D01*
X801055Y918589D01*
X801098Y918645D01*
X801154Y918730D01*
X801253Y918927D01*
X801351Y919181D01*
X801450Y919491D01*
X801506Y919858D01*
X801535Y920266D01*
Y920281D01*
Y920295D01*
Y920379D01*
X801520Y920506D01*
X801492Y920647D01*
X801450Y920816D01*
X801394Y920985D01*
X801323Y921154D01*
X801210Y921295D01*
X801196Y921310D01*
X801154Y921352D01*
X801084Y921408D01*
X800985Y921479D01*
X800872Y921535D01*
X800731Y921591D01*
X800562Y921634D01*
X800379Y921648D01*
X800308D01*
X800238Y921634D01*
X800139Y921620D01*
X800026Y921606D01*
X799913Y921577D01*
X799772Y921521D01*
X799646Y921465D01*
X799632Y921451D01*
X799589Y921436D01*
X799519Y921394D01*
X799434Y921338D01*
X799335Y921267D01*
X799223Y921169D01*
X799110Y921070D01*
X798983Y920943D01*
X797418Y921056D01*
X798898Y926060D01*
X803818D01*
X803452Y924312D01*
D02*
G37*
G36*
X832872Y923636D02*
X833055Y923607D01*
X833267Y923551D01*
X833493Y923466D01*
X833704Y923354D01*
X833887Y923199D01*
X833901Y923185D01*
X833958Y923114D01*
X834042Y923015D01*
X834127Y922874D01*
X834211Y922705D01*
X834296Y922508D01*
X834352Y922268D01*
X834367Y922000D01*
Y921986D01*
Y921930D01*
X834352Y921831D01*
X834338Y921704D01*
X834324Y921535D01*
X834282Y921310D01*
X834240Y921042D01*
X834169Y920732D01*
X833239Y916432D01*
X831350D01*
X832266Y920732D01*
Y920746D01*
X832280Y920774D01*
Y920802D01*
X832294Y920859D01*
X832322Y920999D01*
X832351Y921154D01*
X832379Y921310D01*
X832407Y921465D01*
X832435Y921577D01*
Y921620D01*
Y921648D01*
Y921662D01*
Y921704D01*
X832421Y921747D01*
X832407Y921817D01*
X832365Y921972D01*
X832308Y922043D01*
X832252Y922113D01*
X832238Y922127D01*
X832224Y922141D01*
X832181Y922169D01*
X832125Y922212D01*
X832055Y922240D01*
X831956Y922268D01*
X831857Y922282D01*
X831730Y922296D01*
X831660D01*
X831603Y922282D01*
X831462Y922254D01*
X831293Y922198D01*
X831096Y922113D01*
X830870Y921972D01*
X830758Y921888D01*
X830645Y921789D01*
X830546Y921676D01*
X830433Y921535D01*
X830419Y921507D01*
X830391Y921479D01*
X830363Y921436D01*
X830335Y921366D01*
X830293Y921295D01*
X830236Y921197D01*
X830194Y921098D01*
X830137Y920971D01*
X830081Y920830D01*
X830025Y920675D01*
X829968Y920506D01*
X829898Y920323D01*
X829841Y920111D01*
X829785Y919886D01*
X829729Y919632D01*
X829052Y916432D01*
X827163D01*
X828051Y920689D01*
Y920703D01*
X828065Y920717D01*
X828079Y920816D01*
X828107Y920943D01*
X828136Y921084D01*
X828164Y921253D01*
X828178Y921408D01*
X828206Y921549D01*
Y921648D01*
Y921662D01*
Y921690D01*
X828192Y921747D01*
X828178Y921817D01*
X828121Y921958D01*
X828079Y922043D01*
X828009Y922113D01*
X827995Y922127D01*
X827981Y922141D01*
X827938Y922169D01*
X827882Y922212D01*
X827797Y922240D01*
X827713Y922268D01*
X827614Y922282D01*
X827487Y922296D01*
X827431D01*
X827374Y922282D01*
X827290Y922268D01*
X827191Y922254D01*
X827078Y922212D01*
X826966Y922169D01*
X826839Y922099D01*
X826825Y922085D01*
X826782Y922071D01*
X826712Y922029D01*
X826641Y921972D01*
X826543Y921902D01*
X826444Y921803D01*
X826345Y921704D01*
X826247Y921591D01*
X826233Y921577D01*
X826204Y921535D01*
X826162Y921465D01*
X826106Y921366D01*
X826035Y921253D01*
X825965Y921098D01*
X825894Y920943D01*
X825824Y920760D01*
Y920746D01*
X825810Y920703D01*
X825781Y920633D01*
X825753Y920534D01*
X825725Y920393D01*
X825669Y920196D01*
X825612Y919970D01*
X825584Y919829D01*
X825542Y919674D01*
X824865Y916432D01*
X822976D01*
X824456Y923509D01*
X826247D01*
X826077Y922649D01*
X826092Y922663D01*
X826120Y922691D01*
X826176Y922747D01*
X826261Y922804D01*
X826359Y922888D01*
X826472Y922973D01*
X826599Y923058D01*
X826754Y923156D01*
X827093Y923339D01*
X827459Y923509D01*
X827670Y923565D01*
X827868Y923622D01*
X828093Y923650D01*
X828305Y923664D01*
X828432D01*
X828587Y923650D01*
X828756Y923622D01*
X828953Y923579D01*
X829165Y923523D01*
X829362Y923438D01*
X829531Y923325D01*
X829545Y923311D01*
X829602Y923269D01*
X829672Y923185D01*
X829771Y923086D01*
X829855Y922959D01*
X829954Y922790D01*
X830039Y922621D01*
X830095Y922409D01*
X830109Y922437D01*
X830166Y922494D01*
X830250Y922592D01*
X830363Y922719D01*
X830518Y922860D01*
X830687Y923001D01*
X830899Y923156D01*
X831138Y923297D01*
X831152D01*
X831167Y923311D01*
X831209Y923325D01*
X831265Y923354D01*
X831392Y923410D01*
X831575Y923481D01*
X831787Y923551D01*
X832040Y923607D01*
X832294Y923650D01*
X832576Y923664D01*
X832717D01*
X832872Y923636D01*
D02*
G37*
G36*
X404368Y784098D02*
X302514D01*
Y800354D01*
X303022Y800862D01*
X404368D01*
Y784098D01*
D02*
G37*
G36*
X808794Y926229D02*
X808893Y926215D01*
X809006Y926201D01*
X809288Y926131D01*
X809598Y926032D01*
X809753Y925962D01*
X809922Y925877D01*
X810077Y925778D01*
X810247Y925651D01*
X810402Y925525D01*
X810543Y925369D01*
X810557Y925355D01*
X810571Y925327D01*
X810613Y925285D01*
X810669Y925214D01*
X810726Y925116D01*
X810782Y925017D01*
X810853Y924890D01*
X810937Y924735D01*
X811008Y924566D01*
X811078Y924383D01*
X811135Y924171D01*
X811191Y923960D01*
X811247Y923706D01*
X811290Y923452D01*
X811304Y923170D01*
X811318Y922874D01*
Y922860D01*
Y922804D01*
Y922719D01*
X811304Y922607D01*
Y922480D01*
X811290Y922310D01*
X811276Y922127D01*
X811247Y921916D01*
X811219Y921676D01*
X811177Y921436D01*
X811135Y921169D01*
X811078Y920901D01*
X810937Y920309D01*
X810754Y919688D01*
Y919674D01*
X810726Y919618D01*
X810698Y919533D01*
X810655Y919421D01*
X810599Y919280D01*
X810528Y919110D01*
X810444Y918941D01*
X810359Y918744D01*
X810134Y918335D01*
X809880Y917912D01*
X809584Y917503D01*
X809415Y917306D01*
X809246Y917137D01*
X809232Y917123D01*
X809203Y917095D01*
X809147Y917052D01*
X809077Y916996D01*
X808992Y916925D01*
X808879Y916855D01*
X808766Y916770D01*
X808625Y916700D01*
X808301Y916531D01*
X807949Y916390D01*
X807751Y916333D01*
X807540Y916291D01*
X807328Y916263D01*
X807103Y916249D01*
X806990D01*
X806906Y916263D01*
X806807Y916277D01*
X806694Y916291D01*
X806412Y916361D01*
X806102Y916460D01*
X805947Y916531D01*
X805778Y916615D01*
X805609Y916714D01*
X805454Y916827D01*
X805298Y916954D01*
X805143Y917109D01*
X805129Y917123D01*
X805115Y917151D01*
X805073Y917193D01*
X805031Y917264D01*
X804974Y917362D01*
X804904Y917461D01*
X804833Y917588D01*
X804763Y917743D01*
X804692Y917912D01*
X804622Y918095D01*
X804565Y918293D01*
X804495Y918518D01*
X804453Y918758D01*
X804410Y919012D01*
X804396Y919294D01*
X804382Y919590D01*
Y919604D01*
Y919660D01*
Y919731D01*
X804396Y919844D01*
Y919984D01*
X804410Y920139D01*
X804425Y920323D01*
X804439Y920520D01*
X804467Y920732D01*
X804509Y920971D01*
X804594Y921479D01*
X804706Y922014D01*
X804876Y922578D01*
X804890Y922607D01*
X804904Y922663D01*
X804946Y922762D01*
X804988Y922888D01*
X805045Y923044D01*
X805129Y923213D01*
X805214Y923410D01*
X805313Y923622D01*
X805538Y924073D01*
X805806Y924524D01*
X805947Y924749D01*
X806116Y924961D01*
X806285Y925158D01*
X806454Y925341D01*
X806469Y925355D01*
X806497Y925384D01*
X806553Y925426D01*
X806624Y925482D01*
X806708Y925553D01*
X806821Y925623D01*
X806948Y925708D01*
X807089Y925792D01*
X807399Y925962D01*
X807766Y926103D01*
X807963Y926159D01*
X808160Y926201D01*
X808372Y926229D01*
X808597Y926244D01*
X808710D01*
X808794Y926229D01*
D02*
G37*
G36*
X816379D02*
X816477Y926215D01*
X816590Y926201D01*
X816872Y926131D01*
X817182Y926032D01*
X817337Y925962D01*
X817506Y925877D01*
X817662Y925778D01*
X817831Y925651D01*
X817986Y925525D01*
X818127Y925369D01*
X818141Y925355D01*
X818155Y925327D01*
X818197Y925285D01*
X818254Y925214D01*
X818310Y925116D01*
X818366Y925017D01*
X818437Y924890D01*
X818521Y924735D01*
X818592Y924566D01*
X818662Y924383D01*
X818719Y924171D01*
X818775Y923960D01*
X818832Y923706D01*
X818874Y923452D01*
X818888Y923170D01*
X818902Y922874D01*
Y922860D01*
Y922804D01*
Y922719D01*
X818888Y922607D01*
Y922480D01*
X818874Y922310D01*
X818860Y922127D01*
X818832Y921916D01*
X818803Y921676D01*
X818761Y921436D01*
X818719Y921169D01*
X818662Y920901D01*
X818521Y920309D01*
X818338Y919688D01*
Y919674D01*
X818310Y919618D01*
X818282Y919533D01*
X818240Y919421D01*
X818183Y919280D01*
X818113Y919110D01*
X818028Y918941D01*
X817943Y918744D01*
X817718Y918335D01*
X817464Y917912D01*
X817168Y917503D01*
X816999Y917306D01*
X816830Y917137D01*
X816816Y917123D01*
X816787Y917095D01*
X816731Y917052D01*
X816661Y916996D01*
X816576Y916925D01*
X816463Y916855D01*
X816350Y916770D01*
X816210Y916700D01*
X815885Y916531D01*
X815533Y916390D01*
X815336Y916333D01*
X815124Y916291D01*
X814913Y916263D01*
X814687Y916249D01*
X814574D01*
X814490Y916263D01*
X814391Y916277D01*
X814278Y916291D01*
X813996Y916361D01*
X813686Y916460D01*
X813531Y916531D01*
X813362Y916615D01*
X813193Y916714D01*
X813038Y916827D01*
X812883Y916954D01*
X812728Y917109D01*
X812713Y917123D01*
X812699Y917151D01*
X812657Y917193D01*
X812615Y917264D01*
X812558Y917362D01*
X812488Y917461D01*
X812418Y917588D01*
X812347Y917743D01*
X812277Y917912D01*
X812206Y918095D01*
X812150Y918293D01*
X812079Y918518D01*
X812037Y918758D01*
X811995Y919012D01*
X811981Y919294D01*
X811966Y919590D01*
Y919604D01*
Y919660D01*
Y919731D01*
X811981Y919844D01*
Y919984D01*
X811995Y920139D01*
X812009Y920323D01*
X812023Y920520D01*
X812051Y920732D01*
X812093Y920971D01*
X812178Y921479D01*
X812291Y922014D01*
X812460Y922578D01*
X812474Y922607D01*
X812488Y922663D01*
X812530Y922762D01*
X812572Y922888D01*
X812629Y923044D01*
X812713Y923213D01*
X812798Y923410D01*
X812897Y923622D01*
X813122Y924073D01*
X813390Y924524D01*
X813531Y924749D01*
X813700Y924961D01*
X813869Y925158D01*
X814039Y925341D01*
X814053Y925355D01*
X814081Y925384D01*
X814137Y925426D01*
X814208Y925482D01*
X814292Y925553D01*
X814405Y925623D01*
X814532Y925708D01*
X814673Y925792D01*
X814983Y925962D01*
X815350Y926103D01*
X815547Y926159D01*
X815744Y926201D01*
X815956Y926229D01*
X816181Y926244D01*
X816294D01*
X816379Y926229D01*
D02*
G37*
G36*
X843783Y916432D02*
X841880D01*
X841556Y918589D01*
X837693D01*
X836523Y916432D01*
X834465D01*
X839949Y926187D01*
X842218D01*
X843783Y916432D01*
D02*
G37*
G36*
X788380Y804250D02*
X775630Y791500D01*
X733130D01*
X720380Y804250D01*
Y816500D01*
X734380D01*
X745380Y805500D01*
X763380D01*
X774380Y816500D01*
X788380D01*
Y804250D01*
D02*
G37*
G36*
X421604Y948604D02*
Y906104D01*
X408854Y893354D01*
X396604D01*
Y907354D01*
X407604Y918354D01*
Y936354D01*
X396604Y947354D01*
Y961354D01*
X408854D01*
X421604Y948604D01*
D02*
G37*
G36*
X529082Y1015238D02*
X528828Y1014984D01*
X502666D01*
Y1026922D01*
X529082D01*
Y1015238D01*
D02*
G37*
G36*
X785840Y1001100D02*
X773090Y988350D01*
X730590D01*
X717840Y1001100D01*
Y1013350D01*
X731840D01*
X742840Y1002350D01*
X760840D01*
X771840Y1013350D01*
X785840D01*
Y1001100D01*
D02*
G37*
G36*
X788380Y846750D02*
Y834500D01*
X774380D01*
X763380Y845500D01*
X745380D01*
X734380Y834500D01*
X720380D01*
Y846750D01*
X733130Y859500D01*
X775630D01*
X788380Y846750D01*
D02*
G37*
G36*
X378604Y947354D02*
X367604Y936354D01*
Y918354D01*
X378604Y907354D01*
Y893354D01*
X366354D01*
X353604Y906104D01*
Y948604D01*
X366354Y961354D01*
X378604D01*
Y947354D01*
D02*
G37*
G36*
X785840Y1043600D02*
Y1031350D01*
X771840D01*
X760840Y1042350D01*
X742840D01*
X731840Y1031350D01*
X717840D01*
Y1043600D01*
X730590Y1056350D01*
X773090D01*
X785840Y1043600D01*
D02*
G37*
%LPC*%
G36*
X840738Y924143D02*
X838596Y920224D01*
X841316D01*
X840738Y924143D01*
D02*
G37*
G36*
X816111Y924721D02*
X816083D01*
X816026Y924707D01*
X815928Y924693D01*
X815801Y924665D01*
X815660Y924594D01*
X815505Y924510D01*
X815350Y924397D01*
X815195Y924228D01*
Y924213D01*
X815166Y924199D01*
X815138Y924143D01*
X815096Y924087D01*
X815054Y924002D01*
X814983Y923903D01*
X814927Y923791D01*
X814856Y923650D01*
X814772Y923481D01*
X814687Y923297D01*
X814603Y923100D01*
X814518Y922860D01*
X814433Y922621D01*
X814349Y922339D01*
X814264Y922043D01*
X814180Y921718D01*
Y921704D01*
X814165Y921648D01*
X814151Y921577D01*
X814123Y921465D01*
X814095Y921338D01*
X814067Y921183D01*
X814039Y921013D01*
X814010Y920830D01*
X813940Y920422D01*
X813884Y920013D01*
X813841Y919590D01*
X813827Y919195D01*
Y919181D01*
Y919167D01*
Y919125D01*
Y919068D01*
X813841Y918927D01*
X813855Y918758D01*
X813884Y918575D01*
X813940Y918391D01*
X813996Y918222D01*
X814081Y918081D01*
X814095Y918067D01*
X814123Y918039D01*
X814180Y917983D01*
X814264Y917926D01*
X814349Y917870D01*
X814462Y917813D01*
X814603Y917785D01*
X814743Y917771D01*
X814772D01*
X814828Y917785D01*
X814941Y917799D01*
X815068Y917828D01*
X815209Y917898D01*
X815378Y917983D01*
X815533Y918095D01*
X815702Y918265D01*
Y918279D01*
X815730Y918293D01*
X815759Y918335D01*
X815801Y918406D01*
X815843Y918476D01*
X815899Y918575D01*
X815956Y918702D01*
X816026Y918843D01*
X816111Y918998D01*
X816181Y919195D01*
X816266Y919407D01*
X816350Y919646D01*
X816435Y919914D01*
X816520Y920196D01*
X816604Y920520D01*
X816689Y920873D01*
Y920887D01*
X816703Y920943D01*
X816717Y921028D01*
X816745Y921126D01*
X816773Y921253D01*
X816802Y921408D01*
X816830Y921577D01*
X816872Y921761D01*
X816928Y922155D01*
X816985Y922564D01*
X817027Y922959D01*
X817041Y923156D01*
Y923325D01*
Y923339D01*
Y923354D01*
Y923452D01*
X817027Y923579D01*
X817013Y923734D01*
X816971Y923903D01*
X816928Y924087D01*
X816858Y924242D01*
X816773Y924383D01*
X816759Y924397D01*
X816731Y924439D01*
X816675Y924495D01*
X816590Y924552D01*
X816506Y924608D01*
X816393Y924665D01*
X816252Y924707D01*
X816111Y924721D01*
D02*
G37*
G36*
X808527D02*
X808499D01*
X808442Y924707D01*
X808343Y924693D01*
X808217Y924665D01*
X808076Y924594D01*
X807921Y924510D01*
X807766Y924397D01*
X807610Y924228D01*
Y924213D01*
X807582Y924199D01*
X807554Y924143D01*
X807512Y924087D01*
X807469Y924002D01*
X807399Y923903D01*
X807343Y923791D01*
X807272Y923650D01*
X807188Y923481D01*
X807103Y923297D01*
X807018Y923100D01*
X806934Y922860D01*
X806849Y922621D01*
X806765Y922339D01*
X806680Y922043D01*
X806595Y921718D01*
Y921704D01*
X806581Y921648D01*
X806567Y921577D01*
X806539Y921465D01*
X806511Y921338D01*
X806483Y921183D01*
X806454Y921013D01*
X806426Y920830D01*
X806356Y920422D01*
X806299Y920013D01*
X806257Y919590D01*
X806243Y919195D01*
Y919181D01*
Y919167D01*
Y919125D01*
Y919068D01*
X806257Y918927D01*
X806271Y918758D01*
X806299Y918575D01*
X806356Y918391D01*
X806412Y918222D01*
X806497Y918081D01*
X806511Y918067D01*
X806539Y918039D01*
X806595Y917983D01*
X806680Y917926D01*
X806765Y917870D01*
X806877Y917813D01*
X807018Y917785D01*
X807159Y917771D01*
X807188D01*
X807244Y917785D01*
X807357Y917799D01*
X807484Y917828D01*
X807625Y917898D01*
X807794Y917983D01*
X807949Y918095D01*
X808118Y918265D01*
Y918279D01*
X808146Y918293D01*
X808174Y918335D01*
X808217Y918406D01*
X808259Y918476D01*
X808315Y918575D01*
X808372Y918702D01*
X808442Y918843D01*
X808527Y918998D01*
X808597Y919195D01*
X808682Y919407D01*
X808766Y919646D01*
X808851Y919914D01*
X808935Y920196D01*
X809020Y920520D01*
X809105Y920873D01*
Y920887D01*
X809119Y920943D01*
X809133Y921028D01*
X809161Y921126D01*
X809189Y921253D01*
X809218Y921408D01*
X809246Y921577D01*
X809288Y921761D01*
X809344Y922155D01*
X809401Y922564D01*
X809443Y922959D01*
X809457Y923156D01*
Y923325D01*
Y923339D01*
Y923354D01*
Y923452D01*
X809443Y923579D01*
X809429Y923734D01*
X809387Y923903D01*
X809344Y924087D01*
X809274Y924242D01*
X809189Y924383D01*
X809175Y924397D01*
X809147Y924439D01*
X809091Y924495D01*
X809006Y924552D01*
X808921Y924608D01*
X808809Y924665D01*
X808668Y924707D01*
X808527Y924721D01*
D02*
G37*
%LPD*%
D12*
X754380Y798500D02*
D03*
Y852500D02*
D03*
X751840Y1049350D02*
D03*
Y995350D02*
D03*
D18*
X360604Y927354D02*
D03*
X414604D02*
D03*
D32*
X475234Y953770D02*
D03*
X459994D02*
D03*
X792480Y781050D02*
D03*
X777240D02*
D03*
X796290Y1054100D02*
D03*
X811530D02*
D03*
X436372Y850392D02*
D03*
X451612D02*
D03*
D33*
X640224Y956310D02*
D03*
Y936310D02*
D03*
Y916310D02*
D03*
Y896310D02*
D03*
X522224D02*
D03*
Y916310D02*
D03*
Y936310D02*
D03*
Y956310D02*
D03*
D34*
X728980Y911620D02*
D03*
Y881620D02*
D03*
X768350Y911620D02*
D03*
Y881620D02*
D03*
X728980Y967500D02*
D03*
Y937500D02*
D03*
X768350Y967500D02*
D03*
Y937500D02*
D03*
X308942Y1008366D02*
D03*
Y1038366D02*
D03*
D35*
X673800Y915670D02*
D03*
X697800D02*
D03*
X673800Y895350D02*
D03*
X697800D02*
D03*
Y937260D02*
D03*
X673800D02*
D03*
X697800Y958850D02*
D03*
X673800D02*
D03*
D36*
X445340Y824080D02*
D03*
Y830580D02*
D03*
Y837080D02*
D03*
X423340D02*
D03*
Y824080D02*
D03*
X354639Y854505D02*
D03*
Y848005D02*
D03*
Y841505D02*
D03*
X376639D02*
D03*
Y854505D02*
D03*
D37*
X391922Y855888D02*
D03*
Y840648D02*
D03*
D38*
X351536Y823630D02*
D03*
X369316D02*
D03*
X405384D02*
D03*
X387604D02*
D03*
X509270Y853440D02*
D03*
X491490D02*
D03*
D39*
X493584Y917600D02*
D03*
Y927100D02*
D03*
Y936600D02*
D03*
X469584D02*
D03*
Y927100D02*
D03*
Y917600D02*
D03*
D40*
X447534Y985520D02*
D03*
X477534D02*
D03*
X448804Y886460D02*
D03*
X478804D02*
D03*
D41*
X311097Y822255D02*
D03*
Y847655D02*
D03*
X517398Y810260D02*
D03*
X491998D02*
D03*
X310896Y930910D02*
D03*
Y956310D02*
D03*
X829310Y867410D02*
D03*
Y842010D02*
D03*
X830580Y1005840D02*
D03*
Y980440D02*
D03*
D42*
X356654Y1030478D02*
D03*
X406654D02*
D03*
X626910Y1029970D02*
D03*
X676910D02*
D03*
X685254Y820928D02*
D03*
X635254D02*
D03*
D43*
X402844Y877062D02*
D03*
X427990Y792480D02*
D03*
X833120Y1059180D02*
D03*
M02*
