G04 Layer_Color=15132400*
%FSLAX44Y44*%
%MOMM*%
G71*
G01*
G75*
%ADD21C,0.2540*%
%ADD28C,0.2500*%
%ADD29C,0.2000*%
%ADD30C,0.1270*%
%ADD31C,1.0000*%
G36*
X576580Y852170D02*
X534670D01*
Y872170D01*
X576580D01*
Y852170D01*
D02*
G37*
G36*
X864362Y1016508D02*
X798322D01*
Y1038098D01*
X864362D01*
Y1016508D01*
D02*
G37*
G36*
X480314Y776478D02*
X457962D01*
Y842518D01*
X480314D01*
Y776478D01*
D02*
G37*
G36*
X627380Y852170D02*
X579120D01*
Y872170D01*
X627380D01*
Y852170D01*
D02*
G37*
G36*
X863092Y808990D02*
X797052D01*
Y831342D01*
X863092D01*
Y808990D01*
D02*
G37*
G36*
X417598Y870605D02*
X413876D01*
X413143Y868110D01*
X413157Y868124D01*
X413213Y868152D01*
X413298Y868208D01*
X413411Y868279D01*
X413538Y868349D01*
X413679Y868420D01*
X413989Y868561D01*
X414003Y868575D01*
X414059Y868589D01*
X414158Y868617D01*
X414271Y868645D01*
X414398Y868673D01*
X414553Y868688D01*
X414722Y868716D01*
X415004D01*
X415074Y868702D01*
X415173Y868688D01*
X415286Y868673D01*
X415539Y868617D01*
X415821Y868532D01*
X416132Y868406D01*
X416287Y868321D01*
X416442Y868222D01*
X416583Y868095D01*
X416724Y867969D01*
X416738Y867954D01*
X416752Y867940D01*
X416794Y867898D01*
X416836Y867828D01*
X416893Y867757D01*
X416949Y867673D01*
X417020Y867560D01*
X417090Y867447D01*
X417161Y867306D01*
X417231Y867151D01*
X417287Y866982D01*
X417344Y866798D01*
X417386Y866601D01*
X417428Y866404D01*
X417443Y866178D01*
X417457Y865939D01*
Y865925D01*
Y865896D01*
Y865826D01*
X417443Y865755D01*
Y865657D01*
X417428Y865530D01*
X417414Y865403D01*
X417400Y865262D01*
X417330Y864938D01*
X417245Y864599D01*
X417132Y864233D01*
X416963Y863866D01*
Y863852D01*
X416935Y863824D01*
X416907Y863782D01*
X416879Y863711D01*
X416766Y863542D01*
X416611Y863331D01*
X416413Y863091D01*
X416174Y862851D01*
X415906Y862626D01*
X415596Y862414D01*
X415582D01*
X415554Y862386D01*
X415511Y862372D01*
X415441Y862330D01*
X415370Y862302D01*
X415272Y862259D01*
X415046Y862161D01*
X414764Y862062D01*
X414454Y861991D01*
X414101Y861935D01*
X413735Y861907D01*
X413594D01*
X413439Y861921D01*
X413242Y861949D01*
X413002Y861991D01*
X412762Y862062D01*
X412509Y862147D01*
X412255Y862273D01*
X412227Y862288D01*
X412142Y862344D01*
X412029Y862428D01*
X411888Y862541D01*
X411733Y862696D01*
X411578Y862879D01*
X411423Y863077D01*
X411282Y863316D01*
Y863331D01*
X411268Y863345D01*
X411240Y863429D01*
X411184Y863570D01*
X411127Y863739D01*
X411071Y863937D01*
X411014Y864162D01*
X410986Y864402D01*
X410972Y864656D01*
Y864670D01*
Y864712D01*
Y864769D01*
Y864867D01*
X412184Y864994D01*
Y864980D01*
Y864952D01*
Y864853D01*
Y864740D01*
Y864698D01*
Y864670D01*
Y864656D01*
Y864599D01*
X412198Y864515D01*
X412212Y864402D01*
X412241Y864261D01*
X412269Y864106D01*
X412325Y863951D01*
X412396Y863782D01*
X412410Y863768D01*
X412438Y863711D01*
X412495Y863627D01*
X412551Y863528D01*
X412649Y863415D01*
X412748Y863302D01*
X412861Y863190D01*
X413002Y863091D01*
X413016Y863077D01*
X413073Y863063D01*
X413143Y863020D01*
X413242Y862978D01*
X413368Y862936D01*
X413509Y862908D01*
X413665Y862879D01*
X413820Y862865D01*
X413918D01*
X414031Y862879D01*
X414172Y862908D01*
X414341Y862964D01*
X414524Y863020D01*
X414736Y863119D01*
X414947Y863246D01*
X414976Y863260D01*
X415046Y863316D01*
X415159Y863401D01*
X415286Y863528D01*
X415441Y863683D01*
X415596Y863880D01*
X415751Y864106D01*
X415892Y864360D01*
Y864374D01*
X415906Y864388D01*
X415920Y864430D01*
X415948Y864487D01*
X416005Y864642D01*
X416075Y864825D01*
X416146Y865051D01*
X416202Y865304D01*
X416244Y865572D01*
X416258Y865840D01*
Y865854D01*
Y865882D01*
Y865925D01*
X416244Y865981D01*
X416230Y866122D01*
X416202Y866305D01*
X416132Y866517D01*
X416047Y866742D01*
X415934Y866954D01*
X415765Y867151D01*
X415737Y867179D01*
X415680Y867235D01*
X415568Y867306D01*
X415427Y867405D01*
X415243Y867489D01*
X415032Y867574D01*
X414778Y867630D01*
X414496Y867644D01*
X414412D01*
X414313Y867630D01*
X414172Y867616D01*
X414017Y867588D01*
X413848Y867532D01*
X413679Y867475D01*
X413495Y867391D01*
X413481Y867376D01*
X413411Y867348D01*
X413326Y867278D01*
X413213Y867207D01*
X413087Y867094D01*
X412932Y866968D01*
X412790Y866813D01*
X412635Y866643D01*
X411592Y866714D01*
X413058Y871704D01*
X417823D01*
X417598Y870605D01*
D02*
G37*
G36*
X343154Y968248D02*
X277114D01*
Y986386D01*
X343154D01*
Y968248D01*
D02*
G37*
G36*
X591820Y1047750D02*
Y1028700D01*
X495300D01*
Y1009650D01*
X439420D01*
Y1028700D01*
Y1047750D01*
Y1069426D01*
X591820D01*
Y1047750D01*
D02*
G37*
G36*
X343355Y859085D02*
X277315D01*
Y882707D01*
X343355D01*
Y859085D01*
D02*
G37*
G36*
X422574Y862076D02*
X421164D01*
X419303Y871831D01*
X420558D01*
X421686Y866009D01*
Y865995D01*
X421700Y865939D01*
X421714Y865854D01*
X421728Y865741D01*
X421756Y865614D01*
X421784Y865459D01*
X421813Y865290D01*
X421855Y865093D01*
X421911Y864698D01*
X421982Y864261D01*
X422038Y863852D01*
X422066Y863641D01*
X422094Y863457D01*
X422109Y863472D01*
X422123Y863514D01*
X422151Y863570D01*
X422193Y863669D01*
X422250Y863768D01*
X422306Y863895D01*
X422461Y864176D01*
X422616Y864487D01*
X422785Y864811D01*
X422954Y865135D01*
X423110Y865431D01*
X426577Y871831D01*
X427931D01*
X422574Y862076D01*
D02*
G37*
%LPC*%
G36*
X557277Y1043451D02*
X557136D01*
X556882Y1043437D01*
X556642Y1043408D01*
X556403Y1043352D01*
X556191Y1043296D01*
X555994Y1043211D01*
X555811Y1043127D01*
X555656Y1043042D01*
X555500Y1042943D01*
X555373Y1042844D01*
X555247Y1042760D01*
X555148Y1042675D01*
X555078Y1042591D01*
X555007Y1042534D01*
X554965Y1042478D01*
X554936Y1042450D01*
X554922Y1042436D01*
X554753Y1042196D01*
X554612Y1041914D01*
X554485Y1041618D01*
X554373Y1041308D01*
X554288Y1040984D01*
X554203Y1040645D01*
X554147Y1040321D01*
X554091Y1039997D01*
X554062Y1039687D01*
X554034Y1039405D01*
X554006Y1039137D01*
X553992Y1038912D01*
X553978Y1038728D01*
Y1038587D01*
Y1038531D01*
Y1038489D01*
Y1038475D01*
Y1038460D01*
X553992Y1037953D01*
X554020Y1037488D01*
X554062Y1037051D01*
X554119Y1036656D01*
X554175Y1036303D01*
X554246Y1035979D01*
X554330Y1035697D01*
X554415Y1035444D01*
X554485Y1035232D01*
X554570Y1035035D01*
X554641Y1034880D01*
X554711Y1034753D01*
X554753Y1034668D01*
X554796Y1034598D01*
X554824Y1034556D01*
X554838Y1034541D01*
X555007Y1034344D01*
X555190Y1034189D01*
X555373Y1034034D01*
X555571Y1033921D01*
X555754Y1033808D01*
X555951Y1033724D01*
X556135Y1033653D01*
X556318Y1033597D01*
X556487Y1033540D01*
X556642Y1033512D01*
X556783Y1033484D01*
X556896Y1033470D01*
X556995D01*
X557079Y1033456D01*
X557136D01*
X557389Y1033470D01*
X557629Y1033498D01*
X557869Y1033555D01*
X558080Y1033611D01*
X558278Y1033681D01*
X558461Y1033766D01*
X558616Y1033865D01*
X558771Y1033963D01*
X558898Y1034048D01*
X559025Y1034147D01*
X559123Y1034231D01*
X559208Y1034302D01*
X559264Y1034358D01*
X559307Y1034415D01*
X559335Y1034443D01*
X559349Y1034457D01*
X559518Y1034697D01*
X559659Y1034978D01*
X559800Y1035274D01*
X559899Y1035599D01*
X559997Y1035923D01*
X560068Y1036247D01*
X560138Y1036585D01*
X560195Y1036910D01*
X560223Y1037220D01*
X560251Y1037502D01*
X560279Y1037770D01*
X560293Y1037995D01*
X560308Y1038178D01*
Y1038319D01*
Y1038376D01*
Y1038418D01*
Y1038432D01*
Y1038446D01*
X560293Y1038954D01*
X560265Y1039419D01*
X560223Y1039842D01*
X560152Y1040237D01*
X560082Y1040603D01*
X560011Y1040927D01*
X559913Y1041223D01*
X559828Y1041477D01*
X559744Y1041717D01*
X559659Y1041900D01*
X559574Y1042069D01*
X559504Y1042210D01*
X559434Y1042309D01*
X559391Y1042379D01*
X559363Y1042422D01*
X559349Y1042436D01*
X559194Y1042619D01*
X559025Y1042774D01*
X558841Y1042901D01*
X558658Y1043028D01*
X558475Y1043127D01*
X558292Y1043197D01*
X558122Y1043267D01*
X557939Y1043324D01*
X557770Y1043366D01*
X557629Y1043394D01*
X557488Y1043422D01*
X557375Y1043437D01*
X557277Y1043451D01*
D02*
G37*
G36*
X455589Y1024450D02*
X451191D01*
Y1014695D01*
X453164D01*
Y1018769D01*
X453799D01*
X453996Y1018755D01*
X454165Y1018741D01*
X454306Y1018713D01*
X454419Y1018699D01*
X454489Y1018670D01*
X454532Y1018656D01*
X454546D01*
X454659Y1018600D01*
X454771Y1018543D01*
X454870Y1018473D01*
X454969Y1018417D01*
X455039Y1018346D01*
X455096Y1018290D01*
X455124Y1018261D01*
X455138Y1018247D01*
X455194Y1018177D01*
X455265Y1018106D01*
X455420Y1017895D01*
X455589Y1017669D01*
X455772Y1017416D01*
X455927Y1017190D01*
X455998Y1017077D01*
X456054Y1016993D01*
X456111Y1016922D01*
X456153Y1016866D01*
X456167Y1016824D01*
X456181Y1016809D01*
X457591Y1014695D01*
X459959D01*
X458761Y1016598D01*
X458634Y1016795D01*
X458507Y1016993D01*
X458394Y1017162D01*
X458282Y1017317D01*
X458183Y1017458D01*
X458098Y1017599D01*
X457929Y1017810D01*
X457802Y1017980D01*
X457718Y1018092D01*
X457647Y1018163D01*
X457633Y1018177D01*
X457478Y1018346D01*
X457295Y1018501D01*
X457126Y1018628D01*
X456956Y1018755D01*
X456815Y1018854D01*
X456703Y1018924D01*
X456618Y1018980D01*
X456604Y1018995D01*
X456590D01*
X456829Y1019037D01*
X457041Y1019093D01*
X457238Y1019150D01*
X457436Y1019220D01*
X457605Y1019290D01*
X457760Y1019361D01*
X457915Y1019432D01*
X458042Y1019516D01*
X458155Y1019587D01*
X458253Y1019657D01*
X458338Y1019728D01*
X458394Y1019784D01*
X458451Y1019826D01*
X458493Y1019868D01*
X458507Y1019883D01*
X458521Y1019897D01*
X458634Y1020038D01*
X458733Y1020179D01*
X458902Y1020489D01*
X459015Y1020785D01*
X459085Y1021081D01*
X459141Y1021335D01*
X459156Y1021433D01*
Y1021532D01*
X459170Y1021602D01*
Y1021673D01*
Y1021701D01*
Y1021715D01*
X459156Y1022025D01*
X459099Y1022321D01*
X459029Y1022575D01*
X458958Y1022801D01*
X458874Y1022984D01*
X458803Y1023125D01*
X458775Y1023167D01*
X458747Y1023210D01*
X458733Y1023224D01*
Y1023238D01*
X458563Y1023477D01*
X458380Y1023675D01*
X458197Y1023830D01*
X458014Y1023971D01*
X457845Y1024055D01*
X457718Y1024126D01*
X457633Y1024168D01*
X457619Y1024182D01*
X457605D01*
X457464Y1024224D01*
X457309Y1024267D01*
X456956Y1024337D01*
X456576Y1024380D01*
X456209Y1024422D01*
X456026D01*
X455871Y1024436D01*
X455716D01*
X455589Y1024450D01*
D02*
G37*
G36*
X478398Y1021772D02*
X476523D01*
Y1019897D01*
X478398D01*
Y1021772D01*
D02*
G37*
G36*
X475015D02*
X473097D01*
X471744Y1018149D01*
X471660Y1017937D01*
X471603Y1017740D01*
X471575Y1017669D01*
X471561Y1017613D01*
X471547Y1017571D01*
Y1017557D01*
X471533Y1017486D01*
X471505Y1017402D01*
X471434Y1017190D01*
X471406Y1017105D01*
X471378Y1017021D01*
X471363Y1016964D01*
X471349Y1016950D01*
X470969Y1018149D01*
X469630Y1021772D01*
X467670D01*
X470518Y1014695D01*
X472209D01*
X475015Y1021772D01*
D02*
G37*
G36*
X478398Y1016570D02*
X476523D01*
Y1014695D01*
X478398D01*
Y1016570D01*
D02*
G37*
G36*
X463850Y1021927D02*
X463695D01*
X463441Y1021913D01*
X463201Y1021884D01*
X462962Y1021828D01*
X462750Y1021772D01*
X462539Y1021701D01*
X462356Y1021617D01*
X462172Y1021518D01*
X462017Y1021433D01*
X461876Y1021335D01*
X461749Y1021236D01*
X461637Y1021151D01*
X461552Y1021081D01*
X461482Y1021024D01*
X461425Y1020968D01*
X461397Y1020940D01*
X461383Y1020926D01*
X461228Y1020728D01*
X461087Y1020517D01*
X460960Y1020305D01*
X460847Y1020080D01*
X460763Y1019840D01*
X460692Y1019615D01*
X460579Y1019178D01*
X460537Y1018966D01*
X460509Y1018783D01*
X460495Y1018614D01*
X460481Y1018473D01*
X460467Y1018346D01*
Y1018247D01*
Y1018191D01*
Y1018177D01*
X460481Y1017909D01*
X460495Y1017641D01*
X460537Y1017402D01*
X460579Y1017176D01*
X460622Y1016950D01*
X460692Y1016753D01*
X460748Y1016570D01*
X460819Y1016401D01*
X460875Y1016246D01*
X460946Y1016119D01*
X461002Y1016006D01*
X461045Y1015907D01*
X461101Y1015837D01*
X461129Y1015780D01*
X461143Y1015752D01*
X461157Y1015738D01*
X461341Y1015527D01*
X461524Y1015343D01*
X461735Y1015188D01*
X461961Y1015047D01*
X462186Y1014935D01*
X462412Y1014836D01*
X462637Y1014751D01*
X462863Y1014695D01*
X463060Y1014639D01*
X463258Y1014610D01*
X463441Y1014582D01*
X463596Y1014554D01*
X463723D01*
X463808Y1014540D01*
X463892D01*
X464301Y1014568D01*
X464682Y1014624D01*
X465006Y1014709D01*
X465288Y1014808D01*
X465415Y1014864D01*
X465513Y1014906D01*
X465612Y1014949D01*
X465682Y1014991D01*
X465739Y1015033D01*
X465795Y1015047D01*
X465809Y1015076D01*
X465823D01*
X466091Y1015301D01*
X466331Y1015541D01*
X466528Y1015809D01*
X466683Y1016062D01*
X466810Y1016288D01*
X466852Y1016387D01*
X466895Y1016471D01*
X466923Y1016542D01*
X466951Y1016598D01*
X466965Y1016626D01*
Y1016640D01*
X465104Y1016950D01*
X465034Y1016767D01*
X464963Y1016598D01*
X464893Y1016471D01*
X464808Y1016358D01*
X464752Y1016274D01*
X464696Y1016217D01*
X464653Y1016189D01*
X464639Y1016175D01*
X464526Y1016090D01*
X464400Y1016034D01*
X464273Y1015992D01*
X464160Y1015964D01*
X464061Y1015950D01*
X463977Y1015936D01*
X463906D01*
X463681Y1015950D01*
X463469Y1016006D01*
X463272Y1016076D01*
X463117Y1016161D01*
X462990Y1016246D01*
X462905Y1016316D01*
X462835Y1016373D01*
X462821Y1016387D01*
X462680Y1016570D01*
X462581Y1016781D01*
X462496Y1017007D01*
X462440Y1017204D01*
X462412Y1017402D01*
X462398Y1017542D01*
X462384Y1017599D01*
Y1017641D01*
Y1017669D01*
Y1017683D01*
X467064D01*
Y1018078D01*
X467036Y1018431D01*
X466993Y1018769D01*
X466937Y1019079D01*
X466867Y1019375D01*
X466796Y1019629D01*
X466712Y1019868D01*
X466627Y1020080D01*
X466542Y1020263D01*
X466458Y1020432D01*
X466387Y1020559D01*
X466317Y1020672D01*
X466260Y1020757D01*
X466218Y1020827D01*
X466190Y1020855D01*
X466176Y1020869D01*
X466007Y1021053D01*
X465809Y1021222D01*
X465612Y1021363D01*
X465415Y1021476D01*
X465203Y1021588D01*
X464992Y1021673D01*
X464794Y1021743D01*
X464597Y1021800D01*
X464414Y1021842D01*
X464245Y1021870D01*
X464090Y1021898D01*
X463963Y1021913D01*
X463850Y1021927D01*
D02*
G37*
G36*
X541291Y1043564D02*
X539881D01*
X537470Y1033470D01*
X538852D01*
X541291Y1043564D01*
D02*
G37*
G36*
X509431Y1043394D02*
X507331D01*
X504949Y1036177D01*
X502467Y1043394D01*
X500339D01*
X503835Y1033639D01*
X505964D01*
X509431Y1043394D01*
D02*
G37*
G36*
X468945D02*
X466971D01*
Y1037981D01*
Y1037770D01*
Y1037572D01*
X466957Y1037389D01*
Y1037220D01*
X466943Y1037079D01*
Y1036938D01*
X466929Y1036811D01*
Y1036698D01*
X466901Y1036529D01*
X466887Y1036402D01*
X466873Y1036332D01*
Y1036303D01*
X466830Y1036120D01*
X466760Y1035965D01*
X466675Y1035824D01*
X466591Y1035697D01*
X466506Y1035599D01*
X466436Y1035528D01*
X466379Y1035486D01*
X466365Y1035472D01*
X466196Y1035359D01*
X465984Y1035274D01*
X465787Y1035218D01*
X465576Y1035176D01*
X465392Y1035148D01*
X465251Y1035134D01*
X465110D01*
X464814Y1035148D01*
X464561Y1035190D01*
X464335Y1035246D01*
X464138Y1035317D01*
X463997Y1035373D01*
X463884Y1035430D01*
X463828Y1035472D01*
X463799Y1035486D01*
X463644Y1035627D01*
X463517Y1035796D01*
X463405Y1035951D01*
X463334Y1036106D01*
X463278Y1036247D01*
X463236Y1036360D01*
X463207Y1036430D01*
Y1036459D01*
X463193Y1036543D01*
X463179Y1036628D01*
Y1036740D01*
X463165Y1036867D01*
X463151Y1037135D01*
Y1037417D01*
X463137Y1037671D01*
Y1037784D01*
Y1037896D01*
Y1037981D01*
Y1038037D01*
Y1038080D01*
Y1038094D01*
Y1043394D01*
X461163D01*
Y1038178D01*
Y1037882D01*
X461177Y1037600D01*
Y1037333D01*
X461191Y1037093D01*
X461206Y1036867D01*
X461220Y1036670D01*
X461234Y1036487D01*
X461262Y1036318D01*
X461276Y1036177D01*
X461290Y1036050D01*
X461304Y1035937D01*
X461318Y1035852D01*
X461333Y1035782D01*
Y1035740D01*
X461347Y1035711D01*
Y1035697D01*
X461417Y1035486D01*
X461488Y1035288D01*
X461586Y1035105D01*
X461671Y1034950D01*
X461755Y1034809D01*
X461826Y1034697D01*
X461882Y1034640D01*
X461896Y1034612D01*
X462066Y1034429D01*
X462249Y1034259D01*
X462446Y1034118D01*
X462629Y1033992D01*
X462784Y1033893D01*
X462925Y1033822D01*
X463010Y1033780D01*
X463024Y1033766D01*
X463038D01*
X463179Y1033710D01*
X463334Y1033667D01*
X463687Y1033583D01*
X464039Y1033526D01*
X464377Y1033498D01*
X464533Y1033484D01*
X464688Y1033470D01*
X464814D01*
X464941Y1033456D01*
X465167D01*
X465576Y1033470D01*
X465942Y1033498D01*
X466266Y1033555D01*
X466534Y1033611D01*
X466647Y1033625D01*
X466760Y1033653D01*
X466844Y1033681D01*
X466915Y1033710D01*
X466971Y1033724D01*
X467014Y1033738D01*
X467028Y1033752D01*
X467042D01*
X467295Y1033865D01*
X467521Y1034006D01*
X467718Y1034133D01*
X467888Y1034259D01*
X468014Y1034372D01*
X468113Y1034457D01*
X468170Y1034513D01*
X468184Y1034541D01*
X468339Y1034739D01*
X468465Y1034950D01*
X468564Y1035148D01*
X468649Y1035345D01*
X468705Y1035514D01*
X468747Y1035655D01*
X468762Y1035697D01*
Y1035740D01*
X468776Y1035754D01*
Y1035768D01*
X468804Y1035923D01*
X468832Y1036092D01*
X468860Y1036275D01*
X468874Y1036459D01*
X468903Y1036881D01*
X468931Y1037290D01*
Y1037474D01*
Y1037657D01*
X468945Y1037826D01*
Y1037967D01*
Y1038080D01*
Y1038178D01*
Y1038235D01*
Y1038249D01*
Y1043394D01*
D02*
G37*
G36*
X570077D02*
X567976D01*
X565594Y1036177D01*
X563113Y1043394D01*
X560984D01*
X564480Y1033639D01*
X566609D01*
X570077Y1043394D01*
D02*
G37*
G36*
X545717Y1038122D02*
X542038D01*
Y1036247D01*
X545717D01*
Y1038122D01*
D02*
G37*
G36*
X517664D02*
X513985D01*
Y1036247D01*
X517664D01*
Y1038122D01*
D02*
G37*
G36*
X551173Y1043451D02*
X549650D01*
X549509Y1043127D01*
X549326Y1042830D01*
X549129Y1042549D01*
X548931Y1042323D01*
X548762Y1042140D01*
X548607Y1041999D01*
X548551Y1041942D01*
X548508Y1041900D01*
X548480Y1041886D01*
X548466Y1041872D01*
X548156Y1041646D01*
X547860Y1041449D01*
X547592Y1041294D01*
X547352Y1041181D01*
X547155Y1041096D01*
X547014Y1041026D01*
X546958Y1041012D01*
X546915Y1040998D01*
X546901Y1040984D01*
X546887D01*
Y1039292D01*
X547395Y1039489D01*
X547846Y1039701D01*
X548057Y1039814D01*
X548255Y1039940D01*
X548438Y1040053D01*
X548607Y1040166D01*
X548762Y1040279D01*
X548903Y1040378D01*
X549016Y1040462D01*
X549114Y1040547D01*
X549199Y1040617D01*
X549255Y1040659D01*
X549284Y1040688D01*
X549298Y1040702D01*
Y1033639D01*
X551173D01*
Y1043451D01*
D02*
G37*
G36*
X484409Y1043394D02*
X480124D01*
Y1033639D01*
X484353D01*
X484593Y1033653D01*
X485015D01*
X485185Y1033667D01*
X485452D01*
X485551Y1033681D01*
X485692D01*
X485748Y1033696D01*
X485805D01*
X486087Y1033738D01*
X486340Y1033808D01*
X486566Y1033879D01*
X486763Y1033963D01*
X486918Y1034034D01*
X487031Y1034104D01*
X487102Y1034147D01*
X487130Y1034161D01*
X487327Y1034316D01*
X487482Y1034485D01*
X487637Y1034640D01*
X487750Y1034809D01*
X487849Y1034950D01*
X487919Y1035063D01*
X487962Y1035134D01*
X487976Y1035162D01*
X488074Y1035401D01*
X488159Y1035627D01*
X488215Y1035852D01*
X488244Y1036050D01*
X488272Y1036219D01*
X488286Y1036346D01*
Y1036430D01*
Y1036444D01*
Y1036459D01*
X488272Y1036769D01*
X488215Y1037051D01*
X488131Y1037290D01*
X488046Y1037516D01*
X487962Y1037685D01*
X487877Y1037812D01*
X487821Y1037896D01*
X487807Y1037925D01*
X487609Y1038150D01*
X487398Y1038334D01*
X487158Y1038489D01*
X486947Y1038601D01*
X486749Y1038700D01*
X486580Y1038771D01*
X486524Y1038785D01*
X486482Y1038799D01*
X486453Y1038813D01*
X486439D01*
X486665Y1038940D01*
X486862Y1039066D01*
X487031Y1039222D01*
X487172Y1039349D01*
X487271Y1039475D01*
X487355Y1039574D01*
X487412Y1039644D01*
X487426Y1039673D01*
X487553Y1039898D01*
X487652Y1040110D01*
X487708Y1040321D01*
X487764Y1040518D01*
X487793Y1040688D01*
X487807Y1040815D01*
Y1040899D01*
Y1040913D01*
Y1040927D01*
X487793Y1041153D01*
X487764Y1041378D01*
X487708Y1041562D01*
X487652Y1041731D01*
X487595Y1041872D01*
X487539Y1041985D01*
X487511Y1042041D01*
X487496Y1042069D01*
X487384Y1042252D01*
X487257Y1042408D01*
X487130Y1042549D01*
X487017Y1042675D01*
X486904Y1042760D01*
X486820Y1042830D01*
X486763Y1042873D01*
X486749Y1042887D01*
X486580Y1043000D01*
X486397Y1043084D01*
X486228Y1043155D01*
X486073Y1043211D01*
X485932Y1043253D01*
X485833Y1043281D01*
X485763Y1043296D01*
X485734D01*
X485495Y1043324D01*
X485227Y1043352D01*
X484945Y1043366D01*
X484663Y1043380D01*
X484409Y1043394D01*
D02*
G37*
G36*
X518397Y1042154D02*
Y1040279D01*
X523063Y1038460D01*
X518397Y1036628D01*
Y1034739D01*
X525093Y1037657D01*
Y1039250D01*
X518397Y1042154D01*
D02*
G37*
G36*
X534341Y1041844D02*
X532635D01*
Y1039320D01*
X530084D01*
Y1037572D01*
X532635D01*
Y1035049D01*
X534341D01*
Y1037572D01*
X536907D01*
Y1039320D01*
X534341D01*
Y1041844D01*
D02*
G37*
G36*
X499493Y1043267D02*
X494545D01*
X493586Y1038178D01*
X495095Y1037967D01*
X495222Y1038094D01*
X495349Y1038207D01*
X495475Y1038305D01*
X495602Y1038390D01*
X495842Y1038517D01*
X496068Y1038601D01*
X496265Y1038644D01*
X496406Y1038672D01*
X496462Y1038686D01*
X496547D01*
X496772Y1038672D01*
X496984Y1038615D01*
X497167Y1038545D01*
X497322Y1038460D01*
X497435Y1038362D01*
X497533Y1038291D01*
X497590Y1038235D01*
X497604Y1038221D01*
X497745Y1038037D01*
X497844Y1037826D01*
X497914Y1037600D01*
X497957Y1037375D01*
X497999Y1037178D01*
X498013Y1037022D01*
Y1036952D01*
Y1036910D01*
Y1036881D01*
Y1036867D01*
X497999Y1036529D01*
X497957Y1036233D01*
X497886Y1035993D01*
X497816Y1035796D01*
X497731Y1035627D01*
X497674Y1035514D01*
X497618Y1035458D01*
X497604Y1035430D01*
X497449Y1035274D01*
X497280Y1035148D01*
X497111Y1035063D01*
X496956Y1035007D01*
X496815Y1034978D01*
X496702Y1034964D01*
X496631Y1034950D01*
X496603D01*
X496420Y1034964D01*
X496237Y1035007D01*
X496082Y1035063D01*
X495955Y1035134D01*
X495842Y1035204D01*
X495757Y1035260D01*
X495701Y1035303D01*
X495687Y1035317D01*
X495560Y1035472D01*
X495447Y1035627D01*
X495363Y1035796D01*
X495306Y1035951D01*
X495264Y1036092D01*
X495236Y1036219D01*
X495222Y1036289D01*
Y1036318D01*
X493361Y1036120D01*
X493403Y1035895D01*
X493445Y1035683D01*
X493586Y1035303D01*
X493741Y1034964D01*
X493826Y1034823D01*
X493925Y1034682D01*
X494009Y1034570D01*
X494080Y1034471D01*
X494164Y1034386D01*
X494221Y1034302D01*
X494277Y1034245D01*
X494319Y1034203D01*
X494348Y1034189D01*
X494362Y1034175D01*
X494531Y1034048D01*
X494700Y1033935D01*
X494883Y1033837D01*
X495067Y1033766D01*
X495447Y1033625D01*
X495785Y1033540D01*
X495955Y1033512D01*
X496096Y1033498D01*
X496237Y1033484D01*
X496349Y1033470D01*
X496448Y1033456D01*
X496575D01*
X496885Y1033470D01*
X497181Y1033512D01*
X497449Y1033569D01*
X497703Y1033653D01*
X497942Y1033752D01*
X498154Y1033865D01*
X498351Y1033978D01*
X498534Y1034104D01*
X498689Y1034217D01*
X498830Y1034330D01*
X498957Y1034443D01*
X499056Y1034541D01*
X499127Y1034626D01*
X499183Y1034682D01*
X499211Y1034725D01*
X499225Y1034739D01*
X499352Y1034922D01*
X499465Y1035105D01*
X499549Y1035288D01*
X499634Y1035486D01*
X499761Y1035852D01*
X499846Y1036191D01*
X499874Y1036332D01*
X499888Y1036473D01*
X499916Y1036600D01*
Y1036712D01*
X499930Y1036797D01*
Y1036853D01*
Y1036896D01*
Y1036910D01*
X499916Y1037178D01*
X499888Y1037431D01*
X499846Y1037671D01*
X499789Y1037896D01*
X499733Y1038094D01*
X499648Y1038291D01*
X499578Y1038475D01*
X499493Y1038630D01*
X499408Y1038771D01*
X499338Y1038897D01*
X499253Y1039010D01*
X499197Y1039095D01*
X499141Y1039165D01*
X499098Y1039222D01*
X499070Y1039250D01*
X499056Y1039264D01*
X498887Y1039419D01*
X498718Y1039560D01*
X498534Y1039687D01*
X498351Y1039800D01*
X498182Y1039884D01*
X497999Y1039955D01*
X497674Y1040067D01*
X497519Y1040110D01*
X497379Y1040138D01*
X497252Y1040152D01*
X497153Y1040166D01*
X497068Y1040180D01*
X496941D01*
X496702Y1040166D01*
X496462Y1040124D01*
X496251Y1040081D01*
X496053Y1040025D01*
X495898Y1039955D01*
X495771Y1039912D01*
X495687Y1039870D01*
X495673Y1039856D01*
X495659D01*
X495955Y1041519D01*
X499493D01*
Y1043267D01*
D02*
G37*
G36*
X847173Y1032061D02*
X845072D01*
X842690Y1024843D01*
X840209Y1032061D01*
X838080D01*
X841576Y1022306D01*
X843705D01*
X847173Y1032061D01*
D02*
G37*
G36*
X471224Y794097D02*
X471210D01*
X470618Y792180D01*
X470999Y792067D01*
X471323Y791940D01*
X471591Y791813D01*
X471816Y791672D01*
X471986Y791560D01*
X472098Y791461D01*
X472169Y791390D01*
X472197Y791362D01*
X472366Y791137D01*
X472479Y790911D01*
X472564Y790686D01*
X472634Y790488D01*
X472662Y790305D01*
X472676Y790150D01*
X472690Y790094D01*
Y790051D01*
Y790037D01*
Y790023D01*
X472676Y789826D01*
X472662Y789642D01*
X472564Y789304D01*
X472451Y789008D01*
X472296Y788768D01*
X472155Y788571D01*
X472042Y788430D01*
X471986Y788374D01*
X471943Y788331D01*
X471929Y788317D01*
X471915Y788303D01*
X471760Y788190D01*
X471577Y788092D01*
X471379Y787993D01*
X471168Y787923D01*
X470731Y787810D01*
X470294Y787725D01*
X470083Y787697D01*
X469899Y787683D01*
X469716Y787655D01*
X469561D01*
X469448Y787641D01*
X469265D01*
X468941Y787655D01*
X468645Y787669D01*
X468377Y787697D01*
X468123Y787739D01*
X467897Y787796D01*
X467686Y787852D01*
X467503Y787908D01*
X467334Y787979D01*
X467193Y788035D01*
X467066Y788092D01*
X466967Y788148D01*
X466883Y788204D01*
X466812Y788247D01*
X466770Y788275D01*
X466741Y788303D01*
X466727D01*
X466586Y788430D01*
X466460Y788571D01*
X466361Y788712D01*
X466276Y788867D01*
X466135Y789163D01*
X466037Y789445D01*
X465980Y789685D01*
X465966Y789798D01*
X465952Y789882D01*
X465938Y789967D01*
Y790023D01*
Y790051D01*
Y790065D01*
X465952Y790347D01*
X466008Y790601D01*
X466079Y790826D01*
X466163Y791024D01*
X466248Y791179D01*
X466319Y791292D01*
X466375Y791362D01*
X466389Y791390D01*
X466558Y791574D01*
X466756Y791743D01*
X466953Y791870D01*
X467150Y791968D01*
X467319Y792039D01*
X467446Y792081D01*
X467503Y792109D01*
X467545D01*
X467559Y792123D01*
X467573D01*
X467108Y794069D01*
X466699Y793928D01*
X466347Y793773D01*
X466037Y793604D01*
X465783Y793449D01*
X465586Y793294D01*
X465501Y793237D01*
X465430Y793181D01*
X465388Y793138D01*
X465346Y793096D01*
X465318Y793082D01*
Y793068D01*
X465135Y792857D01*
X464965Y792617D01*
X464824Y792391D01*
X464711Y792152D01*
X464599Y791898D01*
X464514Y791658D01*
X464444Y791419D01*
X464387Y791193D01*
X464345Y790982D01*
X464317Y790784D01*
X464289Y790615D01*
X464274Y790460D01*
X464260Y790333D01*
Y790249D01*
Y790178D01*
Y790164D01*
X464274Y789798D01*
X464317Y789431D01*
X464387Y789107D01*
X464472Y788783D01*
X464571Y788501D01*
X464683Y788219D01*
X464810Y787979D01*
X464937Y787753D01*
X465064Y787542D01*
X465191Y787373D01*
X465304Y787218D01*
X465402Y787091D01*
X465487Y786992D01*
X465557Y786922D01*
X465600Y786879D01*
X465614Y786865D01*
X465882Y786640D01*
X466163Y786457D01*
X466460Y786287D01*
X466770Y786146D01*
X467094Y786020D01*
X467404Y785921D01*
X467714Y785836D01*
X468010Y785766D01*
X468306Y785709D01*
X468560Y785681D01*
X468800Y785653D01*
X468997Y785625D01*
X469166D01*
X469293Y785611D01*
X469406D01*
X469829Y785625D01*
X470224Y785667D01*
X470604Y785723D01*
X470942Y785808D01*
X471267Y785893D01*
X471577Y786005D01*
X471845Y786118D01*
X472084Y786231D01*
X472310Y786344D01*
X472507Y786457D01*
X472662Y786569D01*
X472803Y786654D01*
X472902Y786738D01*
X472986Y786795D01*
X473029Y786837D01*
X473043Y786851D01*
X473283Y787091D01*
X473480Y787345D01*
X473663Y787612D01*
X473804Y787880D01*
X473931Y788148D01*
X474044Y788416D01*
X474128Y788670D01*
X474199Y788909D01*
X474255Y789149D01*
X474297Y789360D01*
X474326Y789558D01*
X474340Y789713D01*
X474354Y789854D01*
X474368Y789952D01*
Y790009D01*
Y790037D01*
X474354Y790333D01*
X474340Y790601D01*
X474297Y790869D01*
X474241Y791108D01*
X474185Y791334D01*
X474128Y791545D01*
X474058Y791743D01*
X473973Y791926D01*
X473903Y792081D01*
X473832Y792222D01*
X473776Y792349D01*
X473719Y792448D01*
X473663Y792532D01*
X473621Y792589D01*
X473607Y792617D01*
X473593Y792631D01*
X473438Y792814D01*
X473268Y792983D01*
X472888Y793294D01*
X472493Y793547D01*
X472113Y793745D01*
X471929Y793829D01*
X471760Y793900D01*
X471605Y793956D01*
X471478Y794013D01*
X471365Y794055D01*
X471281Y794083D01*
X471224Y794097D01*
D02*
G37*
G36*
X300002Y875773D02*
X298183D01*
Y869204D01*
X294152Y875773D01*
X292248D01*
Y866018D01*
X294067D01*
Y872447D01*
X298028Y866018D01*
X300002D01*
Y875773D01*
D02*
G37*
G36*
X469434Y813184D02*
X469335D01*
X468898Y813170D01*
X468489Y813128D01*
X468109Y813072D01*
X467742Y812987D01*
X467418Y812888D01*
X467108Y812776D01*
X466826Y812663D01*
X466586Y812536D01*
X466361Y812409D01*
X466163Y812296D01*
X465994Y812184D01*
X465853Y812085D01*
X465755Y812014D01*
X465670Y811944D01*
X465628Y811902D01*
X465614Y811888D01*
X465374Y811634D01*
X465163Y811366D01*
X464979Y811084D01*
X464824Y810802D01*
X464697Y810506D01*
X464585Y810224D01*
X464500Y809942D01*
X464430Y809674D01*
X464373Y809420D01*
X464331Y809181D01*
X464303Y808969D01*
X464274Y808786D01*
Y808645D01*
X464260Y808532D01*
Y808462D01*
Y808434D01*
X464274Y808011D01*
X464317Y807602D01*
X464387Y807250D01*
X464458Y806939D01*
X464500Y806813D01*
X464528Y806686D01*
X464557Y806587D01*
X464599Y806502D01*
X464613Y806432D01*
X464641Y806376D01*
X464655Y806347D01*
Y806333D01*
X464768Y806079D01*
X464909Y805840D01*
X465064Y805628D01*
X465205Y805445D01*
X465332Y805290D01*
X465445Y805163D01*
X465515Y805093D01*
X465529Y805079D01*
X465543Y805064D01*
X465769Y804867D01*
X466008Y804684D01*
X466220Y804529D01*
X466431Y804402D01*
X466615Y804303D01*
X466756Y804219D01*
X466812Y804205D01*
X466854Y804176D01*
X466868Y804162D01*
X466883D01*
X467277Y804021D01*
X467700Y803909D01*
X468123Y803838D01*
X468518Y803782D01*
X468701Y803768D01*
X468870Y803754D01*
X469011Y803739D01*
X469138D01*
X469251Y803725D01*
X469392D01*
X469815Y803739D01*
X470224Y803782D01*
X470604Y803838D01*
X470956Y803923D01*
X471281Y804021D01*
X471577Y804134D01*
X471859Y804247D01*
X472098Y804374D01*
X472324Y804486D01*
X472507Y804599D01*
X472676Y804712D01*
X472817Y804811D01*
X472916Y804895D01*
X473001Y804952D01*
X473043Y804994D01*
X473057Y805008D01*
X473297Y805262D01*
X473494Y805530D01*
X473677Y805798D01*
X473818Y806094D01*
X473945Y806376D01*
X474058Y806672D01*
X474142Y806939D01*
X474213Y807221D01*
X474269Y807475D01*
X474312Y807715D01*
X474340Y807926D01*
X474354Y808110D01*
X474368Y808250D01*
X474382Y808363D01*
Y808434D01*
Y808462D01*
X474368Y808857D01*
X474326Y809223D01*
X474255Y809576D01*
X474171Y809900D01*
X474072Y810210D01*
X473959Y810492D01*
X473846Y810746D01*
X473719Y810985D01*
X473593Y811183D01*
X473480Y811366D01*
X473367Y811521D01*
X473268Y811648D01*
X473184Y811761D01*
X473113Y811831D01*
X473071Y811873D01*
X473057Y811888D01*
X472789Y812113D01*
X472507Y812310D01*
X472211Y812494D01*
X471915Y812635D01*
X471605Y812762D01*
X471295Y812874D01*
X470985Y812959D01*
X470689Y813029D01*
X470421Y813072D01*
X470153Y813114D01*
X469927Y813142D01*
X469730Y813170D01*
X469561D01*
X469434Y813184D01*
D02*
G37*
G36*
X474199Y802724D02*
X472550D01*
Y797819D01*
X464514D01*
Y795845D01*
X474199D01*
Y802724D01*
D02*
G37*
G36*
X337331Y875773D02*
X330099D01*
Y866018D01*
X337514D01*
Y867668D01*
X332072D01*
Y870318D01*
X336964D01*
Y871967D01*
X332072D01*
Y874124D01*
X337331D01*
Y875773D01*
D02*
G37*
G36*
X306952D02*
X304865D01*
X301087Y866018D01*
X303174D01*
X303977Y868232D01*
X307896D01*
X308742Y866018D01*
X310871D01*
X306952Y875773D01*
D02*
G37*
G36*
X290388D02*
X283156D01*
Y866018D01*
X290571D01*
Y867668D01*
X285130D01*
Y870318D01*
X290021D01*
Y871967D01*
X285130D01*
Y874124D01*
X290388D01*
Y875773D01*
D02*
G37*
G36*
X323783Y875703D02*
X321810D01*
Y866018D01*
X328689D01*
Y867668D01*
X323783D01*
Y875703D01*
D02*
G37*
G36*
X316213Y875773D02*
X311928D01*
Y866018D01*
X316157D01*
X316397Y866032D01*
X316820D01*
X316989Y866047D01*
X317257D01*
X317355Y866061D01*
X317496D01*
X317553Y866075D01*
X317609D01*
X317891Y866117D01*
X318145Y866188D01*
X318370Y866258D01*
X318568Y866343D01*
X318723Y866413D01*
X318836Y866484D01*
X318906Y866526D01*
X318934Y866540D01*
X319132Y866695D01*
X319287Y866864D01*
X319442Y867019D01*
X319554Y867188D01*
X319653Y867329D01*
X319724Y867442D01*
X319766Y867513D01*
X319780Y867541D01*
X319879Y867781D01*
X319963Y868006D01*
X320020Y868232D01*
X320048Y868429D01*
X320076Y868598D01*
X320090Y868725D01*
Y868810D01*
Y868824D01*
Y868838D01*
X320076Y869148D01*
X320020Y869430D01*
X319935Y869669D01*
X319850Y869895D01*
X319766Y870064D01*
X319681Y870191D01*
X319625Y870276D01*
X319611Y870304D01*
X319413Y870529D01*
X319202Y870713D01*
X318962Y870868D01*
X318751Y870981D01*
X318554Y871079D01*
X318384Y871150D01*
X318328Y871164D01*
X318286Y871178D01*
X318258Y871192D01*
X318243D01*
X318469Y871319D01*
X318666Y871446D01*
X318836Y871601D01*
X318976Y871728D01*
X319075Y871854D01*
X319160Y871953D01*
X319216Y872024D01*
X319230Y872052D01*
X319357Y872278D01*
X319456Y872489D01*
X319512Y872700D01*
X319569Y872898D01*
X319597Y873067D01*
X319611Y873194D01*
Y873278D01*
Y873292D01*
Y873307D01*
X319597Y873532D01*
X319569Y873758D01*
X319512Y873941D01*
X319456Y874110D01*
X319399Y874251D01*
X319343Y874364D01*
X319315Y874420D01*
X319301Y874448D01*
X319188Y874632D01*
X319061Y874787D01*
X318934Y874928D01*
X318821Y875055D01*
X318709Y875139D01*
X318624Y875210D01*
X318568Y875252D01*
X318554Y875266D01*
X318384Y875379D01*
X318201Y875463D01*
X318032Y875534D01*
X317877Y875590D01*
X317736Y875632D01*
X317637Y875661D01*
X317567Y875675D01*
X317539D01*
X317299Y875703D01*
X317031Y875731D01*
X316749Y875745D01*
X316467Y875759D01*
X316213Y875773D01*
D02*
G37*
G36*
X834373Y1032117D02*
X834232D01*
X833978Y1032103D01*
X833738Y1032075D01*
X833499Y1032019D01*
X833287Y1031962D01*
X833090Y1031878D01*
X832907Y1031793D01*
X832752Y1031708D01*
X832597Y1031610D01*
X832470Y1031511D01*
X832343Y1031426D01*
X832244Y1031342D01*
X832174Y1031257D01*
X832103Y1031201D01*
X832061Y1031144D01*
X832033Y1031116D01*
X832019Y1031102D01*
X831850Y1030863D01*
X831709Y1030581D01*
X831582Y1030285D01*
X831469Y1029974D01*
X831384Y1029650D01*
X831300Y1029312D01*
X831243Y1028988D01*
X831187Y1028663D01*
X831159Y1028353D01*
X831131Y1028071D01*
X831102Y1027803D01*
X831088Y1027578D01*
X831074Y1027395D01*
Y1027254D01*
Y1027197D01*
Y1027155D01*
Y1027141D01*
Y1027127D01*
X831088Y1026619D01*
X831116Y1026154D01*
X831159Y1025717D01*
X831215Y1025322D01*
X831272Y1024970D01*
X831342Y1024646D01*
X831427Y1024364D01*
X831511Y1024110D01*
X831582Y1023899D01*
X831666Y1023701D01*
X831737Y1023546D01*
X831807Y1023419D01*
X831850Y1023335D01*
X831892Y1023264D01*
X831920Y1023222D01*
X831934Y1023208D01*
X832103Y1023010D01*
X832287Y1022855D01*
X832470Y1022700D01*
X832667Y1022588D01*
X832850Y1022475D01*
X833048Y1022390D01*
X833231Y1022320D01*
X833414Y1022263D01*
X833583Y1022207D01*
X833738Y1022179D01*
X833879Y1022151D01*
X833992Y1022137D01*
X834091D01*
X834175Y1022122D01*
X834232D01*
X834486Y1022137D01*
X834725Y1022165D01*
X834965Y1022221D01*
X835176Y1022277D01*
X835374Y1022348D01*
X835557Y1022432D01*
X835712Y1022531D01*
X835867Y1022630D01*
X835994Y1022714D01*
X836121Y1022813D01*
X836220Y1022898D01*
X836304Y1022968D01*
X836360Y1023025D01*
X836403Y1023081D01*
X836431Y1023109D01*
X836445Y1023123D01*
X836614Y1023363D01*
X836755Y1023645D01*
X836896Y1023941D01*
X836995Y1024265D01*
X837094Y1024589D01*
X837164Y1024914D01*
X837234Y1025252D01*
X837291Y1025576D01*
X837319Y1025886D01*
X837347Y1026168D01*
X837375Y1026436D01*
X837390Y1026662D01*
X837404Y1026845D01*
Y1026986D01*
Y1027042D01*
Y1027085D01*
Y1027099D01*
Y1027113D01*
X837390Y1027620D01*
X837361Y1028085D01*
X837319Y1028508D01*
X837249Y1028903D01*
X837178Y1029269D01*
X837108Y1029594D01*
X837009Y1029890D01*
X836924Y1030144D01*
X836840Y1030383D01*
X836755Y1030566D01*
X836671Y1030736D01*
X836600Y1030877D01*
X836530Y1030975D01*
X836487Y1031046D01*
X836459Y1031088D01*
X836445Y1031102D01*
X836290Y1031285D01*
X836121Y1031441D01*
X835938Y1031567D01*
X835754Y1031694D01*
X835571Y1031793D01*
X835388Y1031863D01*
X835219Y1031934D01*
X835035Y1031990D01*
X834866Y1032033D01*
X834725Y1032061D01*
X834584Y1032089D01*
X834472Y1032103D01*
X834373Y1032117D01*
D02*
G37*
G36*
X819732Y819651D02*
X816052D01*
Y817777D01*
X819732D01*
Y819651D01*
D02*
G37*
G36*
X819768Y1030510D02*
X818063D01*
Y1027987D01*
X815511D01*
Y1026239D01*
X818063D01*
Y1023715D01*
X819768D01*
Y1026239D01*
X822334D01*
Y1027987D01*
X819768D01*
Y1030510D01*
D02*
G37*
G36*
X828269Y1032117D02*
X826746D01*
X826605Y1031793D01*
X826422Y1031497D01*
X826225Y1031215D01*
X826027Y1030989D01*
X825858Y1030806D01*
X825703Y1030665D01*
X825647Y1030609D01*
X825604Y1030566D01*
X825576Y1030552D01*
X825562Y1030538D01*
X825252Y1030313D01*
X824956Y1030115D01*
X824688Y1029960D01*
X824449Y1029847D01*
X824251Y1029763D01*
X824110Y1029693D01*
X824054Y1029678D01*
X824012Y1029664D01*
X823997Y1029650D01*
X823983D01*
Y1027959D01*
X824491Y1028156D01*
X824942Y1028367D01*
X825153Y1028480D01*
X825351Y1028607D01*
X825534Y1028720D01*
X825703Y1028832D01*
X825858Y1028945D01*
X825999Y1029044D01*
X826112Y1029129D01*
X826211Y1029213D01*
X826295Y1029284D01*
X826352Y1029326D01*
X826380Y1029354D01*
X826394Y1029368D01*
Y1022306D01*
X828269D01*
Y1032117D01*
D02*
G37*
G36*
X844091Y824924D02*
X841991D01*
X839609Y817706D01*
X837128Y824924D01*
X834999D01*
X838495Y815169D01*
X840624D01*
X844091Y824924D01*
D02*
G37*
G36*
X474199Y833385D02*
X468250Y829509D01*
X464444Y833202D01*
Y830552D01*
X468786Y826548D01*
X464444D01*
Y824575D01*
X474199D01*
Y826548D01*
X471253D01*
X469617Y828141D01*
X474199Y830834D01*
Y833385D01*
D02*
G37*
G36*
X471224Y822869D02*
X471210D01*
X470618Y820952D01*
X470999Y820839D01*
X471323Y820712D01*
X471591Y820585D01*
X471816Y820444D01*
X471986Y820332D01*
X472098Y820233D01*
X472169Y820162D01*
X472197Y820134D01*
X472366Y819909D01*
X472479Y819683D01*
X472564Y819457D01*
X472634Y819260D01*
X472662Y819077D01*
X472676Y818922D01*
X472690Y818866D01*
Y818823D01*
Y818809D01*
Y818795D01*
X472676Y818598D01*
X472662Y818414D01*
X472564Y818076D01*
X472451Y817780D01*
X472296Y817540D01*
X472155Y817343D01*
X472042Y817202D01*
X471986Y817146D01*
X471943Y817103D01*
X471929Y817089D01*
X471915Y817075D01*
X471760Y816962D01*
X471577Y816864D01*
X471379Y816765D01*
X471168Y816694D01*
X470731Y816582D01*
X470294Y816497D01*
X470083Y816469D01*
X469899Y816455D01*
X469716Y816427D01*
X469561D01*
X469448Y816413D01*
X469265D01*
X468941Y816427D01*
X468645Y816441D01*
X468377Y816469D01*
X468123Y816511D01*
X467897Y816568D01*
X467686Y816624D01*
X467503Y816680D01*
X467334Y816751D01*
X467193Y816807D01*
X467066Y816864D01*
X466967Y816920D01*
X466883Y816976D01*
X466812Y817019D01*
X466770Y817047D01*
X466741Y817075D01*
X466727D01*
X466586Y817202D01*
X466460Y817343D01*
X466361Y817484D01*
X466276Y817639D01*
X466135Y817935D01*
X466037Y818217D01*
X465980Y818457D01*
X465966Y818569D01*
X465952Y818654D01*
X465938Y818739D01*
Y818795D01*
Y818823D01*
Y818837D01*
X465952Y819119D01*
X466008Y819373D01*
X466079Y819598D01*
X466163Y819796D01*
X466248Y819951D01*
X466319Y820064D01*
X466375Y820134D01*
X466389Y820162D01*
X466558Y820346D01*
X466756Y820515D01*
X466953Y820642D01*
X467150Y820740D01*
X467319Y820811D01*
X467446Y820853D01*
X467503Y820881D01*
X467545D01*
X467559Y820895D01*
X467573D01*
X467108Y822841D01*
X466699Y822700D01*
X466347Y822545D01*
X466037Y822376D01*
X465783Y822221D01*
X465586Y822066D01*
X465501Y822009D01*
X465430Y821953D01*
X465388Y821910D01*
X465346Y821868D01*
X465318Y821854D01*
Y821840D01*
X465135Y821628D01*
X464965Y821389D01*
X464824Y821163D01*
X464711Y820924D01*
X464599Y820670D01*
X464514Y820430D01*
X464444Y820191D01*
X464387Y819965D01*
X464345Y819754D01*
X464317Y819556D01*
X464289Y819387D01*
X464274Y819232D01*
X464260Y819105D01*
Y819020D01*
Y818950D01*
Y818936D01*
X464274Y818569D01*
X464317Y818203D01*
X464387Y817879D01*
X464472Y817554D01*
X464571Y817272D01*
X464683Y816991D01*
X464810Y816751D01*
X464937Y816525D01*
X465064Y816314D01*
X465191Y816145D01*
X465304Y815990D01*
X465402Y815863D01*
X465487Y815764D01*
X465557Y815694D01*
X465600Y815651D01*
X465614Y815637D01*
X465882Y815412D01*
X466163Y815228D01*
X466460Y815059D01*
X466770Y814918D01*
X467094Y814791D01*
X467404Y814693D01*
X467714Y814608D01*
X468010Y814538D01*
X468306Y814481D01*
X468560Y814453D01*
X468800Y814425D01*
X468997Y814397D01*
X469166D01*
X469293Y814383D01*
X469406D01*
X469829Y814397D01*
X470224Y814439D01*
X470604Y814495D01*
X470942Y814580D01*
X471267Y814665D01*
X471577Y814777D01*
X471845Y814890D01*
X472084Y815003D01*
X472310Y815116D01*
X472507Y815228D01*
X472662Y815341D01*
X472803Y815426D01*
X472902Y815510D01*
X472986Y815567D01*
X473029Y815609D01*
X473043Y815623D01*
X473283Y815863D01*
X473480Y816117D01*
X473663Y816384D01*
X473804Y816652D01*
X473931Y816920D01*
X474044Y817188D01*
X474128Y817442D01*
X474199Y817681D01*
X474255Y817921D01*
X474297Y818132D01*
X474326Y818330D01*
X474340Y818485D01*
X474354Y818626D01*
X474368Y818725D01*
Y818781D01*
Y818809D01*
X474354Y819105D01*
X474340Y819373D01*
X474297Y819641D01*
X474241Y819881D01*
X474185Y820106D01*
X474128Y820318D01*
X474058Y820515D01*
X473973Y820698D01*
X473903Y820853D01*
X473832Y820994D01*
X473776Y821121D01*
X473719Y821220D01*
X473663Y821304D01*
X473621Y821361D01*
X473607Y821389D01*
X473593Y821403D01*
X473438Y821586D01*
X473268Y821755D01*
X472888Y822066D01*
X472493Y822319D01*
X472113Y822517D01*
X471929Y822601D01*
X471760Y822672D01*
X471605Y822728D01*
X471478Y822784D01*
X471365Y822827D01*
X471281Y822855D01*
X471224Y822869D01*
D02*
G37*
G36*
X825187Y824980D02*
X823665D01*
X823524Y824656D01*
X823341Y824360D01*
X823143Y824078D01*
X822946Y823852D01*
X822777Y823669D01*
X822622Y823528D01*
X822565Y823472D01*
X822523Y823429D01*
X822495Y823415D01*
X822481Y823401D01*
X822171Y823176D01*
X821875Y822978D01*
X821607Y822823D01*
X821367Y822710D01*
X821170Y822626D01*
X821029Y822555D01*
X820972Y822541D01*
X820930Y822527D01*
X820916Y822513D01*
X820902D01*
Y820822D01*
X821409Y821019D01*
X821861Y821230D01*
X822072Y821343D01*
X822269Y821470D01*
X822453Y821583D01*
X822622Y821695D01*
X822777Y821808D01*
X822918Y821907D01*
X823031Y821992D01*
X823129Y822076D01*
X823214Y822147D01*
X823270Y822189D01*
X823298Y822217D01*
X823313Y822231D01*
Y815169D01*
X825187D01*
Y824980D01*
D02*
G37*
G36*
X831291D02*
X831150D01*
X830897Y824966D01*
X830657Y824938D01*
X830417Y824882D01*
X830206Y824825D01*
X830009Y824741D01*
X829825Y824656D01*
X829670Y824571D01*
X829515Y824473D01*
X829388Y824374D01*
X829261Y824289D01*
X829163Y824205D01*
X829092Y824120D01*
X829022Y824064D01*
X828979Y824007D01*
X828951Y823979D01*
X828937Y823965D01*
X828768Y823726D01*
X828627Y823444D01*
X828500Y823148D01*
X828387Y822837D01*
X828303Y822513D01*
X828218Y822175D01*
X828162Y821851D01*
X828105Y821526D01*
X828077Y821216D01*
X828049Y820934D01*
X828021Y820667D01*
X828007Y820441D01*
X827993Y820258D01*
Y820117D01*
Y820060D01*
Y820018D01*
Y820004D01*
Y819990D01*
X828007Y819482D01*
X828035Y819017D01*
X828077Y818580D01*
X828134Y818185D01*
X828190Y817833D01*
X828260Y817509D01*
X828345Y817227D01*
X828430Y816973D01*
X828500Y816762D01*
X828585Y816564D01*
X828655Y816409D01*
X828726Y816282D01*
X828768Y816198D01*
X828810Y816127D01*
X828839Y816085D01*
X828853Y816071D01*
X829022Y815873D01*
X829205Y815718D01*
X829388Y815563D01*
X829586Y815451D01*
X829769Y815338D01*
X829966Y815253D01*
X830150Y815183D01*
X830333Y815126D01*
X830502Y815070D01*
X830657Y815042D01*
X830798Y815014D01*
X830911Y814999D01*
X831010D01*
X831094Y814985D01*
X831150D01*
X831404Y814999D01*
X831644Y815028D01*
X831883Y815084D01*
X832095Y815140D01*
X832292Y815211D01*
X832476Y815295D01*
X832631Y815394D01*
X832786Y815493D01*
X832913Y815577D01*
X833039Y815676D01*
X833138Y815761D01*
X833223Y815831D01*
X833279Y815888D01*
X833321Y815944D01*
X833350Y815972D01*
X833364Y815986D01*
X833533Y816226D01*
X833674Y816508D01*
X833815Y816804D01*
X833913Y817128D01*
X834012Y817452D01*
X834083Y817777D01*
X834153Y818115D01*
X834210Y818439D01*
X834238Y818749D01*
X834266Y819031D01*
X834294Y819299D01*
X834308Y819525D01*
X834322Y819708D01*
Y819849D01*
Y819905D01*
Y819948D01*
Y819962D01*
Y819976D01*
X834308Y820483D01*
X834280Y820948D01*
X834238Y821371D01*
X834167Y821766D01*
X834097Y822132D01*
X834026Y822457D01*
X833928Y822753D01*
X833843Y823007D01*
X833758Y823246D01*
X833674Y823429D01*
X833589Y823599D01*
X833519Y823740D01*
X833448Y823838D01*
X833406Y823909D01*
X833378Y823951D01*
X833364Y823965D01*
X833209Y824148D01*
X833039Y824304D01*
X832856Y824430D01*
X832673Y824557D01*
X832490Y824656D01*
X832306Y824726D01*
X832137Y824797D01*
X831954Y824853D01*
X831785Y824896D01*
X831644Y824924D01*
X831503Y824952D01*
X831390Y824966D01*
X831291Y824980D01*
D02*
G37*
G36*
X474598Y1043578D02*
X474429D01*
X474020Y1043564D01*
X473653Y1043521D01*
X473329Y1043465D01*
X473047Y1043408D01*
X472920Y1043366D01*
X472807Y1043338D01*
X472723Y1043310D01*
X472638Y1043281D01*
X472582Y1043253D01*
X472540Y1043239D01*
X472511Y1043225D01*
X472497D01*
X472215Y1043084D01*
X471976Y1042929D01*
X471764Y1042760D01*
X471595Y1042605D01*
X471454Y1042464D01*
X471370Y1042351D01*
X471299Y1042266D01*
X471285Y1042252D01*
Y1042238D01*
X471144Y1041999D01*
X471045Y1041745D01*
X470975Y1041505D01*
X470933Y1041294D01*
X470904Y1041111D01*
X470876Y1040970D01*
Y1040913D01*
Y1040871D01*
Y1040857D01*
Y1040843D01*
X470890Y1040631D01*
X470918Y1040420D01*
X470961Y1040237D01*
X471017Y1040053D01*
X471158Y1039715D01*
X471327Y1039419D01*
X471398Y1039292D01*
X471482Y1039193D01*
X471553Y1039095D01*
X471623Y1039010D01*
X471680Y1038954D01*
X471722Y1038912D01*
X471750Y1038883D01*
X471764Y1038869D01*
X471891Y1038771D01*
X472046Y1038672D01*
X472201Y1038573D01*
X472384Y1038489D01*
X472737Y1038319D01*
X473103Y1038178D01*
X473287Y1038122D01*
X473442Y1038066D01*
X473597Y1038023D01*
X473724Y1037981D01*
X473822Y1037953D01*
X473907Y1037925D01*
X473963Y1037911D01*
X473978D01*
X474203Y1037854D01*
X474400Y1037798D01*
X474584Y1037756D01*
X474753Y1037713D01*
X474894Y1037671D01*
X475021Y1037643D01*
X475133Y1037600D01*
X475232Y1037572D01*
X475317Y1037558D01*
X475387Y1037530D01*
X475486Y1037502D01*
X475542Y1037474D01*
X475556D01*
X475740Y1037403D01*
X475881Y1037333D01*
X476007Y1037262D01*
X476106Y1037192D01*
X476177Y1037135D01*
X476219Y1037093D01*
X476247Y1037065D01*
X476261Y1037051D01*
X476332Y1036952D01*
X476388Y1036853D01*
X476416Y1036755D01*
X476444Y1036670D01*
X476459Y1036585D01*
X476473Y1036515D01*
Y1036473D01*
Y1036459D01*
X476459Y1036261D01*
X476402Y1036092D01*
X476318Y1035923D01*
X476233Y1035782D01*
X476134Y1035669D01*
X476064Y1035585D01*
X476007Y1035528D01*
X475979Y1035514D01*
X475782Y1035387D01*
X475556Y1035288D01*
X475317Y1035218D01*
X475091Y1035176D01*
X474880Y1035148D01*
X474711Y1035119D01*
X474555D01*
X474231Y1035134D01*
X473949Y1035190D01*
X473710Y1035260D01*
X473498Y1035345D01*
X473329Y1035430D01*
X473216Y1035500D01*
X473146Y1035556D01*
X473117Y1035571D01*
X472934Y1035768D01*
X472793Y1035979D01*
X472666Y1036219D01*
X472582Y1036459D01*
X472511Y1036670D01*
X472455Y1036839D01*
X472441Y1036896D01*
Y1036952D01*
X472427Y1036980D01*
Y1036994D01*
X470510Y1036811D01*
X470552Y1036515D01*
X470608Y1036233D01*
X470693Y1035965D01*
X470763Y1035725D01*
X470862Y1035500D01*
X470961Y1035288D01*
X471059Y1035105D01*
X471158Y1034936D01*
X471257Y1034795D01*
X471355Y1034668D01*
X471440Y1034556D01*
X471525Y1034457D01*
X471581Y1034386D01*
X471637Y1034344D01*
X471666Y1034316D01*
X471680Y1034302D01*
X471877Y1034147D01*
X472089Y1034020D01*
X472314Y1033907D01*
X472554Y1033808D01*
X472779Y1033738D01*
X473019Y1033667D01*
X473484Y1033569D01*
X473695Y1033526D01*
X473893Y1033498D01*
X474062Y1033484D01*
X474217Y1033470D01*
X474344Y1033456D01*
X474527D01*
X474978Y1033470D01*
X475387Y1033512D01*
X475754Y1033569D01*
X475909Y1033597D01*
X476064Y1033639D01*
X476191Y1033667D01*
X476303Y1033696D01*
X476402Y1033724D01*
X476487Y1033752D01*
X476557Y1033780D01*
X476600Y1033794D01*
X476628Y1033808D01*
X476642D01*
X476952Y1033963D01*
X477206Y1034133D01*
X477445Y1034302D01*
X477629Y1034485D01*
X477770Y1034640D01*
X477882Y1034781D01*
X477939Y1034866D01*
X477967Y1034880D01*
Y1034894D01*
X478122Y1035176D01*
X478249Y1035444D01*
X478333Y1035711D01*
X478390Y1035965D01*
X478418Y1036162D01*
X478432Y1036261D01*
X478446Y1036332D01*
Y1036388D01*
Y1036430D01*
Y1036459D01*
Y1036473D01*
X478432Y1036811D01*
X478390Y1037107D01*
X478319Y1037375D01*
X478249Y1037600D01*
X478178Y1037784D01*
X478108Y1037911D01*
X478066Y1037995D01*
X478051Y1038023D01*
X477896Y1038249D01*
X477713Y1038446D01*
X477530Y1038615D01*
X477361Y1038756D01*
X477206Y1038869D01*
X477079Y1038954D01*
X476994Y1039010D01*
X476980Y1039024D01*
X476966D01*
X476825Y1039095D01*
X476684Y1039165D01*
X476346Y1039292D01*
X475993Y1039405D01*
X475655Y1039518D01*
X475500Y1039560D01*
X475345Y1039602D01*
X475204Y1039644D01*
X475091Y1039673D01*
X474992Y1039701D01*
X474922Y1039715D01*
X474866Y1039729D01*
X474851D01*
X474598Y1039800D01*
X474372Y1039856D01*
X474161Y1039912D01*
X473963Y1039969D01*
X473808Y1040025D01*
X473653Y1040081D01*
X473526Y1040138D01*
X473414Y1040180D01*
X473315Y1040222D01*
X473244Y1040265D01*
X473174Y1040293D01*
X473132Y1040321D01*
X473061Y1040363D01*
X473047Y1040378D01*
X472948Y1040476D01*
X472878Y1040575D01*
X472836Y1040674D01*
X472807Y1040772D01*
X472779Y1040843D01*
X472765Y1040913D01*
Y1040956D01*
Y1040970D01*
X472779Y1041111D01*
X472807Y1041223D01*
X472864Y1041336D01*
X472920Y1041421D01*
X472977Y1041491D01*
X473033Y1041534D01*
X473061Y1041562D01*
X473075Y1041576D01*
X473273Y1041703D01*
X473484Y1041787D01*
X473710Y1041858D01*
X473921Y1041900D01*
X474104Y1041928D01*
X474259Y1041942D01*
X474400D01*
X474696Y1041928D01*
X474950Y1041886D01*
X475162Y1041830D01*
X475331Y1041773D01*
X475472Y1041717D01*
X475570Y1041660D01*
X475627Y1041618D01*
X475641Y1041604D01*
X475782Y1041463D01*
X475909Y1041294D01*
X476007Y1041125D01*
X476078Y1040941D01*
X476134Y1040786D01*
X476162Y1040659D01*
X476191Y1040561D01*
Y1040547D01*
Y1040533D01*
X478164Y1040603D01*
X478150Y1040857D01*
X478108Y1041082D01*
X478051Y1041308D01*
X477981Y1041505D01*
X477910Y1041703D01*
X477826Y1041886D01*
X477741Y1042041D01*
X477657Y1042196D01*
X477558Y1042323D01*
X477473Y1042436D01*
X477389Y1042534D01*
X477318Y1042619D01*
X477262Y1042675D01*
X477220Y1042718D01*
X477192Y1042746D01*
X477178Y1042760D01*
X476994Y1042901D01*
X476797Y1043028D01*
X476585Y1043141D01*
X476360Y1043239D01*
X476134Y1043310D01*
X475909Y1043380D01*
X475458Y1043479D01*
X475246Y1043507D01*
X475063Y1043535D01*
X474880Y1043549D01*
X474725Y1043564D01*
X474598Y1043578D01*
D02*
G37*
G36*
X493199Y1061936D02*
X491324D01*
Y1058426D01*
X491155Y1058595D01*
X490985Y1058750D01*
X490816Y1058877D01*
X490633Y1059004D01*
X490464Y1059088D01*
X490295Y1059173D01*
X490126Y1059243D01*
X489971Y1059286D01*
X489815Y1059328D01*
X489689Y1059356D01*
X489562Y1059385D01*
X489463Y1059399D01*
X489378Y1059413D01*
X489266D01*
X489026Y1059399D01*
X488801Y1059370D01*
X488589Y1059328D01*
X488378Y1059272D01*
X488025Y1059117D01*
X487856Y1059032D01*
X487715Y1058948D01*
X487574Y1058849D01*
X487461Y1058764D01*
X487363Y1058694D01*
X487278Y1058623D01*
X487207Y1058553D01*
X487165Y1058511D01*
X487137Y1058482D01*
X487123Y1058468D01*
X486982Y1058285D01*
X486855Y1058087D01*
X486742Y1057876D01*
X486644Y1057651D01*
X486559Y1057425D01*
X486489Y1057199D01*
X486390Y1056748D01*
X486362Y1056551D01*
X486334Y1056354D01*
X486319Y1056184D01*
X486305Y1056029D01*
X486291Y1055902D01*
Y1055818D01*
Y1055747D01*
Y1055733D01*
X486305Y1055409D01*
X486334Y1055113D01*
X486376Y1054831D01*
X486432Y1054563D01*
X486489Y1054324D01*
X486559Y1054098D01*
X486644Y1053901D01*
X486728Y1053717D01*
X486799Y1053548D01*
X486883Y1053407D01*
X486954Y1053280D01*
X487024Y1053182D01*
X487066Y1053097D01*
X487109Y1053041D01*
X487137Y1053013D01*
X487151Y1052999D01*
X487320Y1052829D01*
X487489Y1052674D01*
X487673Y1052547D01*
X487842Y1052435D01*
X488025Y1052336D01*
X488194Y1052265D01*
X488363Y1052195D01*
X488518Y1052153D01*
X488674Y1052110D01*
X488815Y1052082D01*
X488927Y1052054D01*
X489040Y1052040D01*
X489125Y1052026D01*
X489238D01*
X489463Y1052040D01*
X489674Y1052068D01*
X489886Y1052110D01*
X490069Y1052167D01*
X490210Y1052223D01*
X490337Y1052265D01*
X490407Y1052294D01*
X490436Y1052308D01*
X490647Y1052435D01*
X490844Y1052576D01*
X491028Y1052731D01*
X491169Y1052872D01*
X491296Y1052999D01*
X491394Y1053111D01*
X491451Y1053182D01*
X491465Y1053210D01*
Y1052181D01*
X493199D01*
Y1061936D01*
D02*
G37*
G36*
X537802Y1059413D02*
X537689D01*
X537520Y1059399D01*
X537379Y1059385D01*
X537238Y1059342D01*
X537125Y1059300D01*
X537026Y1059258D01*
X536942Y1059229D01*
X536899Y1059201D01*
X536885Y1059187D01*
X536744Y1059088D01*
X536618Y1058948D01*
X536477Y1058792D01*
X536364Y1058637D01*
X536251Y1058482D01*
X536166Y1058355D01*
X536110Y1058271D01*
X536096Y1058257D01*
Y1059258D01*
X534362D01*
Y1052181D01*
X536237D01*
Y1054352D01*
Y1054676D01*
Y1054972D01*
X536251Y1055240D01*
X536265Y1055480D01*
Y1055705D01*
X536279Y1055888D01*
X536293Y1056072D01*
X536307Y1056213D01*
X536321Y1056339D01*
X536336Y1056452D01*
X536350Y1056537D01*
Y1056607D01*
X536364Y1056650D01*
X536378Y1056692D01*
Y1056720D01*
X536434Y1056917D01*
X536505Y1057087D01*
X536575Y1057228D01*
X536646Y1057326D01*
X536702Y1057411D01*
X536758Y1057467D01*
X536787Y1057495D01*
X536801Y1057510D01*
X536913Y1057580D01*
X537026Y1057636D01*
X537139Y1057679D01*
X537238Y1057707D01*
X537322Y1057721D01*
X537407Y1057735D01*
X537463D01*
X537618Y1057721D01*
X537773Y1057693D01*
X537914Y1057636D01*
X538055Y1057580D01*
X538168Y1057524D01*
X538253Y1057467D01*
X538323Y1057439D01*
X538337Y1057425D01*
X538929Y1059046D01*
X538704Y1059173D01*
X538492Y1059258D01*
X538281Y1059328D01*
X538084Y1059370D01*
X537929Y1059399D01*
X537802Y1059413D01*
D02*
G37*
G36*
X599021Y867048D02*
X598852D01*
X598344Y867033D01*
X597893Y866977D01*
X597696Y866935D01*
X597498Y866892D01*
X597315Y866850D01*
X597160Y866808D01*
X597019Y866751D01*
X596878Y866709D01*
X596780Y866667D01*
X596681Y866639D01*
X596610Y866597D01*
X596554Y866582D01*
X596526Y866554D01*
X596512D01*
X596075Y866300D01*
X595891Y866145D01*
X595708Y866004D01*
X595539Y865849D01*
X595384Y865694D01*
X595243Y865539D01*
X595116Y865398D01*
X595017Y865257D01*
X594919Y865130D01*
X594834Y865018D01*
X594764Y864919D01*
X594721Y864834D01*
X594679Y864778D01*
X594665Y864736D01*
X594651Y864722D01*
X594538Y864496D01*
X594439Y864270D01*
X594284Y863805D01*
X594171Y863340D01*
X594101Y862931D01*
X594073Y862734D01*
X594045Y862565D01*
X594031Y862410D01*
Y862269D01*
X594016Y862170D01*
Y862085D01*
Y862029D01*
Y862015D01*
X594045Y861493D01*
X594101Y861014D01*
X594200Y860577D01*
X594242Y860366D01*
X594298Y860182D01*
X594355Y860013D01*
X594397Y859858D01*
X594454Y859731D01*
X594496Y859618D01*
X594524Y859534D01*
X594552Y859463D01*
X594580Y859421D01*
Y859407D01*
X594820Y858984D01*
X595088Y858618D01*
X595370Y858293D01*
X595652Y858040D01*
X595779Y857927D01*
X595905Y857828D01*
X596004Y857744D01*
X596103Y857687D01*
X596173Y857631D01*
X596244Y857589D01*
X596272Y857574D01*
X596286Y857560D01*
X596512Y857448D01*
X596723Y857349D01*
X597188Y857194D01*
X597639Y857081D01*
X598048Y857010D01*
X598246Y856982D01*
X598415Y856954D01*
X598570Y856940D01*
X598711D01*
X598809Y856926D01*
X598965D01*
X599416Y856940D01*
X599838Y856996D01*
X600247Y857067D01*
X600600Y857151D01*
X600755Y857194D01*
X600896Y857236D01*
X601023Y857278D01*
X601135Y857307D01*
X601220Y857335D01*
X601276Y857363D01*
X601319Y857377D01*
X601333D01*
X601756Y857546D01*
X602108Y857729D01*
X602418Y857913D01*
X602686Y858068D01*
X602883Y858209D01*
X602954Y858265D01*
X603024Y858322D01*
X603067Y858364D01*
X603109Y858392D01*
X603137Y858420D01*
Y862339D01*
X598894D01*
Y860690D01*
X601149D01*
Y859435D01*
X600980Y859308D01*
X600797Y859195D01*
X600614Y859097D01*
X600445Y859012D01*
X600304Y858942D01*
X600177Y858885D01*
X600106Y858857D01*
X600092Y858843D01*
X600078D01*
X599853Y858758D01*
X599627Y858702D01*
X599416Y858660D01*
X599232Y858632D01*
X599063Y858618D01*
X598950Y858604D01*
X598838D01*
X598612Y858618D01*
X598386Y858646D01*
X598189Y858688D01*
X597992Y858744D01*
X597639Y858885D01*
X597498Y858956D01*
X597357Y859041D01*
X597231Y859125D01*
X597118Y859195D01*
X597033Y859280D01*
X596949Y859336D01*
X596892Y859393D01*
X596850Y859435D01*
X596822Y859463D01*
X596808Y859477D01*
X596681Y859647D01*
X596554Y859844D01*
X596455Y860041D01*
X596371Y860253D01*
X596230Y860690D01*
X596145Y861113D01*
X596117Y861310D01*
X596089Y861507D01*
X596075Y861663D01*
X596060Y861818D01*
X596046Y861930D01*
Y862029D01*
Y862085D01*
Y862100D01*
X596060Y862396D01*
X596075Y862663D01*
X596117Y862931D01*
X596159Y863171D01*
X596216Y863382D01*
X596286Y863580D01*
X596357Y863763D01*
X596427Y863932D01*
X596483Y864073D01*
X596554Y864200D01*
X596624Y864299D01*
X596681Y864383D01*
X596723Y864454D01*
X596765Y864496D01*
X596780Y864524D01*
X596794Y864538D01*
X596949Y864679D01*
X597104Y864820D01*
X597273Y864919D01*
X597442Y865018D01*
X597611Y865102D01*
X597780Y865173D01*
X598105Y865271D01*
X598260Y865300D01*
X598401Y865328D01*
X598527Y865342D01*
X598640Y865356D01*
X598725Y865370D01*
X598852D01*
X599162Y865356D01*
X599430Y865300D01*
X599669Y865243D01*
X599881Y865159D01*
X600036Y865088D01*
X600163Y865018D01*
X600233Y864961D01*
X600261Y864947D01*
X600459Y864778D01*
X600628Y864595D01*
X600769Y864411D01*
X600868Y864228D01*
X600952Y864059D01*
X601009Y863932D01*
X601037Y863848D01*
X601051Y863833D01*
Y863819D01*
X603010Y864186D01*
X602954Y864426D01*
X602869Y864665D01*
X602785Y864877D01*
X602672Y865074D01*
X602573Y865271D01*
X602461Y865441D01*
X602348Y865596D01*
X602235Y865736D01*
X602122Y865863D01*
X602024Y865976D01*
X601939Y866075D01*
X601854Y866145D01*
X601784Y866202D01*
X601727Y866258D01*
X601699Y866272D01*
X601685Y866286D01*
X601488Y866427D01*
X601276Y866540D01*
X601051Y866639D01*
X600811Y866723D01*
X600346Y866864D01*
X599895Y866949D01*
X599683Y866991D01*
X599486Y867005D01*
X599303Y867019D01*
X599148Y867033D01*
X599021Y867048D01*
D02*
G37*
G36*
X565831Y866864D02*
X561940D01*
Y857109D01*
X565634D01*
X566015Y857123D01*
X566367Y857137D01*
X566663Y857166D01*
X566903Y857208D01*
X567100Y857250D01*
X567255Y857278D01*
X567297Y857292D01*
X567340D01*
X567354Y857307D01*
X567368D01*
X567678Y857419D01*
X567960Y857546D01*
X568185Y857673D01*
X568383Y857800D01*
X568538Y857913D01*
X568651Y857997D01*
X568721Y858054D01*
X568749Y858082D01*
X568989Y858350D01*
X569200Y858632D01*
X569384Y858928D01*
X569525Y859195D01*
X569637Y859449D01*
X569694Y859548D01*
X569722Y859632D01*
X569750Y859717D01*
X569778Y859773D01*
X569793Y859802D01*
Y859816D01*
X569891Y860154D01*
X569976Y860507D01*
X570032Y860845D01*
X570060Y861169D01*
X570074Y861324D01*
X570089Y861465D01*
Y861578D01*
X570103Y861691D01*
Y861775D01*
Y861832D01*
Y861874D01*
Y861888D01*
X570089Y862382D01*
X570046Y862819D01*
X570032Y863030D01*
X570004Y863213D01*
X569976Y863396D01*
X569948Y863551D01*
X569905Y863692D01*
X569877Y863819D01*
X569849Y863932D01*
X569835Y864017D01*
X569807Y864087D01*
X569793Y864144D01*
X569778Y864172D01*
Y864186D01*
X569651Y864524D01*
X569496Y864834D01*
X569341Y865102D01*
X569186Y865328D01*
X569059Y865511D01*
X568947Y865652D01*
X568876Y865736D01*
X568862Y865765D01*
X568848D01*
X568608Y865990D01*
X568369Y866174D01*
X568115Y866329D01*
X567889Y866456D01*
X567692Y866554D01*
X567523Y866625D01*
X567467Y866639D01*
X567424Y866653D01*
X567396Y866667D01*
X567382D01*
X567114Y866737D01*
X566818Y866780D01*
X566508Y866822D01*
X566212Y866836D01*
X565944Y866850D01*
X565831Y866864D01*
D02*
G37*
G36*
X559854D02*
X558036D01*
Y860295D01*
X554004Y866864D01*
X552101D01*
Y857109D01*
X553919D01*
Y863537D01*
X557881Y857109D01*
X559854D01*
Y866864D01*
D02*
G37*
G36*
X589393D02*
X587306D01*
X583528Y857109D01*
X585615D01*
X586418Y859322D01*
X590337D01*
X591183Y857109D01*
X593312D01*
X589393Y866864D01*
D02*
G37*
G36*
X547120Y1062119D02*
X546951D01*
X546542Y1062105D01*
X546175Y1062063D01*
X545851Y1062007D01*
X545569Y1061950D01*
X545442Y1061908D01*
X545329Y1061880D01*
X545245Y1061851D01*
X545160Y1061823D01*
X545104Y1061795D01*
X545062Y1061781D01*
X545033Y1061767D01*
X545019D01*
X544737Y1061626D01*
X544498Y1061471D01*
X544286Y1061302D01*
X544117Y1061147D01*
X543976Y1061006D01*
X543891Y1060893D01*
X543821Y1060808D01*
X543807Y1060794D01*
Y1060780D01*
X543666Y1060540D01*
X543567Y1060287D01*
X543497Y1060047D01*
X543455Y1059836D01*
X543426Y1059652D01*
X543398Y1059511D01*
Y1059455D01*
Y1059413D01*
Y1059399D01*
Y1059385D01*
X543412Y1059173D01*
X543440Y1058962D01*
X543483Y1058778D01*
X543539Y1058595D01*
X543680Y1058257D01*
X543849Y1057961D01*
X543920Y1057834D01*
X544004Y1057735D01*
X544075Y1057636D01*
X544145Y1057552D01*
X544202Y1057495D01*
X544244Y1057453D01*
X544272Y1057425D01*
X544286Y1057411D01*
X544413Y1057312D01*
X544568Y1057214D01*
X544723Y1057115D01*
X544907Y1057030D01*
X545259Y1056861D01*
X545625Y1056720D01*
X545809Y1056664D01*
X545964Y1056607D01*
X546119Y1056565D01*
X546246Y1056523D01*
X546344Y1056495D01*
X546429Y1056466D01*
X546485Y1056452D01*
X546499D01*
X546725Y1056396D01*
X546922Y1056339D01*
X547106Y1056297D01*
X547275Y1056255D01*
X547416Y1056213D01*
X547543Y1056184D01*
X547655Y1056142D01*
X547754Y1056114D01*
X547839Y1056100D01*
X547909Y1056072D01*
X548008Y1056043D01*
X548064Y1056015D01*
X548078D01*
X548262Y1055945D01*
X548403Y1055874D01*
X548530Y1055804D01*
X548628Y1055733D01*
X548699Y1055677D01*
X548741Y1055635D01*
X548769Y1055607D01*
X548783Y1055592D01*
X548854Y1055494D01*
X548910Y1055395D01*
X548938Y1055296D01*
X548966Y1055212D01*
X548981Y1055127D01*
X548995Y1055057D01*
Y1055014D01*
Y1055000D01*
X548981Y1054803D01*
X548924Y1054634D01*
X548840Y1054465D01*
X548755Y1054324D01*
X548656Y1054211D01*
X548586Y1054126D01*
X548530Y1054070D01*
X548501Y1054056D01*
X548304Y1053929D01*
X548078Y1053830D01*
X547839Y1053760D01*
X547613Y1053717D01*
X547402Y1053689D01*
X547233Y1053661D01*
X547077D01*
X546753Y1053675D01*
X546471Y1053732D01*
X546232Y1053802D01*
X546020Y1053887D01*
X545851Y1053971D01*
X545738Y1054042D01*
X545668Y1054098D01*
X545640Y1054112D01*
X545456Y1054309D01*
X545315Y1054521D01*
X545188Y1054761D01*
X545104Y1055000D01*
X545033Y1055212D01*
X544977Y1055381D01*
X544963Y1055437D01*
Y1055494D01*
X544949Y1055522D01*
Y1055536D01*
X543032Y1055353D01*
X543074Y1055057D01*
X543130Y1054775D01*
X543215Y1054507D01*
X543285Y1054267D01*
X543384Y1054042D01*
X543483Y1053830D01*
X543581Y1053647D01*
X543680Y1053478D01*
X543779Y1053337D01*
X543877Y1053210D01*
X543962Y1053097D01*
X544047Y1052999D01*
X544103Y1052928D01*
X544159Y1052886D01*
X544188Y1052858D01*
X544202Y1052843D01*
X544399Y1052688D01*
X544610Y1052561D01*
X544836Y1052449D01*
X545076Y1052350D01*
X545301Y1052280D01*
X545541Y1052209D01*
X546006Y1052110D01*
X546218Y1052068D01*
X546415Y1052040D01*
X546584Y1052026D01*
X546739Y1052012D01*
X546866Y1051998D01*
X547049D01*
X547500Y1052012D01*
X547909Y1052054D01*
X548276Y1052110D01*
X548431Y1052139D01*
X548586Y1052181D01*
X548713Y1052209D01*
X548825Y1052237D01*
X548924Y1052265D01*
X549009Y1052294D01*
X549079Y1052322D01*
X549122Y1052336D01*
X549150Y1052350D01*
X549164D01*
X549474Y1052505D01*
X549728Y1052674D01*
X549967Y1052843D01*
X550151Y1053027D01*
X550292Y1053182D01*
X550404Y1053323D01*
X550461Y1053407D01*
X550489Y1053421D01*
Y1053436D01*
X550644Y1053717D01*
X550771Y1053985D01*
X550855Y1054253D01*
X550912Y1054507D01*
X550940Y1054704D01*
X550954Y1054803D01*
X550968Y1054873D01*
Y1054930D01*
Y1054972D01*
Y1055000D01*
Y1055014D01*
X550954Y1055353D01*
X550912Y1055649D01*
X550841Y1055917D01*
X550771Y1056142D01*
X550700Y1056325D01*
X550630Y1056452D01*
X550588Y1056537D01*
X550574Y1056565D01*
X550419Y1056791D01*
X550235Y1056988D01*
X550052Y1057157D01*
X549883Y1057298D01*
X549728Y1057411D01*
X549601Y1057495D01*
X549516Y1057552D01*
X549502Y1057566D01*
X549488D01*
X549347Y1057636D01*
X549206Y1057707D01*
X548868Y1057834D01*
X548515Y1057947D01*
X548177Y1058059D01*
X548022Y1058102D01*
X547867Y1058144D01*
X547726Y1058186D01*
X547613Y1058214D01*
X547514Y1058243D01*
X547444Y1058257D01*
X547388Y1058271D01*
X547374D01*
X547120Y1058341D01*
X546894Y1058398D01*
X546683Y1058454D01*
X546485Y1058511D01*
X546330Y1058567D01*
X546175Y1058623D01*
X546048Y1058680D01*
X545936Y1058722D01*
X545837Y1058764D01*
X545766Y1058807D01*
X545696Y1058835D01*
X545654Y1058863D01*
X545583Y1058905D01*
X545569Y1058919D01*
X545470Y1059018D01*
X545400Y1059117D01*
X545358Y1059215D01*
X545329Y1059314D01*
X545301Y1059385D01*
X545287Y1059455D01*
Y1059497D01*
Y1059511D01*
X545301Y1059652D01*
X545329Y1059765D01*
X545386Y1059878D01*
X545442Y1059962D01*
X545499Y1060033D01*
X545555Y1060075D01*
X545583Y1060103D01*
X545597Y1060117D01*
X545795Y1060244D01*
X546006Y1060329D01*
X546232Y1060399D01*
X546443Y1060442D01*
X546626Y1060470D01*
X546781Y1060484D01*
X546922D01*
X547218Y1060470D01*
X547472Y1060428D01*
X547684Y1060371D01*
X547853Y1060315D01*
X547994Y1060258D01*
X548092Y1060202D01*
X548149Y1060160D01*
X548163Y1060146D01*
X548304Y1060005D01*
X548431Y1059836D01*
X548530Y1059666D01*
X548600Y1059483D01*
X548656Y1059328D01*
X548685Y1059201D01*
X548713Y1059102D01*
Y1059088D01*
Y1059074D01*
X550686Y1059145D01*
X550672Y1059399D01*
X550630Y1059624D01*
X550574Y1059850D01*
X550503Y1060047D01*
X550433Y1060244D01*
X550348Y1060428D01*
X550263Y1060583D01*
X550179Y1060738D01*
X550080Y1060865D01*
X549995Y1060977D01*
X549911Y1061076D01*
X549841Y1061161D01*
X549784Y1061217D01*
X549742Y1061259D01*
X549714Y1061288D01*
X549700Y1061302D01*
X549516Y1061443D01*
X549319Y1061570D01*
X549107Y1061682D01*
X548882Y1061781D01*
X548656Y1061851D01*
X548431Y1061922D01*
X547980Y1062021D01*
X547768Y1062049D01*
X547585Y1062077D01*
X547402Y1062091D01*
X547247Y1062105D01*
X547120Y1062119D01*
D02*
G37*
G36*
X573298Y1059413D02*
X573185D01*
X572931Y1059399D01*
X572692Y1059356D01*
X572466Y1059300D01*
X572283Y1059243D01*
X572128Y1059187D01*
X572001Y1059131D01*
X571931Y1059088D01*
X571902Y1059074D01*
X571691Y1058948D01*
X571522Y1058807D01*
X571353Y1058665D01*
X571226Y1058525D01*
X571127Y1058398D01*
X571042Y1058299D01*
X571000Y1058243D01*
X570986Y1058214D01*
Y1059258D01*
X569238D01*
Y1049474D01*
X571113D01*
Y1053055D01*
X571310Y1052858D01*
X571493Y1052688D01*
X571648Y1052547D01*
X571804Y1052449D01*
X571931Y1052364D01*
X572015Y1052294D01*
X572085Y1052265D01*
X572100Y1052251D01*
X572283Y1052181D01*
X572466Y1052124D01*
X572649Y1052082D01*
X572819Y1052054D01*
X572960Y1052040D01*
X573072Y1052026D01*
X573171D01*
X573397Y1052040D01*
X573608Y1052068D01*
X573820Y1052110D01*
X574017Y1052181D01*
X574369Y1052336D01*
X574524Y1052421D01*
X574679Y1052519D01*
X574806Y1052604D01*
X574919Y1052688D01*
X575018Y1052773D01*
X575102Y1052843D01*
X575173Y1052914D01*
X575215Y1052956D01*
X575243Y1052984D01*
X575257Y1052999D01*
X575412Y1053196D01*
X575539Y1053407D01*
X575666Y1053619D01*
X575765Y1053844D01*
X575849Y1054070D01*
X575920Y1054296D01*
X576019Y1054747D01*
X576061Y1054944D01*
X576089Y1055141D01*
X576103Y1055310D01*
X576117Y1055451D01*
X576131Y1055578D01*
Y1055677D01*
Y1055733D01*
Y1055747D01*
X576117Y1056058D01*
X576089Y1056368D01*
X576047Y1056636D01*
X576004Y1056903D01*
X575934Y1057143D01*
X575863Y1057369D01*
X575779Y1057566D01*
X575709Y1057749D01*
X575624Y1057904D01*
X575539Y1058045D01*
X575469Y1058172D01*
X575412Y1058257D01*
X575356Y1058341D01*
X575314Y1058398D01*
X575286Y1058426D01*
X575271Y1058440D01*
X575102Y1058609D01*
X574933Y1058764D01*
X574764Y1058891D01*
X574581Y1059004D01*
X574412Y1059102D01*
X574228Y1059173D01*
X574073Y1059243D01*
X573904Y1059286D01*
X573763Y1059328D01*
X573622Y1059356D01*
X573495Y1059385D01*
X573397Y1059399D01*
X573298Y1059413D01*
D02*
G37*
G36*
X450104D02*
X449583D01*
X449329Y1059385D01*
X449089Y1059356D01*
X448864Y1059314D01*
X448666Y1059272D01*
X448483Y1059215D01*
X448314Y1059159D01*
X448159Y1059102D01*
X448032Y1059032D01*
X447919Y1058976D01*
X447821Y1058919D01*
X447750Y1058877D01*
X447679Y1058835D01*
X447637Y1058807D01*
X447623Y1058792D01*
X447609Y1058778D01*
X447482Y1058665D01*
X447369Y1058539D01*
X447271Y1058412D01*
X447200Y1058271D01*
X447059Y1058017D01*
X446975Y1057777D01*
X446932Y1057566D01*
X446918Y1057467D01*
X446904Y1057397D01*
X446890Y1057326D01*
Y1057284D01*
Y1057256D01*
Y1057242D01*
X446904Y1057058D01*
X446932Y1056889D01*
X446961Y1056720D01*
X447017Y1056565D01*
X447158Y1056297D01*
X447313Y1056072D01*
X447454Y1055888D01*
X447595Y1055761D01*
X447651Y1055705D01*
X447679Y1055677D01*
X447708Y1055663D01*
X447722Y1055649D01*
X447849Y1055578D01*
X448018Y1055494D01*
X448215Y1055409D01*
X448427Y1055339D01*
X448652Y1055254D01*
X448892Y1055184D01*
X449385Y1055043D01*
X449625Y1054972D01*
X449851Y1054916D01*
X450048Y1054859D01*
X450231Y1054817D01*
X450386Y1054789D01*
X450499Y1054761D01*
X450569Y1054733D01*
X450598D01*
X450767Y1054690D01*
X450894Y1054648D01*
X451006Y1054606D01*
X451091Y1054577D01*
X451147Y1054535D01*
X451190Y1054521D01*
X451218Y1054493D01*
X451302Y1054380D01*
X451345Y1054267D01*
X451359Y1054183D01*
Y1054155D01*
Y1054140D01*
X451345Y1054028D01*
X451316Y1053929D01*
X451274Y1053844D01*
X451232Y1053774D01*
X451190Y1053717D01*
X451147Y1053675D01*
X451119Y1053647D01*
X451105Y1053633D01*
X450950Y1053548D01*
X450781Y1053492D01*
X450598Y1053436D01*
X450428Y1053407D01*
X450273Y1053393D01*
X450132Y1053379D01*
X450020D01*
X449780Y1053393D01*
X449583Y1053421D01*
X449399Y1053464D01*
X449258Y1053520D01*
X449146Y1053562D01*
X449061Y1053605D01*
X449005Y1053633D01*
X448991Y1053647D01*
X448864Y1053760D01*
X448765Y1053901D01*
X448680Y1054028D01*
X448610Y1054169D01*
X448568Y1054296D01*
X448539Y1054394D01*
X448511Y1054451D01*
Y1054479D01*
X446636Y1054197D01*
X446763Y1053844D01*
X446918Y1053520D01*
X447087Y1053252D01*
X447271Y1053027D01*
X447440Y1052843D01*
X447595Y1052717D01*
X447637Y1052660D01*
X447679Y1052632D01*
X447708Y1052618D01*
X447722Y1052604D01*
X447891Y1052505D01*
X448060Y1052406D01*
X448441Y1052265D01*
X448821Y1052167D01*
X449188Y1052096D01*
X449357Y1052068D01*
X449512Y1052054D01*
X449653Y1052040D01*
X449780D01*
X449879Y1052026D01*
X450020D01*
X450302Y1052040D01*
X450569Y1052054D01*
X450823Y1052096D01*
X451063Y1052139D01*
X451274Y1052181D01*
X451472Y1052251D01*
X451655Y1052308D01*
X451810Y1052378D01*
X451951Y1052435D01*
X452078Y1052505D01*
X452177Y1052561D01*
X452261Y1052604D01*
X452332Y1052660D01*
X452374Y1052688D01*
X452402Y1052702D01*
X452416Y1052717D01*
X452557Y1052858D01*
X452684Y1052999D01*
X452797Y1053139D01*
X452895Y1053280D01*
X452966Y1053421D01*
X453036Y1053562D01*
X453135Y1053816D01*
X453191Y1054056D01*
X453205Y1054155D01*
X453220Y1054225D01*
X453234Y1054296D01*
Y1054352D01*
Y1054380D01*
Y1054394D01*
X453205Y1054704D01*
X453135Y1054986D01*
X453050Y1055226D01*
X452938Y1055423D01*
X452825Y1055578D01*
X452740Y1055691D01*
X452670Y1055747D01*
X452642Y1055776D01*
X452515Y1055860D01*
X452388Y1055959D01*
X452233Y1056029D01*
X452064Y1056114D01*
X451725Y1056255D01*
X451373Y1056382D01*
X451063Y1056480D01*
X450922Y1056509D01*
X450795Y1056551D01*
X450696Y1056579D01*
X450626Y1056593D01*
X450569Y1056607D01*
X450555D01*
X450288Y1056678D01*
X450048Y1056734D01*
X449836Y1056791D01*
X449653Y1056847D01*
X449484Y1056889D01*
X449343Y1056932D01*
X449230Y1056974D01*
X449117Y1057002D01*
X449033Y1057044D01*
X448962Y1057073D01*
X448906Y1057087D01*
X448878Y1057115D01*
X448821Y1057129D01*
X448807Y1057143D01*
X448751Y1057199D01*
X448709Y1057256D01*
X448652Y1057369D01*
X448624Y1057453D01*
Y1057467D01*
Y1057481D01*
X448638Y1057566D01*
X448652Y1057636D01*
X448737Y1057763D01*
X448807Y1057834D01*
X448821Y1057862D01*
X448835D01*
X448976Y1057933D01*
X449132Y1057989D01*
X449301Y1058017D01*
X449484Y1058045D01*
X449639Y1058059D01*
X449766Y1058073D01*
X449893D01*
X450104Y1058059D01*
X450288Y1058045D01*
X450443Y1058003D01*
X450569Y1057961D01*
X450668Y1057918D01*
X450739Y1057890D01*
X450781Y1057862D01*
X450795Y1057848D01*
X450908Y1057763D01*
X450992Y1057665D01*
X451077Y1057566D01*
X451133Y1057453D01*
X451176Y1057369D01*
X451204Y1057298D01*
X451232Y1057242D01*
Y1057228D01*
X452994Y1057552D01*
X452881Y1057876D01*
X452726Y1058158D01*
X452571Y1058398D01*
X452402Y1058581D01*
X452261Y1058736D01*
X452134Y1058849D01*
X452050Y1058905D01*
X452035Y1058933D01*
X452021D01*
X451880Y1059018D01*
X451725Y1059088D01*
X451387Y1059215D01*
X451035Y1059300D01*
X450682Y1059356D01*
X450513Y1059370D01*
X450358Y1059385D01*
X450217Y1059399D01*
X450104Y1059413D01*
D02*
G37*
G36*
X564967D02*
X564854D01*
X564600Y1059399D01*
X564360Y1059356D01*
X564135Y1059300D01*
X563952Y1059243D01*
X563797Y1059187D01*
X563670Y1059131D01*
X563599Y1059088D01*
X563571Y1059074D01*
X563359Y1058948D01*
X563190Y1058807D01*
X563021Y1058665D01*
X562894Y1058525D01*
X562796Y1058398D01*
X562711Y1058299D01*
X562669Y1058243D01*
X562655Y1058214D01*
Y1059258D01*
X560907D01*
Y1049474D01*
X562781D01*
Y1053055D01*
X562979Y1052858D01*
X563162Y1052688D01*
X563317Y1052547D01*
X563472Y1052449D01*
X563599Y1052364D01*
X563684Y1052294D01*
X563754Y1052265D01*
X563768Y1052251D01*
X563952Y1052181D01*
X564135Y1052124D01*
X564318Y1052082D01*
X564487Y1052054D01*
X564628Y1052040D01*
X564741Y1052026D01*
X564840D01*
X565065Y1052040D01*
X565277Y1052068D01*
X565488Y1052110D01*
X565686Y1052181D01*
X566038Y1052336D01*
X566193Y1052421D01*
X566348Y1052519D01*
X566475Y1052604D01*
X566588Y1052688D01*
X566686Y1052773D01*
X566771Y1052843D01*
X566842Y1052914D01*
X566884Y1052956D01*
X566912Y1052984D01*
X566926Y1052999D01*
X567081Y1053196D01*
X567208Y1053407D01*
X567335Y1053619D01*
X567434Y1053844D01*
X567518Y1054070D01*
X567589Y1054296D01*
X567687Y1054747D01*
X567730Y1054944D01*
X567758Y1055141D01*
X567772Y1055310D01*
X567786Y1055451D01*
X567800Y1055578D01*
Y1055677D01*
Y1055733D01*
Y1055747D01*
X567786Y1056058D01*
X567758Y1056368D01*
X567715Y1056636D01*
X567673Y1056903D01*
X567603Y1057143D01*
X567532Y1057369D01*
X567448Y1057566D01*
X567377Y1057749D01*
X567293Y1057904D01*
X567208Y1058045D01*
X567137Y1058172D01*
X567081Y1058257D01*
X567025Y1058341D01*
X566982Y1058398D01*
X566954Y1058426D01*
X566940Y1058440D01*
X566771Y1058609D01*
X566602Y1058764D01*
X566433Y1058891D01*
X566249Y1059004D01*
X566080Y1059102D01*
X565897Y1059173D01*
X565742Y1059243D01*
X565573Y1059286D01*
X565432Y1059328D01*
X565291Y1059356D01*
X565164Y1059385D01*
X565065Y1059399D01*
X564967Y1059413D01*
D02*
G37*
G36*
X612723Y866864D02*
X610905D01*
Y860295D01*
X606873Y866864D01*
X604970D01*
Y857109D01*
X606788D01*
Y863537D01*
X610750Y857109D01*
X612723D01*
Y866864D01*
D02*
G37*
G36*
X587790Y1059258D02*
X585858D01*
X584195Y1054225D01*
X582517Y1059258D01*
X580530D01*
X583208Y1052167D01*
X583138Y1051955D01*
X583067Y1051772D01*
X582982Y1051603D01*
X582912Y1051462D01*
X582842Y1051349D01*
X582785Y1051265D01*
X582743Y1051208D01*
X582729Y1051194D01*
X582602Y1051067D01*
X582447Y1050969D01*
X582292Y1050898D01*
X582137Y1050856D01*
X581996Y1050828D01*
X581883Y1050799D01*
X581770D01*
X581502Y1050814D01*
X581361Y1050828D01*
X581249Y1050856D01*
X581136Y1050870D01*
X581051Y1050884D01*
X580995Y1050898D01*
X580981D01*
X581150Y1049432D01*
X581530Y1049361D01*
X581700Y1049333D01*
X581869Y1049319D01*
X581996D01*
X582108Y1049305D01*
X582391D01*
X582574Y1049319D01*
X582729Y1049347D01*
X582870Y1049376D01*
X582997Y1049390D01*
X583081Y1049418D01*
X583138Y1049432D01*
X583152D01*
X583307Y1049474D01*
X583448Y1049531D01*
X583560Y1049587D01*
X583659Y1049629D01*
X583744Y1049672D01*
X583800Y1049714D01*
X583842Y1049728D01*
X583857Y1049742D01*
X584068Y1049911D01*
X584223Y1050080D01*
X584280Y1050165D01*
X584322Y1050221D01*
X584350Y1050264D01*
X584364Y1050278D01*
X584449Y1050419D01*
X584533Y1050560D01*
X584618Y1050715D01*
X584688Y1050870D01*
X584745Y1051011D01*
X584801Y1051124D01*
X584829Y1051194D01*
X584843Y1051222D01*
X585294Y1052435D01*
X587790Y1059258D01*
D02*
G37*
G36*
X525862D02*
X524015D01*
X522662Y1054620D01*
X521491Y1059258D01*
X519687D01*
X518461Y1054620D01*
X517135Y1059258D01*
X515331D01*
X517558Y1052181D01*
X519377D01*
X520575Y1056720D01*
X521787Y1052181D01*
X523592D01*
X525862Y1059258D01*
D02*
G37*
G36*
X618700Y866864D02*
X614809D01*
Y857109D01*
X618503D01*
X618884Y857123D01*
X619236Y857137D01*
X619532Y857166D01*
X619772Y857208D01*
X619969Y857250D01*
X620124Y857278D01*
X620166Y857292D01*
X620209D01*
X620223Y857307D01*
X620237D01*
X620547Y857419D01*
X620829Y857546D01*
X621054Y857673D01*
X621252Y857800D01*
X621407Y857913D01*
X621520Y857997D01*
X621590Y858054D01*
X621618Y858082D01*
X621858Y858350D01*
X622070Y858632D01*
X622253Y858928D01*
X622394Y859195D01*
X622506Y859449D01*
X622563Y859548D01*
X622591Y859632D01*
X622619Y859717D01*
X622648Y859773D01*
X622662Y859802D01*
Y859816D01*
X622760Y860154D01*
X622845Y860507D01*
X622901Y860845D01*
X622929Y861169D01*
X622943Y861324D01*
X622958Y861465D01*
Y861578D01*
X622972Y861691D01*
Y861775D01*
Y861832D01*
Y861874D01*
Y861888D01*
X622958Y862382D01*
X622915Y862819D01*
X622901Y863030D01*
X622873Y863213D01*
X622845Y863396D01*
X622817Y863551D01*
X622774Y863692D01*
X622746Y863819D01*
X622718Y863932D01*
X622704Y864017D01*
X622676Y864087D01*
X622662Y864144D01*
X622648Y864172D01*
Y864186D01*
X622521Y864524D01*
X622365Y864834D01*
X622211Y865102D01*
X622055Y865328D01*
X621928Y865511D01*
X621816Y865652D01*
X621745Y865736D01*
X621731Y865765D01*
X621717D01*
X621477Y865990D01*
X621238Y866174D01*
X620984Y866329D01*
X620759Y866456D01*
X620561Y866554D01*
X620392Y866625D01*
X620336Y866639D01*
X620293Y866653D01*
X620265Y866667D01*
X620251D01*
X619983Y866737D01*
X619687Y866780D01*
X619377Y866822D01*
X619081Y866836D01*
X618813Y866850D01*
X618700Y866864D01*
D02*
G37*
G36*
X559032Y1059258D02*
X557157D01*
Y1056269D01*
Y1056001D01*
Y1055761D01*
X557143Y1055536D01*
X557129Y1055339D01*
Y1055155D01*
X557114Y1055000D01*
X557100Y1054873D01*
X557086Y1054747D01*
X557072Y1054648D01*
X557058Y1054577D01*
X557044Y1054507D01*
Y1054451D01*
X557016Y1054380D01*
Y1054366D01*
X556959Y1054225D01*
X556875Y1054098D01*
X556790Y1053999D01*
X556706Y1053901D01*
X556621Y1053816D01*
X556551Y1053760D01*
X556508Y1053732D01*
X556494Y1053717D01*
X556353Y1053633D01*
X556198Y1053577D01*
X556057Y1053520D01*
X555916Y1053492D01*
X555803Y1053478D01*
X555719Y1053464D01*
X555634D01*
X555479Y1053478D01*
X555352Y1053492D01*
X555225Y1053520D01*
X555127Y1053562D01*
X555042Y1053591D01*
X554986Y1053619D01*
X554944Y1053633D01*
X554930Y1053647D01*
X554831Y1053732D01*
X554760Y1053816D01*
X554690Y1053901D01*
X554648Y1053985D01*
X554605Y1054070D01*
X554577Y1054126D01*
X554563Y1054169D01*
Y1054183D01*
X554549Y1054253D01*
X554535Y1054352D01*
X554521Y1054479D01*
X554507Y1054606D01*
X554492Y1054902D01*
X554478Y1055226D01*
X554464Y1055522D01*
Y1055649D01*
Y1055761D01*
Y1055860D01*
Y1055931D01*
Y1055987D01*
Y1056001D01*
Y1059258D01*
X552589D01*
Y1054775D01*
X552603Y1054422D01*
X552632Y1054112D01*
X552674Y1053844D01*
X552716Y1053619D01*
X552759Y1053436D01*
X552801Y1053309D01*
X552829Y1053238D01*
X552843Y1053210D01*
X552956Y1053013D01*
X553083Y1052829D01*
X553210Y1052688D01*
X553351Y1052561D01*
X553463Y1052463D01*
X553576Y1052392D01*
X553633Y1052350D01*
X553661Y1052336D01*
X553872Y1052237D01*
X554098Y1052153D01*
X554309Y1052096D01*
X554521Y1052068D01*
X554690Y1052040D01*
X554817Y1052026D01*
X554944D01*
X555197Y1052040D01*
X555437Y1052068D01*
X555662Y1052124D01*
X555860Y1052181D01*
X556029Y1052237D01*
X556156Y1052294D01*
X556241Y1052322D01*
X556269Y1052336D01*
X556494Y1052463D01*
X556692Y1052618D01*
X556875Y1052759D01*
X557016Y1052914D01*
X557143Y1053041D01*
X557227Y1053139D01*
X557284Y1053210D01*
X557298Y1053238D01*
Y1052181D01*
X559032D01*
Y1059258D01*
D02*
G37*
G36*
X511285Y1059413D02*
X511130D01*
X510750Y1059399D01*
X510397Y1059342D01*
X510073Y1059272D01*
X509791Y1059187D01*
X509678Y1059131D01*
X509565Y1059088D01*
X509467Y1059060D01*
X509396Y1059018D01*
X509326Y1058990D01*
X509283Y1058962D01*
X509255Y1058948D01*
X509241D01*
X508945Y1058750D01*
X508691Y1058539D01*
X508466Y1058313D01*
X508283Y1058102D01*
X508142Y1057904D01*
X508029Y1057749D01*
X507986Y1057693D01*
X507972Y1057651D01*
X507944Y1057622D01*
Y1057608D01*
X507789Y1057284D01*
X507691Y1056960D01*
X507606Y1056664D01*
X507550Y1056396D01*
X507521Y1056156D01*
X507507Y1056058D01*
Y1055973D01*
X507493Y1055917D01*
Y1055860D01*
Y1055832D01*
Y1055818D01*
X507507Y1055381D01*
X507564Y1054972D01*
X507634Y1054620D01*
X507676Y1054465D01*
X507719Y1054324D01*
X507761Y1054197D01*
X507803Y1054084D01*
X507845Y1053985D01*
X507874Y1053901D01*
X507902Y1053830D01*
X507930Y1053788D01*
X507944Y1053760D01*
Y1053746D01*
X508142Y1053450D01*
X508353Y1053196D01*
X508579Y1052970D01*
X508790Y1052787D01*
X508987Y1052646D01*
X509142Y1052547D01*
X509199Y1052505D01*
X509241Y1052477D01*
X509269Y1052463D01*
X509283D01*
X509622Y1052322D01*
X509946Y1052209D01*
X510256Y1052139D01*
X510552Y1052082D01*
X510792Y1052054D01*
X510891Y1052040D01*
X510975D01*
X511045Y1052026D01*
X511144D01*
X511440Y1052040D01*
X511708Y1052068D01*
X511976Y1052124D01*
X512216Y1052195D01*
X512455Y1052265D01*
X512667Y1052350D01*
X512864Y1052449D01*
X513047Y1052547D01*
X513202Y1052646D01*
X513343Y1052745D01*
X513470Y1052829D01*
X513569Y1052900D01*
X513653Y1052970D01*
X513710Y1053027D01*
X513738Y1053055D01*
X513752Y1053069D01*
X513935Y1053280D01*
X514090Y1053492D01*
X514231Y1053703D01*
X514358Y1053929D01*
X514457Y1054155D01*
X514542Y1054380D01*
X514612Y1054592D01*
X514669Y1054803D01*
X514711Y1054986D01*
X514739Y1055170D01*
X514767Y1055324D01*
X514781Y1055465D01*
X514795Y1055578D01*
Y1055663D01*
Y1055719D01*
Y1055733D01*
X514781Y1056029D01*
X514753Y1056311D01*
X514697Y1056565D01*
X514640Y1056819D01*
X514556Y1057044D01*
X514471Y1057270D01*
X514372Y1057467D01*
X514288Y1057651D01*
X514189Y1057806D01*
X514090Y1057961D01*
X514006Y1058073D01*
X513921Y1058186D01*
X513865Y1058257D01*
X513809Y1058327D01*
X513780Y1058355D01*
X513766Y1058370D01*
X513569Y1058553D01*
X513357Y1058708D01*
X513146Y1058849D01*
X512920Y1058976D01*
X512695Y1059074D01*
X512483Y1059159D01*
X512272Y1059229D01*
X512061Y1059286D01*
X511877Y1059328D01*
X511694Y1059356D01*
X511539Y1059385D01*
X511398Y1059399D01*
X511285Y1059413D01*
D02*
G37*
G36*
X302353Y980552D02*
X300647D01*
Y978029D01*
X298095D01*
Y976281D01*
X300647D01*
Y973757D01*
X302353D01*
Y976281D01*
X304918D01*
Y978029D01*
X302353D01*
Y980552D01*
D02*
G37*
G36*
X529696Y1059413D02*
X529541D01*
X529287Y1059399D01*
X529047Y1059370D01*
X528808Y1059314D01*
X528596Y1059258D01*
X528385Y1059187D01*
X528202Y1059102D01*
X528018Y1059004D01*
X527863Y1058919D01*
X527722Y1058821D01*
X527595Y1058722D01*
X527483Y1058637D01*
X527398Y1058567D01*
X527328Y1058511D01*
X527271Y1058454D01*
X527243Y1058426D01*
X527229Y1058412D01*
X527074Y1058214D01*
X526933Y1058003D01*
X526806Y1057792D01*
X526693Y1057566D01*
X526609Y1057326D01*
X526538Y1057101D01*
X526425Y1056664D01*
X526383Y1056452D01*
X526355Y1056269D01*
X526341Y1056100D01*
X526327Y1055959D01*
X526313Y1055832D01*
Y1055733D01*
Y1055677D01*
Y1055663D01*
X526327Y1055395D01*
X526341Y1055127D01*
X526383Y1054887D01*
X526425Y1054662D01*
X526468Y1054436D01*
X526538Y1054239D01*
X526595Y1054056D01*
X526665Y1053887D01*
X526721Y1053732D01*
X526792Y1053605D01*
X526848Y1053492D01*
X526891Y1053393D01*
X526947Y1053323D01*
X526975Y1053266D01*
X526989Y1053238D01*
X527003Y1053224D01*
X527187Y1053013D01*
X527370Y1052829D01*
X527581Y1052674D01*
X527807Y1052533D01*
X528032Y1052421D01*
X528258Y1052322D01*
X528484Y1052237D01*
X528709Y1052181D01*
X528906Y1052124D01*
X529104Y1052096D01*
X529287Y1052068D01*
X529442Y1052040D01*
X529569D01*
X529654Y1052026D01*
X529738D01*
X530147Y1052054D01*
X530528Y1052110D01*
X530852Y1052195D01*
X531134Y1052294D01*
X531261Y1052350D01*
X531359Y1052392D01*
X531458Y1052435D01*
X531529Y1052477D01*
X531585Y1052519D01*
X531641Y1052533D01*
X531655Y1052561D01*
X531669D01*
X531937Y1052787D01*
X532177Y1053027D01*
X532374Y1053295D01*
X532529Y1053548D01*
X532656Y1053774D01*
X532699Y1053873D01*
X532741Y1053957D01*
X532769Y1054028D01*
X532797Y1054084D01*
X532811Y1054112D01*
Y1054126D01*
X530951Y1054436D01*
X530880Y1054253D01*
X530810Y1054084D01*
X530739Y1053957D01*
X530654Y1053844D01*
X530598Y1053760D01*
X530542Y1053703D01*
X530499Y1053675D01*
X530485Y1053661D01*
X530373Y1053577D01*
X530246Y1053520D01*
X530119Y1053478D01*
X530006Y1053450D01*
X529907Y1053436D01*
X529823Y1053421D01*
X529752D01*
X529527Y1053436D01*
X529315Y1053492D01*
X529118Y1053562D01*
X528963Y1053647D01*
X528836Y1053732D01*
X528751Y1053802D01*
X528681Y1053858D01*
X528667Y1053873D01*
X528526Y1054056D01*
X528427Y1054267D01*
X528343Y1054493D01*
X528286Y1054690D01*
X528258Y1054887D01*
X528244Y1055029D01*
X528230Y1055085D01*
Y1055127D01*
Y1055155D01*
Y1055170D01*
X532910D01*
Y1055564D01*
X532882Y1055917D01*
X532840Y1056255D01*
X532783Y1056565D01*
X532713Y1056861D01*
X532642Y1057115D01*
X532558Y1057355D01*
X532473Y1057566D01*
X532388Y1057749D01*
X532304Y1057918D01*
X532233Y1058045D01*
X532163Y1058158D01*
X532107Y1058243D01*
X532064Y1058313D01*
X532036Y1058341D01*
X532022Y1058355D01*
X531853Y1058539D01*
X531655Y1058708D01*
X531458Y1058849D01*
X531261Y1058962D01*
X531049Y1059074D01*
X530838Y1059159D01*
X530640Y1059229D01*
X530443Y1059286D01*
X530260Y1059328D01*
X530091Y1059356D01*
X529935Y1059385D01*
X529809Y1059399D01*
X529696Y1059413D01*
D02*
G37*
G36*
X481963D02*
X481808D01*
X481555Y1059399D01*
X481315Y1059370D01*
X481075Y1059314D01*
X480864Y1059258D01*
X480652Y1059187D01*
X480469Y1059102D01*
X480286Y1059004D01*
X480131Y1058919D01*
X479990Y1058821D01*
X479863Y1058722D01*
X479750Y1058637D01*
X479666Y1058567D01*
X479595Y1058511D01*
X479539Y1058454D01*
X479510Y1058426D01*
X479496Y1058412D01*
X479341Y1058214D01*
X479200Y1058003D01*
X479073Y1057792D01*
X478961Y1057566D01*
X478876Y1057326D01*
X478806Y1057101D01*
X478693Y1056664D01*
X478651Y1056452D01*
X478622Y1056269D01*
X478608Y1056100D01*
X478594Y1055959D01*
X478580Y1055832D01*
Y1055733D01*
Y1055677D01*
Y1055663D01*
X478594Y1055395D01*
X478608Y1055127D01*
X478651Y1054887D01*
X478693Y1054662D01*
X478735Y1054436D01*
X478806Y1054239D01*
X478862Y1054056D01*
X478933Y1053887D01*
X478989Y1053732D01*
X479059Y1053605D01*
X479116Y1053492D01*
X479158Y1053393D01*
X479215Y1053323D01*
X479243Y1053266D01*
X479257Y1053238D01*
X479271Y1053224D01*
X479454Y1053013D01*
X479637Y1052829D01*
X479849Y1052674D01*
X480074Y1052533D01*
X480300Y1052421D01*
X480526Y1052322D01*
X480751Y1052237D01*
X480977Y1052181D01*
X481174Y1052124D01*
X481371Y1052096D01*
X481555Y1052068D01*
X481710Y1052040D01*
X481837D01*
X481921Y1052026D01*
X482006D01*
X482415Y1052054D01*
X482795Y1052110D01*
X483119Y1052195D01*
X483401Y1052294D01*
X483528Y1052350D01*
X483627Y1052392D01*
X483726Y1052435D01*
X483796Y1052477D01*
X483852Y1052519D01*
X483909Y1052533D01*
X483923Y1052561D01*
X483937D01*
X484205Y1052787D01*
X484445Y1053027D01*
X484642Y1053295D01*
X484797Y1053548D01*
X484924Y1053774D01*
X484966Y1053873D01*
X485008Y1053957D01*
X485037Y1054028D01*
X485065Y1054084D01*
X485079Y1054112D01*
Y1054126D01*
X483218Y1054436D01*
X483148Y1054253D01*
X483077Y1054084D01*
X483007Y1053957D01*
X482922Y1053844D01*
X482866Y1053760D01*
X482809Y1053703D01*
X482767Y1053675D01*
X482753Y1053661D01*
X482640Y1053577D01*
X482513Y1053520D01*
X482386Y1053478D01*
X482274Y1053450D01*
X482175Y1053436D01*
X482090Y1053421D01*
X482020D01*
X481794Y1053436D01*
X481583Y1053492D01*
X481385Y1053562D01*
X481230Y1053647D01*
X481104Y1053732D01*
X481019Y1053802D01*
X480948Y1053858D01*
X480934Y1053873D01*
X480793Y1054056D01*
X480695Y1054267D01*
X480610Y1054493D01*
X480554Y1054690D01*
X480526Y1054887D01*
X480511Y1055029D01*
X480497Y1055085D01*
Y1055127D01*
Y1055155D01*
Y1055170D01*
X485177D01*
Y1055564D01*
X485149Y1055917D01*
X485107Y1056255D01*
X485051Y1056565D01*
X484980Y1056861D01*
X484910Y1057115D01*
X484825Y1057355D01*
X484740Y1057566D01*
X484656Y1057749D01*
X484571Y1057918D01*
X484501Y1058045D01*
X484430Y1058158D01*
X484374Y1058243D01*
X484332Y1058313D01*
X484304Y1058341D01*
X484289Y1058355D01*
X484120Y1058539D01*
X483923Y1058708D01*
X483726Y1058849D01*
X483528Y1058962D01*
X483317Y1059074D01*
X483105Y1059159D01*
X482908Y1059229D01*
X482711Y1059286D01*
X482527Y1059328D01*
X482358Y1059356D01*
X482203Y1059385D01*
X482076Y1059399D01*
X481963Y1059413D01*
D02*
G37*
G36*
X322173Y982103D02*
X320072D01*
X317690Y974885D01*
X315209Y982103D01*
X313080D01*
X316576Y972348D01*
X318705D01*
X322173Y982103D01*
D02*
G37*
G36*
X458238Y1059413D02*
X458083D01*
X457702Y1059399D01*
X457350Y1059342D01*
X457026Y1059272D01*
X456744Y1059187D01*
X456631Y1059131D01*
X456518Y1059088D01*
X456420Y1059060D01*
X456349Y1059018D01*
X456279Y1058990D01*
X456236Y1058962D01*
X456208Y1058948D01*
X456194D01*
X455898Y1058750D01*
X455644Y1058539D01*
X455419Y1058313D01*
X455235Y1058102D01*
X455094Y1057904D01*
X454982Y1057749D01*
X454939Y1057693D01*
X454925Y1057651D01*
X454897Y1057622D01*
Y1057608D01*
X454742Y1057284D01*
X454643Y1056960D01*
X454559Y1056664D01*
X454502Y1056396D01*
X454474Y1056156D01*
X454460Y1056058D01*
Y1055973D01*
X454446Y1055917D01*
Y1055860D01*
Y1055832D01*
Y1055818D01*
X454460Y1055381D01*
X454517Y1054972D01*
X454587Y1054620D01*
X454629Y1054465D01*
X454672Y1054324D01*
X454714Y1054197D01*
X454756Y1054084D01*
X454799Y1053985D01*
X454827Y1053901D01*
X454855Y1053830D01*
X454883Y1053788D01*
X454897Y1053760D01*
Y1053746D01*
X455094Y1053450D01*
X455306Y1053196D01*
X455532Y1052970D01*
X455743Y1052787D01*
X455940Y1052646D01*
X456095Y1052547D01*
X456152Y1052505D01*
X456194Y1052477D01*
X456222Y1052463D01*
X456236D01*
X456575Y1052322D01*
X456899Y1052209D01*
X457209Y1052139D01*
X457505Y1052082D01*
X457745Y1052054D01*
X457844Y1052040D01*
X457928D01*
X457999Y1052026D01*
X458097D01*
X458393Y1052040D01*
X458661Y1052068D01*
X458929Y1052124D01*
X459169Y1052195D01*
X459408Y1052265D01*
X459620Y1052350D01*
X459817Y1052449D01*
X460000Y1052547D01*
X460155Y1052646D01*
X460296Y1052745D01*
X460423Y1052829D01*
X460522Y1052900D01*
X460606Y1052970D01*
X460663Y1053027D01*
X460691Y1053055D01*
X460705Y1053069D01*
X460888Y1053280D01*
X461044Y1053492D01*
X461184Y1053703D01*
X461311Y1053929D01*
X461410Y1054155D01*
X461495Y1054380D01*
X461565Y1054592D01*
X461622Y1054803D01*
X461664Y1054986D01*
X461692Y1055170D01*
X461720Y1055324D01*
X461734Y1055465D01*
X461748Y1055578D01*
Y1055663D01*
Y1055719D01*
Y1055733D01*
X461734Y1056029D01*
X461706Y1056311D01*
X461650Y1056565D01*
X461593Y1056819D01*
X461509Y1057044D01*
X461424Y1057270D01*
X461325Y1057467D01*
X461241Y1057651D01*
X461142Y1057806D01*
X461044Y1057961D01*
X460959Y1058073D01*
X460874Y1058186D01*
X460818Y1058257D01*
X460761Y1058327D01*
X460733Y1058355D01*
X460719Y1058370D01*
X460522Y1058553D01*
X460310Y1058708D01*
X460099Y1058849D01*
X459873Y1058976D01*
X459648Y1059074D01*
X459436Y1059159D01*
X459225Y1059229D01*
X459013Y1059286D01*
X458830Y1059328D01*
X458647Y1059356D01*
X458492Y1059385D01*
X458351Y1059399D01*
X458238Y1059413D01*
D02*
G37*
G36*
X476550Y1061767D02*
X474675Y1060667D01*
Y1059258D01*
X473815D01*
Y1057763D01*
X474675D01*
Y1054676D01*
Y1054493D01*
Y1054338D01*
Y1054183D01*
X474689Y1054056D01*
Y1053830D01*
X474703Y1053647D01*
X474718Y1053506D01*
Y1053421D01*
X474732Y1053365D01*
Y1053351D01*
X474760Y1053196D01*
X474802Y1053055D01*
X474844Y1052928D01*
X474887Y1052829D01*
X474929Y1052745D01*
X474957Y1052688D01*
X474971Y1052646D01*
X474985Y1052632D01*
X475070Y1052533D01*
X475169Y1052449D01*
X475366Y1052308D01*
X475451Y1052265D01*
X475521Y1052223D01*
X475578Y1052209D01*
X475592Y1052195D01*
X475747Y1052139D01*
X475902Y1052096D01*
X476057Y1052068D01*
X476198Y1052054D01*
X476325Y1052040D01*
X476423Y1052026D01*
X476508D01*
X476804Y1052040D01*
X477086Y1052068D01*
X477340Y1052110D01*
X477551Y1052167D01*
X477734Y1052209D01*
X477875Y1052251D01*
X477960Y1052280D01*
X477974Y1052294D01*
X477988D01*
X477819Y1053746D01*
X477650Y1053689D01*
X477495Y1053647D01*
X477368Y1053619D01*
X477255Y1053605D01*
X477170Y1053591D01*
X477114Y1053577D01*
X477058D01*
X476931Y1053591D01*
X476832Y1053619D01*
X476776Y1053647D01*
X476748Y1053661D01*
X476663Y1053746D01*
X476621Y1053816D01*
X476592Y1053873D01*
X476578Y1053901D01*
Y1053929D01*
X476564Y1053985D01*
Y1054112D01*
Y1054281D01*
X476550Y1054451D01*
Y1054620D01*
Y1054761D01*
Y1054817D01*
Y1054859D01*
Y1054887D01*
Y1054902D01*
Y1057763D01*
X477833D01*
Y1059258D01*
X476550D01*
Y1061767D01*
D02*
G37*
G36*
X502446Y1061936D02*
X498852D01*
Y1052181D01*
X500825D01*
Y1055860D01*
X502573D01*
X502785Y1055874D01*
X502982D01*
X503165Y1055888D01*
X503335Y1055902D01*
X503489Y1055917D01*
X503616Y1055931D01*
X503743D01*
X503842Y1055945D01*
X503941Y1055959D01*
X504011Y1055973D01*
X504067D01*
X504110Y1055987D01*
X504138D01*
X504335Y1056043D01*
X504519Y1056114D01*
X504688Y1056184D01*
X504843Y1056269D01*
X504970Y1056339D01*
X505068Y1056396D01*
X505125Y1056438D01*
X505153Y1056452D01*
X505336Y1056593D01*
X505491Y1056748D01*
X505646Y1056917D01*
X505759Y1057058D01*
X505858Y1057199D01*
X505928Y1057312D01*
X505971Y1057383D01*
X505985Y1057411D01*
X506097Y1057651D01*
X506182Y1057904D01*
X506239Y1058172D01*
X506281Y1058412D01*
X506309Y1058609D01*
Y1058708D01*
X506323Y1058778D01*
Y1058849D01*
Y1058891D01*
Y1058919D01*
Y1058933D01*
X506295Y1059342D01*
X506239Y1059723D01*
X506140Y1060033D01*
X506041Y1060315D01*
X505985Y1060428D01*
X505928Y1060526D01*
X505886Y1060611D01*
X505830Y1060695D01*
X505802Y1060752D01*
X505773Y1060794D01*
X505745Y1060808D01*
Y1060822D01*
X505519Y1061076D01*
X505294Y1061288D01*
X505054Y1061457D01*
X504843Y1061584D01*
X504646Y1061668D01*
X504490Y1061739D01*
X504434Y1061753D01*
X504392Y1061767D01*
X504364Y1061781D01*
X504350D01*
X504237Y1061809D01*
X504096Y1061837D01*
X503927Y1061851D01*
X503757Y1061865D01*
X503363Y1061894D01*
X502968Y1061922D01*
X502601D01*
X502446Y1061936D01*
D02*
G37*
G36*
X579487D02*
X577612D01*
Y1052181D01*
X579487D01*
Y1061936D01*
D02*
G37*
G36*
X546152Y867048D02*
X545983D01*
X545475Y867033D01*
X545024Y866977D01*
X544827Y866935D01*
X544629Y866892D01*
X544446Y866850D01*
X544291Y866808D01*
X544150Y866751D01*
X544009Y866709D01*
X543910Y866667D01*
X543812Y866639D01*
X543741Y866597D01*
X543685Y866582D01*
X543657Y866554D01*
X543643D01*
X543205Y866300D01*
X543022Y866145D01*
X542839Y866004D01*
X542670Y865849D01*
X542515Y865694D01*
X542374Y865539D01*
X542247Y865398D01*
X542148Y865257D01*
X542050Y865130D01*
X541965Y865018D01*
X541894Y864919D01*
X541852Y864834D01*
X541810Y864778D01*
X541796Y864736D01*
X541782Y864722D01*
X541669Y864496D01*
X541570Y864270D01*
X541415Y863805D01*
X541302Y863340D01*
X541232Y862931D01*
X541204Y862734D01*
X541176Y862565D01*
X541161Y862410D01*
Y862269D01*
X541147Y862170D01*
Y862085D01*
Y862029D01*
Y862015D01*
X541176Y861493D01*
X541232Y861014D01*
X541331Y860577D01*
X541373Y860366D01*
X541429Y860182D01*
X541486Y860013D01*
X541528Y859858D01*
X541584Y859731D01*
X541627Y859618D01*
X541655Y859534D01*
X541683Y859463D01*
X541711Y859421D01*
Y859407D01*
X541951Y858984D01*
X542219Y858618D01*
X542501Y858293D01*
X542783Y858040D01*
X542910Y857927D01*
X543036Y857828D01*
X543135Y857744D01*
X543234Y857687D01*
X543304Y857631D01*
X543375Y857589D01*
X543403Y857574D01*
X543417Y857560D01*
X543643Y857448D01*
X543854Y857349D01*
X544319Y857194D01*
X544770Y857081D01*
X545179Y857010D01*
X545377Y856982D01*
X545546Y856954D01*
X545701Y856940D01*
X545842D01*
X545940Y856926D01*
X546095D01*
X546547Y856940D01*
X546969Y856996D01*
X547378Y857067D01*
X547731Y857151D01*
X547886Y857194D01*
X548027Y857236D01*
X548154Y857278D01*
X548266Y857307D01*
X548351Y857335D01*
X548407Y857363D01*
X548450Y857377D01*
X548464D01*
X548887Y857546D01*
X549239Y857729D01*
X549549Y857913D01*
X549817Y858068D01*
X550014Y858209D01*
X550085Y858265D01*
X550155Y858322D01*
X550198Y858364D01*
X550240Y858392D01*
X550268Y858420D01*
Y862339D01*
X546025D01*
Y860690D01*
X548280D01*
Y859435D01*
X548111Y859308D01*
X547928Y859195D01*
X547745Y859097D01*
X547576Y859012D01*
X547435Y858942D01*
X547308Y858885D01*
X547237Y858857D01*
X547223Y858843D01*
X547209D01*
X546983Y858758D01*
X546758Y858702D01*
X546547Y858660D01*
X546363Y858632D01*
X546194Y858618D01*
X546081Y858604D01*
X545969D01*
X545743Y858618D01*
X545518Y858646D01*
X545320Y858688D01*
X545123Y858744D01*
X544770Y858885D01*
X544629Y858956D01*
X544488Y859041D01*
X544361Y859125D01*
X544249Y859195D01*
X544164Y859280D01*
X544080Y859336D01*
X544023Y859393D01*
X543981Y859435D01*
X543953Y859463D01*
X543939Y859477D01*
X543812Y859647D01*
X543685Y859844D01*
X543586Y860041D01*
X543502Y860253D01*
X543361Y860690D01*
X543276Y861113D01*
X543248Y861310D01*
X543220Y861507D01*
X543205Y861663D01*
X543191Y861818D01*
X543177Y861930D01*
Y862029D01*
Y862085D01*
Y862100D01*
X543191Y862396D01*
X543205Y862663D01*
X543248Y862931D01*
X543290Y863171D01*
X543346Y863382D01*
X543417Y863580D01*
X543488Y863763D01*
X543558Y863932D01*
X543614Y864073D01*
X543685Y864200D01*
X543755Y864299D01*
X543812Y864383D01*
X543854Y864454D01*
X543896Y864496D01*
X543910Y864524D01*
X543924Y864538D01*
X544080Y864679D01*
X544235Y864820D01*
X544404Y864919D01*
X544573Y865018D01*
X544742Y865102D01*
X544911Y865173D01*
X545235Y865271D01*
X545391Y865300D01*
X545532Y865328D01*
X545658Y865342D01*
X545771Y865356D01*
X545856Y865370D01*
X545983D01*
X546293Y865356D01*
X546561Y865300D01*
X546800Y865243D01*
X547012Y865159D01*
X547167Y865088D01*
X547294Y865018D01*
X547364Y864961D01*
X547392Y864947D01*
X547590Y864778D01*
X547759Y864595D01*
X547900Y864411D01*
X547999Y864228D01*
X548083Y864059D01*
X548139Y863932D01*
X548168Y863848D01*
X548182Y863833D01*
Y863819D01*
X550141Y864186D01*
X550085Y864426D01*
X550000Y864665D01*
X549916Y864877D01*
X549803Y865074D01*
X549704Y865271D01*
X549591Y865441D01*
X549479Y865596D01*
X549366Y865736D01*
X549253Y865863D01*
X549155Y865976D01*
X549070Y866075D01*
X548985Y866145D01*
X548915Y866202D01*
X548858Y866258D01*
X548830Y866272D01*
X548816Y866286D01*
X548619Y866427D01*
X548407Y866540D01*
X548182Y866639D01*
X547942Y866723D01*
X547477Y866864D01*
X547026Y866949D01*
X546814Y866991D01*
X546617Y867005D01*
X546434Y867019D01*
X546279Y867033D01*
X546152Y867048D01*
D02*
G37*
G36*
X469967Y1059413D02*
X469502D01*
X469276Y1059385D01*
X469051Y1059370D01*
X468853Y1059328D01*
X468656Y1059300D01*
X468487Y1059258D01*
X468332Y1059201D01*
X468191Y1059159D01*
X468078Y1059117D01*
X467965Y1059060D01*
X467881Y1059018D01*
X467796Y1058990D01*
X467740Y1058948D01*
X467697Y1058933D01*
X467683Y1058905D01*
X467669D01*
X467429Y1058694D01*
X467232Y1058454D01*
X467063Y1058200D01*
X466922Y1057961D01*
X466823Y1057735D01*
X466781Y1057636D01*
X466753Y1057552D01*
X466725Y1057481D01*
X466711Y1057425D01*
X466696Y1057397D01*
Y1057383D01*
X468374Y1057073D01*
X468444Y1057242D01*
X468515Y1057383D01*
X468585Y1057510D01*
X468670Y1057608D01*
X468726Y1057679D01*
X468783Y1057721D01*
X468811Y1057749D01*
X468825Y1057763D01*
X468938Y1057834D01*
X469065Y1057890D01*
X469206Y1057918D01*
X469333Y1057947D01*
X469445Y1057961D01*
X469530Y1057975D01*
X469614D01*
X469868Y1057961D01*
X470080Y1057933D01*
X470249Y1057904D01*
X470390Y1057862D01*
X470489Y1057806D01*
X470559Y1057777D01*
X470601Y1057749D01*
X470615Y1057735D01*
X470714Y1057636D01*
X470784Y1057524D01*
X470827Y1057397D01*
X470869Y1057270D01*
X470883Y1057143D01*
X470897Y1057044D01*
Y1056988D01*
Y1056960D01*
Y1056777D01*
X470799Y1056734D01*
X470672Y1056692D01*
X470404Y1056607D01*
X470094Y1056537D01*
X469798Y1056466D01*
X469516Y1056396D01*
X469389Y1056368D01*
X469276Y1056354D01*
X469192Y1056339D01*
X469121Y1056325D01*
X469079Y1056311D01*
X469065D01*
X468726Y1056241D01*
X468416Y1056170D01*
X468162Y1056100D01*
X467951Y1056029D01*
X467782Y1055959D01*
X467669Y1055917D01*
X467599Y1055888D01*
X467570Y1055874D01*
X467387Y1055776D01*
X467232Y1055663D01*
X467091Y1055536D01*
X466992Y1055423D01*
X466894Y1055324D01*
X466837Y1055240D01*
X466795Y1055184D01*
X466781Y1055155D01*
X466682Y1054972D01*
X466612Y1054789D01*
X466570Y1054620D01*
X466541Y1054451D01*
X466513Y1054309D01*
X466499Y1054197D01*
Y1054126D01*
Y1054098D01*
X466513Y1053929D01*
X466527Y1053774D01*
X466598Y1053478D01*
X466696Y1053224D01*
X466809Y1053013D01*
X466922Y1052843D01*
X467021Y1052717D01*
X467091Y1052632D01*
X467119Y1052618D01*
Y1052604D01*
X467373Y1052406D01*
X467655Y1052265D01*
X467937Y1052167D01*
X468219Y1052096D01*
X468459Y1052054D01*
X468571Y1052040D01*
X468656D01*
X468740Y1052026D01*
X468839D01*
X469065Y1052040D01*
X469290Y1052068D01*
X469488Y1052096D01*
X469657Y1052139D01*
X469798Y1052181D01*
X469911Y1052223D01*
X469981Y1052237D01*
X470009Y1052251D01*
X470206Y1052350D01*
X470404Y1052449D01*
X470573Y1052576D01*
X470728Y1052688D01*
X470855Y1052787D01*
X470954Y1052872D01*
X471010Y1052928D01*
X471038Y1052942D01*
X471052Y1052886D01*
X471081Y1052815D01*
X471095Y1052759D01*
X471109Y1052745D01*
Y1052731D01*
X471151Y1052604D01*
X471179Y1052491D01*
X471207Y1052392D01*
X471236Y1052322D01*
X471264Y1052265D01*
X471278Y1052209D01*
X471292Y1052195D01*
Y1052181D01*
X473139D01*
X473054Y1052364D01*
X472984Y1052533D01*
X472927Y1052688D01*
X472871Y1052829D01*
X472843Y1052942D01*
X472814Y1053041D01*
X472800Y1053097D01*
Y1053111D01*
X472772Y1053295D01*
X472758Y1053520D01*
X472730Y1053746D01*
Y1053971D01*
X472716Y1054169D01*
Y1054338D01*
Y1054408D01*
Y1054451D01*
Y1054479D01*
Y1054493D01*
X472744Y1056678D01*
Y1056903D01*
X472730Y1057101D01*
X472716Y1057284D01*
X472702Y1057453D01*
X472688Y1057608D01*
X472659Y1057749D01*
X472645Y1057876D01*
X472617Y1057975D01*
X472589Y1058073D01*
X472575Y1058144D01*
X472533Y1058271D01*
X472504Y1058327D01*
X472490Y1058355D01*
X472378Y1058511D01*
X472251Y1058665D01*
X472110Y1058792D01*
X471955Y1058905D01*
X471828Y1058990D01*
X471715Y1059046D01*
X471644Y1059088D01*
X471630Y1059102D01*
X471616D01*
X471489Y1059159D01*
X471362Y1059201D01*
X471066Y1059286D01*
X470756Y1059342D01*
X470460Y1059370D01*
X470178Y1059399D01*
X470066D01*
X469967Y1059413D01*
D02*
G37*
G36*
X445424Y1061936D02*
X443450D01*
Y1052181D01*
X445424D01*
Y1061936D01*
D02*
G37*
G36*
X312234Y981976D02*
X307286D01*
X306328Y976887D01*
X307836Y976676D01*
X307963Y976803D01*
X308090Y976915D01*
X308217Y977014D01*
X308344Y977098D01*
X308583Y977225D01*
X308809Y977310D01*
X309006Y977352D01*
X309147Y977380D01*
X309204Y977394D01*
X309288D01*
X309514Y977380D01*
X309725Y977324D01*
X309908Y977254D01*
X310063Y977169D01*
X310176Y977070D01*
X310275Y977000D01*
X310331Y976943D01*
X310345Y976929D01*
X310486Y976746D01*
X310585Y976535D01*
X310656Y976309D01*
X310698Y976084D01*
X310740Y975886D01*
X310754Y975731D01*
Y975661D01*
Y975618D01*
Y975590D01*
Y975576D01*
X310740Y975238D01*
X310698Y974942D01*
X310627Y974702D01*
X310557Y974505D01*
X310472Y974335D01*
X310416Y974223D01*
X310360Y974166D01*
X310345Y974138D01*
X310190Y973983D01*
X310021Y973856D01*
X309852Y973772D01*
X309697Y973715D01*
X309556Y973687D01*
X309443Y973673D01*
X309373Y973659D01*
X309345D01*
X309161Y973673D01*
X308978Y973715D01*
X308823Y973772D01*
X308696Y973842D01*
X308583Y973913D01*
X308499Y973969D01*
X308442Y974011D01*
X308428Y974025D01*
X308301Y974180D01*
X308189Y974335D01*
X308104Y974505D01*
X308048Y974660D01*
X308005Y974801D01*
X307977Y974928D01*
X307963Y974998D01*
Y975026D01*
X306102Y974829D01*
X306145Y974603D01*
X306187Y974392D01*
X306328Y974011D01*
X306483Y973673D01*
X306567Y973532D01*
X306666Y973391D01*
X306751Y973278D01*
X306821Y973179D01*
X306906Y973095D01*
X306962Y973010D01*
X307019Y972954D01*
X307061Y972912D01*
X307089Y972898D01*
X307103Y972884D01*
X307272Y972757D01*
X307442Y972644D01*
X307625Y972545D01*
X307808Y972475D01*
X308189Y972334D01*
X308527Y972249D01*
X308696Y972221D01*
X308837Y972207D01*
X308978Y972193D01*
X309091Y972179D01*
X309189Y972165D01*
X309316D01*
X309627Y972179D01*
X309923Y972221D01*
X310190Y972277D01*
X310444Y972362D01*
X310684Y972461D01*
X310895Y972573D01*
X311093Y972686D01*
X311276Y972813D01*
X311431Y972926D01*
X311572Y973039D01*
X311699Y973151D01*
X311797Y973250D01*
X311868Y973335D01*
X311924Y973391D01*
X311952Y973433D01*
X311967Y973447D01*
X312094Y973631D01*
X312206Y973814D01*
X312291Y973997D01*
X312375Y974194D01*
X312502Y974561D01*
X312587Y974899D01*
X312615Y975040D01*
X312629Y975181D01*
X312657Y975308D01*
Y975421D01*
X312672Y975506D01*
Y975562D01*
Y975604D01*
Y975618D01*
X312657Y975886D01*
X312629Y976140D01*
X312587Y976380D01*
X312530Y976605D01*
X312474Y976803D01*
X312390Y977000D01*
X312319Y977183D01*
X312234Y977338D01*
X312150Y977479D01*
X312079Y977606D01*
X311995Y977719D01*
X311938Y977803D01*
X311882Y977874D01*
X311840Y977930D01*
X311812Y977958D01*
X311797Y977972D01*
X311628Y978128D01*
X311459Y978269D01*
X311276Y978395D01*
X311093Y978508D01*
X310923Y978593D01*
X310740Y978663D01*
X310416Y978776D01*
X310261Y978818D01*
X310120Y978847D01*
X309993Y978861D01*
X309894Y978875D01*
X309810Y978889D01*
X309683D01*
X309443Y978875D01*
X309204Y978832D01*
X308992Y978790D01*
X308795Y978734D01*
X308640Y978663D01*
X308513Y978621D01*
X308428Y978579D01*
X308414Y978565D01*
X308400D01*
X308696Y980228D01*
X312234D01*
Y981976D01*
D02*
G37*
G36*
X465075Y1061936D02*
X463200D01*
Y1052181D01*
X465075D01*
Y1061936D01*
D02*
G37*
%LPD*%
G36*
X307262Y869881D02*
X304569D01*
X305894Y873504D01*
X307262Y869881D01*
D02*
G37*
G36*
X316143Y870262D02*
X316312Y870247D01*
X316481D01*
X316622Y870233D01*
X316749Y870219D01*
X316848Y870205D01*
X316947Y870191D01*
X317017Y870177D01*
X317130Y870163D01*
X317200Y870135D01*
X317214D01*
X317355Y870078D01*
X317482Y870008D01*
X317595Y869937D01*
X317680Y869853D01*
X317750Y869796D01*
X317792Y869740D01*
X317820Y869698D01*
X317835Y869684D01*
X317905Y869557D01*
X317961Y869430D01*
X318004Y869317D01*
X318032Y869190D01*
X318046Y869091D01*
X318060Y869007D01*
Y868951D01*
Y868936D01*
X318046Y868753D01*
X318018Y868584D01*
X317976Y868443D01*
X317919Y868330D01*
X317863Y868232D01*
X317820Y868161D01*
X317792Y868119D01*
X317778Y868105D01*
X317665Y868006D01*
X317553Y867922D01*
X317426Y867851D01*
X317313Y867795D01*
X317214Y867766D01*
X317130Y867738D01*
X317073Y867724D01*
X317059D01*
X317003Y867710D01*
X316918D01*
X316735Y867696D01*
X316509Y867682D01*
X316284D01*
X316072Y867668D01*
X313902D01*
Y870276D01*
X315946D01*
X316143Y870262D01*
D02*
G37*
G36*
X565380Y865201D02*
X565549D01*
X565690Y865187D01*
X565817D01*
X565944Y865173D01*
X566043D01*
X566198Y865145D01*
X566311Y865130D01*
X566381Y865116D01*
X566395D01*
X566592Y865060D01*
X566762Y864989D01*
X566917Y864919D01*
X567058Y864834D01*
X567156Y864764D01*
X567241Y864707D01*
X567283Y864665D01*
X567297Y864651D01*
X567424Y864510D01*
X567537Y864355D01*
X567636Y864200D01*
X567720Y864059D01*
X567777Y863918D01*
X567819Y863805D01*
X567847Y863735D01*
X567861Y863721D01*
Y863707D01*
X567932Y863453D01*
X567988Y863185D01*
X568016Y862889D01*
X568045Y862607D01*
X568059Y862367D01*
X568073Y862255D01*
Y862156D01*
Y862085D01*
Y862029D01*
Y861987D01*
Y861973D01*
X568059Y861578D01*
X568045Y861211D01*
X568002Y860915D01*
X567974Y860662D01*
X567932Y860450D01*
X567918Y860366D01*
X567889Y860309D01*
X567875Y860253D01*
Y860210D01*
X567861Y860196D01*
Y860182D01*
X567777Y859957D01*
X567706Y859759D01*
X567607Y859604D01*
X567537Y859477D01*
X567467Y859379D01*
X567410Y859308D01*
X567368Y859266D01*
X567354Y859252D01*
X567227Y859153D01*
X567100Y859069D01*
X566973Y858998D01*
X566846Y858942D01*
X566733Y858900D01*
X566649Y858871D01*
X566592Y858843D01*
X566564D01*
X566409Y858815D01*
X566226Y858801D01*
X566029Y858773D01*
X565831D01*
X565648Y858758D01*
X563914D01*
Y865215D01*
X565197D01*
X565380Y865201D01*
D02*
G37*
G36*
X316016Y874138D02*
X316383D01*
X316467Y874124D01*
X316622D01*
X316679Y874110D01*
X316693D01*
X316862Y874082D01*
X317017Y874040D01*
X317144Y873983D01*
X317257Y873927D01*
X317327Y873870D01*
X317398Y873814D01*
X317426Y873786D01*
X317440Y873772D01*
X317524Y873659D01*
X317581Y873532D01*
X317637Y873419D01*
X317665Y873307D01*
X317680Y873194D01*
X317694Y873109D01*
Y873053D01*
Y873039D01*
X317680Y872869D01*
X317651Y872714D01*
X317595Y872588D01*
X317553Y872475D01*
X317496Y872376D01*
X317440Y872320D01*
X317412Y872278D01*
X317398Y872263D01*
X317285Y872165D01*
X317158Y872094D01*
X317031Y872038D01*
X316904Y871995D01*
X316777Y871953D01*
X316693Y871939D01*
X316636Y871925D01*
X316552D01*
X316467Y871911D01*
X316030D01*
X315791Y871897D01*
X313902D01*
Y874152D01*
X315861D01*
X316016Y874138D01*
D02*
G37*
G36*
X469603Y811140D02*
X469899Y811126D01*
X470167Y811084D01*
X470407Y811042D01*
X470646Y810985D01*
X470858Y810915D01*
X471041Y810844D01*
X471210Y810774D01*
X471365Y810703D01*
X471492Y810633D01*
X471605Y810576D01*
X471704Y810506D01*
X471774Y810464D01*
X471816Y810421D01*
X471845Y810407D01*
X471859Y810393D01*
X472014Y810252D01*
X472141Y810097D01*
X472253Y809928D01*
X472352Y809773D01*
X472423Y809604D01*
X472493Y809449D01*
X472592Y809138D01*
X472662Y808871D01*
X472676Y808758D01*
X472690Y808659D01*
X472705Y808575D01*
Y808518D01*
Y808476D01*
Y808462D01*
X472690Y808250D01*
X472662Y808039D01*
X472620Y807842D01*
X472564Y807658D01*
X472437Y807320D01*
X472267Y807052D01*
X472197Y806925D01*
X472113Y806827D01*
X472042Y806728D01*
X471972Y806657D01*
X471929Y806601D01*
X471887Y806559D01*
X471859Y806531D01*
X471845Y806516D01*
X471675Y806390D01*
X471492Y806263D01*
X471295Y806164D01*
X471083Y806079D01*
X470675Y805938D01*
X470266Y805854D01*
X470068Y805826D01*
X469899Y805798D01*
X469730Y805783D01*
X469589Y805769D01*
X469476Y805755D01*
X469321D01*
X469011Y805769D01*
X468729Y805783D01*
X468461Y805826D01*
X468208Y805868D01*
X467982Y805924D01*
X467771Y805981D01*
X467587Y806051D01*
X467418Y806122D01*
X467263Y806192D01*
X467136Y806263D01*
X467038Y806319D01*
X466939Y806376D01*
X466868Y806418D01*
X466826Y806460D01*
X466798Y806474D01*
X466784Y806488D01*
X466629Y806629D01*
X466502Y806784D01*
X466389Y806954D01*
X466290Y807109D01*
X466206Y807278D01*
X466149Y807447D01*
X466037Y807757D01*
X465980Y808039D01*
X465966Y808152D01*
X465952Y808264D01*
X465938Y808349D01*
Y808406D01*
Y808448D01*
Y808462D01*
X465952Y808687D01*
X465980Y808899D01*
X466008Y809096D01*
X466065Y809279D01*
X466206Y809604D01*
X466276Y809759D01*
X466347Y809886D01*
X466431Y810013D01*
X466502Y810111D01*
X466572Y810196D01*
X466643Y810280D01*
X466699Y810337D01*
X466727Y810379D01*
X466756Y810393D01*
X466770Y810407D01*
X466939Y810534D01*
X467122Y810661D01*
X467305Y810760D01*
X467517Y810844D01*
X467940Y810971D01*
X468349Y811056D01*
X468532Y811098D01*
X468715Y811112D01*
X468870Y811126D01*
X469011Y811140D01*
X469138Y811154D01*
X469293D01*
X469603Y811140D01*
D02*
G37*
G36*
X618249Y865201D02*
X618418D01*
X618559Y865187D01*
X618686D01*
X618813Y865173D01*
X618912D01*
X619067Y865145D01*
X619180Y865130D01*
X619250Y865116D01*
X619264D01*
X619462Y865060D01*
X619631Y864989D01*
X619786Y864919D01*
X619927Y864834D01*
X620025Y864764D01*
X620110Y864707D01*
X620152Y864665D01*
X620166Y864651D01*
X620293Y864510D01*
X620406Y864355D01*
X620505Y864200D01*
X620589Y864059D01*
X620646Y863918D01*
X620688Y863805D01*
X620716Y863735D01*
X620730Y863721D01*
Y863707D01*
X620801Y863453D01*
X620857Y863185D01*
X620885Y862889D01*
X620914Y862607D01*
X620928Y862367D01*
X620942Y862255D01*
Y862156D01*
Y862085D01*
Y862029D01*
Y861987D01*
Y861973D01*
X620928Y861578D01*
X620914Y861211D01*
X620871Y860915D01*
X620843Y860662D01*
X620801Y860450D01*
X620787Y860366D01*
X620759Y860309D01*
X620744Y860253D01*
Y860210D01*
X620730Y860196D01*
Y860182D01*
X620646Y859957D01*
X620575Y859759D01*
X620476Y859604D01*
X620406Y859477D01*
X620336Y859379D01*
X620279Y859308D01*
X620237Y859266D01*
X620223Y859252D01*
X620096Y859153D01*
X619969Y859069D01*
X619842Y858998D01*
X619715Y858942D01*
X619603Y858900D01*
X619518Y858871D01*
X619462Y858843D01*
X619433D01*
X619278Y858815D01*
X619095Y858801D01*
X618898Y858773D01*
X618700D01*
X618517Y858758D01*
X616783D01*
Y865215D01*
X618066D01*
X618249Y865201D01*
D02*
G37*
G36*
X589703Y860972D02*
X587010D01*
X588335Y864595D01*
X589703Y860972D01*
D02*
G37*
G36*
X489999Y1057947D02*
X490224Y1057890D01*
X490407Y1057806D01*
X490577Y1057707D01*
X490704Y1057608D01*
X490788Y1057524D01*
X490859Y1057467D01*
X490873Y1057439D01*
X490957Y1057326D01*
X491028Y1057214D01*
X491141Y1056932D01*
X491211Y1056650D01*
X491267Y1056354D01*
X491296Y1056100D01*
X491310Y1055973D01*
X491324Y1055874D01*
Y1055790D01*
Y1055733D01*
Y1055691D01*
Y1055677D01*
X491310Y1055296D01*
X491253Y1054958D01*
X491183Y1054676D01*
X491098Y1054451D01*
X491014Y1054267D01*
X490943Y1054140D01*
X490887Y1054070D01*
X490873Y1054042D01*
X490690Y1053858D01*
X490506Y1053732D01*
X490323Y1053633D01*
X490154Y1053577D01*
X489999Y1053534D01*
X489886Y1053520D01*
X489801Y1053506D01*
X489773D01*
X489632Y1053520D01*
X489491Y1053534D01*
X489238Y1053619D01*
X489026Y1053732D01*
X488843Y1053873D01*
X488702Y1053999D01*
X488603Y1054112D01*
X488547Y1054197D01*
X488518Y1054211D01*
Y1054225D01*
X488462Y1054324D01*
X488420Y1054436D01*
X488335Y1054690D01*
X488279Y1054972D01*
X488251Y1055240D01*
X488223Y1055480D01*
Y1055578D01*
X488208Y1055677D01*
Y1055747D01*
Y1055818D01*
Y1055846D01*
Y1055860D01*
X488223Y1056227D01*
X488279Y1056551D01*
X488349Y1056819D01*
X488434Y1057044D01*
X488504Y1057214D01*
X488575Y1057340D01*
X488631Y1057411D01*
X488645Y1057439D01*
X488829Y1057622D01*
X489012Y1057749D01*
X489195Y1057848D01*
X489378Y1057904D01*
X489519Y1057947D01*
X489646Y1057961D01*
X489731Y1057975D01*
X489759D01*
X489999Y1057947D01*
D02*
G37*
G36*
X455547Y1022787D02*
X455857D01*
X455984Y1022773D01*
X456068D01*
X456111Y1022758D01*
X456125D01*
X456294Y1022716D01*
X456449Y1022660D01*
X456576Y1022603D01*
X456674Y1022533D01*
X456759Y1022462D01*
X456829Y1022420D01*
X456858Y1022378D01*
X456872Y1022364D01*
X456956Y1022251D01*
X457027Y1022110D01*
X457069Y1021983D01*
X457112Y1021856D01*
X457126Y1021743D01*
X457140Y1021659D01*
Y1021602D01*
Y1021574D01*
X457126Y1021419D01*
X457112Y1021278D01*
X457069Y1021151D01*
X457041Y1021039D01*
X456999Y1020954D01*
X456956Y1020898D01*
X456942Y1020855D01*
X456928Y1020841D01*
X456844Y1020742D01*
X456759Y1020658D01*
X456576Y1020531D01*
X456505Y1020489D01*
X456435Y1020461D01*
X456393Y1020432D01*
X456378D01*
X456308Y1020418D01*
X456195Y1020390D01*
X456082Y1020376D01*
X455956Y1020362D01*
X455659Y1020348D01*
X455364Y1020334D01*
X455081Y1020320D01*
X453164D01*
Y1022801D01*
X455420D01*
X455547Y1022787D01*
D02*
G37*
G36*
X564572Y1057904D02*
X564783Y1057848D01*
X564967Y1057763D01*
X565122Y1057665D01*
X565248Y1057552D01*
X565347Y1057467D01*
X565418Y1057411D01*
X565432Y1057383D01*
X565587Y1057157D01*
X565700Y1056903D01*
X565770Y1056621D01*
X565826Y1056354D01*
X565855Y1056114D01*
X565869Y1056015D01*
X565883Y1055917D01*
Y1055846D01*
Y1055790D01*
Y1055747D01*
Y1055733D01*
Y1055522D01*
X565869Y1055324D01*
X565841Y1055141D01*
X565812Y1054972D01*
X565784Y1054817D01*
X565742Y1054676D01*
X565700Y1054549D01*
X565671Y1054436D01*
X565587Y1054253D01*
X565516Y1054126D01*
X565460Y1054056D01*
X565446Y1054028D01*
X565277Y1053858D01*
X565093Y1053732D01*
X564910Y1053633D01*
X564741Y1053577D01*
X564586Y1053534D01*
X564473Y1053520D01*
X564389Y1053506D01*
X564360D01*
X564121Y1053534D01*
X563895Y1053591D01*
X563698Y1053689D01*
X563543Y1053788D01*
X563402Y1053887D01*
X563303Y1053985D01*
X563247Y1054042D01*
X563218Y1054070D01*
X563134Y1054183D01*
X563064Y1054309D01*
X562951Y1054577D01*
X562866Y1054873D01*
X562810Y1055170D01*
X562781Y1055423D01*
X562767Y1055536D01*
Y1055635D01*
X562753Y1055719D01*
Y1055776D01*
Y1055818D01*
Y1055832D01*
X562767Y1056199D01*
X562824Y1056509D01*
X562894Y1056777D01*
X562979Y1057002D01*
X563049Y1057171D01*
X563120Y1057298D01*
X563176Y1057369D01*
X563190Y1057397D01*
X563374Y1057580D01*
X563557Y1057707D01*
X563754Y1057806D01*
X563937Y1057862D01*
X564092Y1057904D01*
X564219Y1057918D01*
X564304Y1057933D01*
X564332D01*
X564572Y1057904D01*
D02*
G37*
G36*
X464019Y1020475D02*
X464202Y1020418D01*
X464371Y1020348D01*
X464512Y1020277D01*
X464625Y1020193D01*
X464710Y1020122D01*
X464766Y1020066D01*
X464780Y1020052D01*
X464907Y1019883D01*
X465020Y1019685D01*
X465090Y1019474D01*
X465147Y1019276D01*
X465175Y1019107D01*
X465189Y1018952D01*
X465203Y1018896D01*
Y1018868D01*
Y1018839D01*
Y1018825D01*
X462412D01*
X462426Y1019093D01*
X462468Y1019333D01*
X462525Y1019544D01*
X462609Y1019714D01*
X462680Y1019854D01*
X462750Y1019953D01*
X462793Y1020024D01*
X462807Y1020038D01*
X462962Y1020193D01*
X463131Y1020305D01*
X463300Y1020376D01*
X463455Y1020432D01*
X463596Y1020461D01*
X463709Y1020489D01*
X463808D01*
X464019Y1020475D01*
D02*
G37*
G36*
X484339Y1037882D02*
X484508Y1037868D01*
X484677D01*
X484818Y1037854D01*
X484945Y1037840D01*
X485044Y1037826D01*
X485142Y1037812D01*
X485213Y1037798D01*
X485326Y1037784D01*
X485396Y1037756D01*
X485410D01*
X485551Y1037699D01*
X485678Y1037629D01*
X485791Y1037558D01*
X485875Y1037474D01*
X485946Y1037417D01*
X485988Y1037361D01*
X486016Y1037318D01*
X486030Y1037304D01*
X486101Y1037178D01*
X486157Y1037051D01*
X486200Y1036938D01*
X486228Y1036811D01*
X486242Y1036712D01*
X486256Y1036628D01*
Y1036571D01*
Y1036557D01*
X486242Y1036374D01*
X486214Y1036205D01*
X486171Y1036064D01*
X486115Y1035951D01*
X486059Y1035852D01*
X486016Y1035782D01*
X485988Y1035740D01*
X485974Y1035725D01*
X485861Y1035627D01*
X485748Y1035542D01*
X485622Y1035472D01*
X485509Y1035415D01*
X485410Y1035387D01*
X485326Y1035359D01*
X485269Y1035345D01*
X485255D01*
X485199Y1035331D01*
X485114D01*
X484931Y1035317D01*
X484705Y1035303D01*
X484480D01*
X484268Y1035288D01*
X482097D01*
Y1037896D01*
X484141D01*
X484339Y1037882D01*
D02*
G37*
G36*
X484212Y1041759D02*
X484578D01*
X484663Y1041745D01*
X484818D01*
X484874Y1041731D01*
X484888D01*
X485058Y1041703D01*
X485213Y1041660D01*
X485340Y1041604D01*
X485452Y1041548D01*
X485523Y1041491D01*
X485593Y1041435D01*
X485622Y1041407D01*
X485636Y1041393D01*
X485720Y1041280D01*
X485777Y1041153D01*
X485833Y1041040D01*
X485861Y1040927D01*
X485875Y1040815D01*
X485889Y1040730D01*
Y1040674D01*
Y1040659D01*
X485875Y1040490D01*
X485847Y1040335D01*
X485791Y1040208D01*
X485748Y1040096D01*
X485692Y1039997D01*
X485636Y1039940D01*
X485607Y1039898D01*
X485593Y1039884D01*
X485481Y1039786D01*
X485354Y1039715D01*
X485227Y1039659D01*
X485100Y1039616D01*
X484973Y1039574D01*
X484888Y1039560D01*
X484832Y1039546D01*
X484748D01*
X484663Y1039532D01*
X484226D01*
X483986Y1039518D01*
X482097D01*
Y1041773D01*
X484057D01*
X484212Y1041759D01*
D02*
G37*
G36*
X470897Y1055184D02*
Y1054958D01*
X470883Y1054761D01*
X470869Y1054606D01*
X470855Y1054479D01*
X470841Y1054394D01*
X470827Y1054324D01*
X470813Y1054296D01*
Y1054281D01*
X470770Y1054155D01*
X470700Y1054028D01*
X470629Y1053929D01*
X470559Y1053830D01*
X470489Y1053760D01*
X470432Y1053703D01*
X470390Y1053675D01*
X470376Y1053661D01*
X470206Y1053548D01*
X470023Y1053478D01*
X469868Y1053421D01*
X469713Y1053379D01*
X469586Y1053351D01*
X469488Y1053337D01*
X469403D01*
X469248Y1053351D01*
X469093Y1053379D01*
X468966Y1053421D01*
X468867Y1053478D01*
X468769Y1053534D01*
X468712Y1053577D01*
X468670Y1053605D01*
X468656Y1053619D01*
X468557Y1053732D01*
X468487Y1053844D01*
X468444Y1053957D01*
X468416Y1054070D01*
X468388Y1054155D01*
X468374Y1054225D01*
Y1054281D01*
Y1054296D01*
X468388Y1054436D01*
X468430Y1054563D01*
X468487Y1054676D01*
X468557Y1054775D01*
X468614Y1054845D01*
X468670Y1054902D01*
X468712Y1054930D01*
X468726Y1054944D01*
X468839Y1055000D01*
X468980Y1055071D01*
X469149Y1055127D01*
X469318Y1055170D01*
X469488Y1055212D01*
X469614Y1055240D01*
X469671Y1055254D01*
X469713Y1055268D01*
X469741D01*
X470023Y1055324D01*
X470249Y1055381D01*
X470460Y1055437D01*
X470615Y1055480D01*
X470742Y1055522D01*
X470827Y1055536D01*
X470883Y1055564D01*
X470897D01*
Y1055184D01*
D02*
G37*
G36*
X557262Y1041886D02*
X557375Y1041872D01*
X557474Y1041830D01*
X557559Y1041787D01*
X557629Y1041745D01*
X557685Y1041717D01*
X557714Y1041689D01*
X557728Y1041674D01*
X557812Y1041576D01*
X557897Y1041449D01*
X557967Y1041308D01*
X558038Y1041167D01*
X558080Y1041026D01*
X558122Y1040913D01*
X558137Y1040843D01*
X558151Y1040829D01*
Y1040815D01*
X558179Y1040688D01*
X558207Y1040533D01*
X558235Y1040349D01*
X558263Y1040166D01*
X558292Y1039786D01*
X558306Y1039391D01*
X558320Y1039208D01*
Y1039024D01*
X558334Y1038869D01*
Y1038728D01*
Y1038615D01*
Y1038517D01*
Y1038460D01*
Y1038446D01*
Y1038136D01*
X558320Y1037840D01*
Y1037572D01*
X558306Y1037333D01*
X558292Y1037107D01*
X558278Y1036910D01*
X558249Y1036726D01*
X558235Y1036571D01*
X558221Y1036430D01*
X558193Y1036318D01*
X558179Y1036219D01*
X558165Y1036134D01*
X558151Y1036078D01*
Y1036022D01*
X558137Y1036008D01*
Y1035993D01*
X558080Y1035796D01*
X558010Y1035641D01*
X557939Y1035500D01*
X557883Y1035401D01*
X557826Y1035317D01*
X557770Y1035260D01*
X557742Y1035232D01*
X557728Y1035218D01*
X557629Y1035148D01*
X557530Y1035091D01*
X557432Y1035063D01*
X557333Y1035035D01*
X557262Y1035021D01*
X557192Y1035007D01*
X557136D01*
X557009Y1035021D01*
X556896Y1035035D01*
X556797Y1035077D01*
X556713Y1035119D01*
X556642Y1035148D01*
X556586Y1035190D01*
X556558Y1035204D01*
X556544Y1035218D01*
X556459Y1035317D01*
X556374Y1035444D01*
X556304Y1035585D01*
X556233Y1035725D01*
X556191Y1035852D01*
X556149Y1035965D01*
X556135Y1036036D01*
X556121Y1036064D01*
X556092Y1036205D01*
X556064Y1036360D01*
X556036Y1036529D01*
X556022Y1036712D01*
X555994Y1037107D01*
X555980Y1037502D01*
X555966Y1037685D01*
Y1037868D01*
X555951Y1038023D01*
Y1038164D01*
Y1038277D01*
Y1038376D01*
Y1038432D01*
Y1038446D01*
Y1038756D01*
X555966Y1039052D01*
Y1039306D01*
X555980Y1039560D01*
X555994Y1039771D01*
X556008Y1039983D01*
X556022Y1040152D01*
X556050Y1040321D01*
X556064Y1040462D01*
X556078Y1040575D01*
X556092Y1040674D01*
X556107Y1040758D01*
X556121Y1040815D01*
Y1040871D01*
X556135Y1040885D01*
Y1040899D01*
X556191Y1041096D01*
X556262Y1041266D01*
X556318Y1041393D01*
X556389Y1041505D01*
X556445Y1041576D01*
X556487Y1041632D01*
X556515Y1041660D01*
X556530Y1041674D01*
X556628Y1041745D01*
X556741Y1041801D01*
X556840Y1041844D01*
X556938Y1041872D01*
X557009Y1041886D01*
X557079Y1041900D01*
X557136D01*
X557262Y1041886D01*
D02*
G37*
G36*
X529865Y1057961D02*
X530048Y1057904D01*
X530218Y1057834D01*
X530358Y1057763D01*
X530471Y1057679D01*
X530556Y1057608D01*
X530612Y1057552D01*
X530626Y1057538D01*
X530753Y1057369D01*
X530866Y1057171D01*
X530936Y1056960D01*
X530993Y1056762D01*
X531021Y1056593D01*
X531035Y1056438D01*
X531049Y1056382D01*
Y1056354D01*
Y1056325D01*
Y1056311D01*
X528258D01*
X528272Y1056579D01*
X528314Y1056819D01*
X528371Y1057030D01*
X528455Y1057199D01*
X528526Y1057340D01*
X528596Y1057439D01*
X528639Y1057510D01*
X528653Y1057524D01*
X528808Y1057679D01*
X528977Y1057792D01*
X529146Y1057862D01*
X529301Y1057918D01*
X529442Y1057947D01*
X529555Y1057975D01*
X529654D01*
X529865Y1057961D01*
D02*
G37*
G36*
X834359Y1030552D02*
X834472Y1030538D01*
X834570Y1030496D01*
X834655Y1030454D01*
X834725Y1030411D01*
X834782Y1030383D01*
X834810Y1030355D01*
X834824Y1030341D01*
X834909Y1030242D01*
X834993Y1030115D01*
X835064Y1029974D01*
X835134Y1029833D01*
X835176Y1029693D01*
X835219Y1029580D01*
X835233Y1029509D01*
X835247Y1029495D01*
Y1029481D01*
X835275Y1029354D01*
X835303Y1029199D01*
X835331Y1029016D01*
X835360Y1028832D01*
X835388Y1028452D01*
X835402Y1028057D01*
X835416Y1027874D01*
Y1027691D01*
X835430Y1027536D01*
Y1027395D01*
Y1027282D01*
Y1027183D01*
Y1027127D01*
Y1027113D01*
Y1026803D01*
X835416Y1026507D01*
Y1026239D01*
X835402Y1025999D01*
X835388Y1025773D01*
X835374Y1025576D01*
X835346Y1025393D01*
X835331Y1025238D01*
X835317Y1025097D01*
X835289Y1024984D01*
X835275Y1024885D01*
X835261Y1024801D01*
X835247Y1024744D01*
Y1024688D01*
X835233Y1024674D01*
Y1024660D01*
X835176Y1024463D01*
X835106Y1024307D01*
X835035Y1024166D01*
X834979Y1024068D01*
X834923Y1023983D01*
X834866Y1023927D01*
X834838Y1023899D01*
X834824Y1023885D01*
X834725Y1023814D01*
X834627Y1023758D01*
X834528Y1023729D01*
X834429Y1023701D01*
X834359Y1023687D01*
X834288Y1023673D01*
X834232D01*
X834105Y1023687D01*
X833992Y1023701D01*
X833894Y1023744D01*
X833809Y1023786D01*
X833738Y1023814D01*
X833682Y1023856D01*
X833654Y1023870D01*
X833640Y1023885D01*
X833555Y1023983D01*
X833471Y1024110D01*
X833400Y1024251D01*
X833330Y1024392D01*
X833287Y1024519D01*
X833245Y1024632D01*
X833231Y1024702D01*
X833217Y1024730D01*
X833189Y1024871D01*
X833160Y1025026D01*
X833132Y1025195D01*
X833118Y1025379D01*
X833090Y1025773D01*
X833076Y1026168D01*
X833062Y1026351D01*
Y1026535D01*
X833048Y1026690D01*
Y1026831D01*
Y1026944D01*
Y1027042D01*
Y1027099D01*
Y1027113D01*
Y1027423D01*
X833062Y1027719D01*
Y1027973D01*
X833076Y1028226D01*
X833090Y1028438D01*
X833104Y1028649D01*
X833118Y1028818D01*
X833146Y1028988D01*
X833160Y1029129D01*
X833175Y1029241D01*
X833189Y1029340D01*
X833203Y1029425D01*
X833217Y1029481D01*
Y1029537D01*
X833231Y1029551D01*
Y1029566D01*
X833287Y1029763D01*
X833358Y1029932D01*
X833414Y1030059D01*
X833485Y1030172D01*
X833541Y1030242D01*
X833583Y1030299D01*
X833612Y1030327D01*
X833626Y1030341D01*
X833724Y1030411D01*
X833837Y1030468D01*
X833936Y1030510D01*
X834035Y1030538D01*
X834105Y1030552D01*
X834175Y1030566D01*
X834232D01*
X834359Y1030552D01*
D02*
G37*
G36*
X831277Y823415D02*
X831390Y823401D01*
X831489Y823359D01*
X831573Y823317D01*
X831644Y823274D01*
X831700Y823246D01*
X831728Y823218D01*
X831742Y823204D01*
X831827Y823105D01*
X831912Y822978D01*
X831982Y822837D01*
X832053Y822696D01*
X832095Y822555D01*
X832137Y822443D01*
X832151Y822372D01*
X832165Y822358D01*
Y822344D01*
X832194Y822217D01*
X832222Y822062D01*
X832250Y821879D01*
X832278Y821695D01*
X832306Y821315D01*
X832320Y820920D01*
X832335Y820737D01*
Y820554D01*
X832349Y820399D01*
Y820258D01*
Y820145D01*
Y820046D01*
Y819990D01*
Y819976D01*
Y819666D01*
X832335Y819370D01*
Y819102D01*
X832320Y818862D01*
X832306Y818636D01*
X832292Y818439D01*
X832264Y818256D01*
X832250Y818101D01*
X832236Y817960D01*
X832208Y817847D01*
X832194Y817748D01*
X832179Y817664D01*
X832165Y817607D01*
Y817551D01*
X832151Y817537D01*
Y817523D01*
X832095Y817326D01*
X832024Y817170D01*
X831954Y817029D01*
X831898Y816931D01*
X831841Y816846D01*
X831785Y816790D01*
X831757Y816762D01*
X831742Y816748D01*
X831644Y816677D01*
X831545Y816621D01*
X831447Y816592D01*
X831348Y816564D01*
X831277Y816550D01*
X831207Y816536D01*
X831150D01*
X831024Y816550D01*
X830911Y816564D01*
X830812Y816607D01*
X830727Y816649D01*
X830657Y816677D01*
X830601Y816719D01*
X830573Y816733D01*
X830558Y816748D01*
X830474Y816846D01*
X830389Y816973D01*
X830319Y817114D01*
X830248Y817255D01*
X830206Y817382D01*
X830164Y817495D01*
X830150Y817565D01*
X830135Y817593D01*
X830107Y817734D01*
X830079Y817889D01*
X830051Y818058D01*
X830037Y818242D01*
X830009Y818636D01*
X829995Y819031D01*
X829980Y819214D01*
Y819398D01*
X829966Y819553D01*
Y819694D01*
Y819807D01*
Y819905D01*
Y819962D01*
Y819976D01*
Y820286D01*
X829980Y820582D01*
Y820836D01*
X829995Y821089D01*
X830009Y821301D01*
X830023Y821512D01*
X830037Y821681D01*
X830065Y821851D01*
X830079Y821992D01*
X830093Y822104D01*
X830107Y822203D01*
X830121Y822288D01*
X830135Y822344D01*
Y822400D01*
X830150Y822414D01*
Y822429D01*
X830206Y822626D01*
X830276Y822795D01*
X830333Y822922D01*
X830403Y823035D01*
X830460Y823105D01*
X830502Y823162D01*
X830530Y823190D01*
X830544Y823204D01*
X830643Y823274D01*
X830756Y823331D01*
X830854Y823373D01*
X830953Y823401D01*
X831024Y823415D01*
X831094Y823429D01*
X831150D01*
X831277Y823415D01*
D02*
G37*
G36*
X502432Y1060273D02*
X502559D01*
X502686Y1060258D01*
X502869D01*
X503010Y1060244D01*
X503109Y1060230D01*
X503165Y1060216D01*
X503179D01*
X503349Y1060174D01*
X503504Y1060117D01*
X503645Y1060047D01*
X503757Y1059962D01*
X503842Y1059892D01*
X503913Y1059836D01*
X503955Y1059793D01*
X503969Y1059779D01*
X504082Y1059638D01*
X504152Y1059497D01*
X504208Y1059342D01*
X504251Y1059201D01*
X504279Y1059074D01*
X504293Y1058976D01*
Y1058919D01*
Y1058891D01*
X504279Y1058736D01*
X504265Y1058595D01*
X504223Y1058468D01*
X504180Y1058355D01*
X504138Y1058257D01*
X504110Y1058186D01*
X504082Y1058144D01*
X504067Y1058130D01*
X503983Y1058017D01*
X503870Y1057918D01*
X503772Y1057834D01*
X503673Y1057763D01*
X503588Y1057721D01*
X503518Y1057679D01*
X503461Y1057665D01*
X503447Y1057651D01*
X503363Y1057622D01*
X503264Y1057608D01*
X503038Y1057566D01*
X502785Y1057538D01*
X502531Y1057524D01*
X502277D01*
X502178Y1057510D01*
X500825D01*
Y1060287D01*
X502291D01*
X502432Y1060273D01*
D02*
G37*
G36*
X458365Y1057862D02*
X458605Y1057806D01*
X458802Y1057707D01*
X458985Y1057608D01*
X459126Y1057510D01*
X459239Y1057411D01*
X459295Y1057355D01*
X459324Y1057326D01*
X459493Y1057101D01*
X459620Y1056833D01*
X459704Y1056565D01*
X459775Y1056311D01*
X459803Y1056086D01*
X459817Y1055973D01*
Y1055888D01*
X459831Y1055818D01*
Y1055761D01*
Y1055733D01*
Y1055719D01*
X459803Y1055353D01*
X459747Y1055014D01*
X459676Y1054747D01*
X459577Y1054507D01*
X459479Y1054338D01*
X459408Y1054197D01*
X459352Y1054126D01*
X459324Y1054098D01*
X459126Y1053915D01*
X458929Y1053774D01*
X458717Y1053689D01*
X458520Y1053619D01*
X458351Y1053577D01*
X458224Y1053562D01*
X458168Y1053548D01*
X458097D01*
X457829Y1053577D01*
X457590Y1053633D01*
X457378Y1053717D01*
X457209Y1053830D01*
X457054Y1053929D01*
X456941Y1054014D01*
X456885Y1054070D01*
X456857Y1054098D01*
X456688Y1054324D01*
X456575Y1054592D01*
X456490Y1054859D01*
X456420Y1055127D01*
X456391Y1055353D01*
X456377Y1055451D01*
Y1055550D01*
X456363Y1055621D01*
Y1055677D01*
Y1055705D01*
Y1055719D01*
X456391Y1056086D01*
X456448Y1056410D01*
X456518Y1056692D01*
X456617Y1056917D01*
X456702Y1057087D01*
X456786Y1057228D01*
X456843Y1057298D01*
X456857Y1057326D01*
X457054Y1057510D01*
X457266Y1057651D01*
X457477Y1057749D01*
X457674Y1057820D01*
X457844Y1057862D01*
X457970Y1057876D01*
X458027Y1057890D01*
X458097D01*
X458365Y1057862D01*
D02*
G37*
G36*
X572903Y1057904D02*
X573115Y1057848D01*
X573298Y1057763D01*
X573453Y1057665D01*
X573580Y1057552D01*
X573679Y1057467D01*
X573749Y1057411D01*
X573763Y1057383D01*
X573918Y1057157D01*
X574031Y1056903D01*
X574101Y1056621D01*
X574158Y1056354D01*
X574186Y1056114D01*
X574200Y1056015D01*
X574214Y1055917D01*
Y1055846D01*
Y1055790D01*
Y1055747D01*
Y1055733D01*
Y1055522D01*
X574200Y1055324D01*
X574172Y1055141D01*
X574144Y1054972D01*
X574115Y1054817D01*
X574073Y1054676D01*
X574031Y1054549D01*
X574003Y1054436D01*
X573918Y1054253D01*
X573848Y1054126D01*
X573791Y1054056D01*
X573777Y1054028D01*
X573608Y1053858D01*
X573425Y1053732D01*
X573242Y1053633D01*
X573072Y1053577D01*
X572917Y1053534D01*
X572804Y1053520D01*
X572720Y1053506D01*
X572692D01*
X572452Y1053534D01*
X572226Y1053591D01*
X572029Y1053689D01*
X571874Y1053788D01*
X571733Y1053887D01*
X571634Y1053985D01*
X571578Y1054042D01*
X571550Y1054070D01*
X571465Y1054183D01*
X571395Y1054309D01*
X571282Y1054577D01*
X571197Y1054873D01*
X571141Y1055170D01*
X571113Y1055423D01*
X571099Y1055536D01*
Y1055635D01*
X571085Y1055719D01*
Y1055776D01*
Y1055818D01*
Y1055832D01*
X571099Y1056199D01*
X571155Y1056509D01*
X571226Y1056777D01*
X571310Y1057002D01*
X571381Y1057171D01*
X571451Y1057298D01*
X571508Y1057369D01*
X571522Y1057397D01*
X571705Y1057580D01*
X571888Y1057707D01*
X572085Y1057806D01*
X572269Y1057862D01*
X572424Y1057904D01*
X572551Y1057918D01*
X572635Y1057933D01*
X572663D01*
X572903Y1057904D01*
D02*
G37*
G36*
X482133Y1057961D02*
X482316Y1057904D01*
X482485Y1057834D01*
X482626Y1057763D01*
X482739Y1057679D01*
X482823Y1057608D01*
X482880Y1057552D01*
X482894Y1057538D01*
X483021Y1057369D01*
X483134Y1057171D01*
X483204Y1056960D01*
X483260Y1056762D01*
X483288Y1056593D01*
X483303Y1056438D01*
X483317Y1056382D01*
Y1056354D01*
Y1056325D01*
Y1056311D01*
X480526D01*
X480540Y1056579D01*
X480582Y1056819D01*
X480638Y1057030D01*
X480723Y1057199D01*
X480793Y1057340D01*
X480864Y1057439D01*
X480906Y1057510D01*
X480920Y1057524D01*
X481075Y1057679D01*
X481245Y1057792D01*
X481414Y1057862D01*
X481569Y1057918D01*
X481710Y1057947D01*
X481823Y1057975D01*
X481921D01*
X482133Y1057961D01*
D02*
G37*
G36*
X511412Y1057862D02*
X511652Y1057806D01*
X511849Y1057707D01*
X512032Y1057608D01*
X512173Y1057510D01*
X512286Y1057411D01*
X512342Y1057355D01*
X512371Y1057326D01*
X512540Y1057101D01*
X512667Y1056833D01*
X512751Y1056565D01*
X512822Y1056311D01*
X512850Y1056086D01*
X512864Y1055973D01*
Y1055888D01*
X512878Y1055818D01*
Y1055761D01*
Y1055733D01*
Y1055719D01*
X512850Y1055353D01*
X512794Y1055014D01*
X512723Y1054747D01*
X512624Y1054507D01*
X512526Y1054338D01*
X512455Y1054197D01*
X512399Y1054126D01*
X512371Y1054098D01*
X512173Y1053915D01*
X511976Y1053774D01*
X511764Y1053689D01*
X511567Y1053619D01*
X511398Y1053577D01*
X511271Y1053562D01*
X511215Y1053548D01*
X511144D01*
X510876Y1053577D01*
X510637Y1053633D01*
X510425Y1053717D01*
X510256Y1053830D01*
X510101Y1053929D01*
X509988Y1054014D01*
X509932Y1054070D01*
X509904Y1054098D01*
X509734Y1054324D01*
X509622Y1054592D01*
X509537Y1054859D01*
X509467Y1055127D01*
X509439Y1055353D01*
X509424Y1055451D01*
Y1055550D01*
X509410Y1055621D01*
Y1055677D01*
Y1055705D01*
Y1055719D01*
X509439Y1056086D01*
X509495Y1056410D01*
X509565Y1056692D01*
X509664Y1056917D01*
X509749Y1057087D01*
X509833Y1057228D01*
X509890Y1057298D01*
X509904Y1057326D01*
X510101Y1057510D01*
X510312Y1057651D01*
X510524Y1057749D01*
X510721Y1057820D01*
X510891Y1057862D01*
X511017Y1057876D01*
X511074Y1057890D01*
X511144D01*
X511412Y1057862D01*
D02*
G37*
D21*
X543070Y974090D02*
G03*
X543070Y974090I-1796J0D01*
G01*
X535940Y1010920D02*
Y1031240D01*
X494030Y1010920D02*
X535940D01*
X580390Y853440D02*
X589280D01*
X577850Y792480D02*
Y853440D01*
X576580Y981710D02*
Y1029970D01*
X626724Y871220D02*
Y881380D01*
X535724Y871220D02*
X626724D01*
X535724D02*
Y881380D01*
X626724Y971550D02*
Y981710D01*
X535474D02*
X626724D01*
X535474Y971550D02*
Y981710D01*
X342097Y810255D02*
Y859655D01*
Y859085D02*
Y859655D01*
Y859085D02*
Y859655D01*
X278597D02*
X342097D01*
Y810255D02*
Y810825D01*
X278597Y810255D02*
X342097D01*
X278597D02*
Y859655D01*
X479998Y841260D02*
X529398D01*
X479998D02*
X480568D01*
X479998D02*
X480568D01*
X479998Y777760D02*
Y841260D01*
X528828D02*
X529398D01*
Y777760D02*
Y841260D01*
X479998Y777760D02*
X529398D01*
X341896Y918910D02*
Y968310D01*
Y967740D02*
Y968310D01*
Y967740D02*
Y968310D01*
X278396D02*
X341896D01*
Y918910D02*
Y919480D01*
X278396Y918910D02*
X341896D01*
X278396D02*
Y968310D01*
X798310Y830010D02*
Y879410D01*
Y830010D02*
Y830580D01*
Y830010D02*
Y830580D01*
Y830010D02*
X861810D01*
X798310Y878840D02*
Y879410D01*
X861810D01*
Y830010D02*
Y879410D01*
X799580Y968440D02*
Y1017840D01*
Y968440D02*
Y969010D01*
Y968440D02*
Y969010D01*
Y968440D02*
X863080D01*
X799580Y1017270D02*
Y1017840D01*
X863080D01*
Y968440D02*
Y1017840D01*
D28*
X698200Y906020D02*
G03*
X698200Y906020I-1250J0D01*
G01*
Y885700D02*
G03*
X698200Y885700I-1250J0D01*
G01*
X675900Y946910D02*
G03*
X675900Y946910I-1250J0D01*
G01*
X446590Y816580D02*
G03*
X446590Y816580I-1250J0D01*
G01*
X355889Y862005D02*
G03*
X355889Y862005I-1250J0D01*
G01*
X675900Y968500D02*
G03*
X675900Y968500I-1250J0D01*
G01*
X494834Y908850D02*
G03*
X494834Y908850I-1250J0D01*
G01*
D29*
X431654Y1030478D02*
G03*
X431654Y1030478I-50000J0D01*
G01*
X701910Y1029970D02*
G03*
X701910Y1029970I-50000J0D01*
G01*
X710254Y820928D02*
G03*
X710254Y820928I-50000J0D01*
G01*
X741980Y893120D02*
Y900120D01*
X715980Y893120D02*
Y900120D01*
X781350Y893120D02*
Y900120D01*
X755350Y893120D02*
Y900120D01*
X681800Y922420D02*
X689800D01*
X681800Y908920D02*
X689800D01*
X681800Y902100D02*
X689800D01*
X681800Y888600D02*
X689800D01*
X681800Y930510D02*
X689800D01*
X681800Y944010D02*
X689800D01*
X431800Y819830D02*
X436880D01*
X431800Y841330D02*
X436880D01*
Y819830D02*
Y841330D01*
X431800Y819830D02*
Y841330D01*
X363099Y858755D02*
X368179D01*
X363099Y837255D02*
X368179D01*
X363099D02*
Y858755D01*
X368179Y837255D02*
Y858755D01*
X681800Y952100D02*
X689800D01*
X681800Y965600D02*
X689800D01*
X741980Y949000D02*
Y956000D01*
X715980Y949000D02*
Y956000D01*
X781350Y949000D02*
Y956000D01*
X755350Y949000D02*
Y956000D01*
X295942Y1019866D02*
Y1026866D01*
X321942Y1019866D02*
Y1026866D01*
X478084Y911600D02*
X485084D01*
X478084Y942600D02*
X485084D01*
Y911600D02*
Y942600D01*
X478084Y911600D02*
Y942600D01*
X459034Y998520D02*
X466034D01*
X459034Y972520D02*
X466034D01*
X460304Y899460D02*
X467304D01*
X460304Y873460D02*
X467304D01*
X401574Y1049528D02*
X411734D01*
X406654Y1044448D02*
Y1054608D01*
X671830Y1049020D02*
X681990D01*
X676910Y1043940D02*
Y1054100D01*
X630174Y801878D02*
X640334D01*
X635254Y796798D02*
Y806958D01*
D30*
X466344Y949960D02*
X468884D01*
X466344Y957580D02*
X468884D01*
X783590Y777240D02*
X786130D01*
X783590Y784860D02*
X786130D01*
X802640Y1057910D02*
X805180D01*
X802640Y1050290D02*
X805180D01*
X395732Y846998D02*
Y849538D01*
X388112Y846998D02*
Y849538D01*
X442722Y854202D02*
X445262D01*
X442722Y846582D02*
X445262D01*
D31*
X333957Y822255D02*
Y847655D01*
X491998Y833120D02*
X517398D01*
X333756Y930910D02*
Y956310D01*
X806450Y842010D02*
Y867410D01*
X807720Y980440D02*
Y1005840D01*
M02*
